<svg width="1440" height="1024" viewBox="0 0 1440 1024" fill="none" xmlns="http://www.w3.org/2000/svg">
<g clip-path="url(#clip0_165_406)">
<rect width="1440" height="1024" fill="white"/>
<rect x="662" y="-19" width="778" height="1057" fill="#EDF5FF"/>
<path d="M114.651 72.0688C108.609 66.0267 109.684 55.6707 110.977 51.248C99.9396 64.3348 106.664 80.2507 111.856 87.2731C112.012 87.5741 112.194 87.8172 112.406 87.9905C112.225 87.763 112.042 87.5237 111.856 87.2731C110.691 85.0208 110.977 79.5242 110.977 75.743L109.752 73.4976C114.324 75.4572 118.325 88.3307 119.754 94.5225C121.591 93.2977 122.204 79.6214 114.651 72.0688Z" fill="#5067FE"/>
<path d="M113.426 67.578C116.366 69.211 126.354 66.3533 130.981 64.7203C128.94 69.211 116.692 72.0688 115.876 72.0688C115.223 72.0688 113.971 69.0749 113.426 67.578Z" fill="#5067FE"/>
<circle cx="4.08249" cy="4.08249" r="4.08249" transform="matrix(-1 0 0 1 119.754 58.1875)" fill="#5067FE"/>
<path d="M115.313 41.3238L112.436 44.7171L108.319 43.0289L110.657 46.8142L107.779 50.2075L112.102 49.1537L114.44 52.9391L114.774 48.5025L119.096 47.4487L114.98 45.7605L115.313 41.3238Z" fill="#5067FE"/>
<path d="M96.67 78.35H87.55L85.87 83H82.99L90.55 62.21H93.7L101.23 83H98.35L96.67 78.35ZM95.89 76.13L92.11 65.57L88.33 76.13H95.89ZM140.879 78.35H131.759L130.079 83H127.199L134.759 62.21H137.909L145.439 83H142.559L140.879 78.35ZM140.099 76.13L136.319 65.57L132.539 76.13H140.099ZM165.174 83H162.444L151.464 66.35V83H148.734V62.06H151.464L162.444 78.68V62.06H165.174V83ZM181.168 83L172.558 73.46V83H169.828V62.09H172.558V71.78L181.198 62.09H184.648L175.168 72.56L184.738 83H181.168ZM194.417 83.21C193.037 83.21 191.797 82.97 190.697 82.49C189.617 81.99 188.767 81.31 188.147 80.45C187.527 79.57 187.207 78.56 187.187 77.42H190.097C190.197 78.4 190.597 79.23 191.297 79.91C192.017 80.57 193.057 80.9 194.417 80.9C195.717 80.9 196.737 80.58 197.477 79.94C198.237 79.28 198.617 78.44 198.617 77.42C198.617 76.62 198.397 75.97 197.957 75.47C197.517 74.97 196.967 74.59 196.307 74.33C195.647 74.07 194.757 73.79 193.637 73.49C192.257 73.13 191.147 72.77 190.307 72.41C189.487 72.05 188.777 71.49 188.177 70.73C187.597 69.95 187.307 68.91 187.307 67.61C187.307 66.47 187.597 65.46 188.177 64.58C188.757 63.7 189.567 63.02 190.607 62.54C191.667 62.06 192.877 61.82 194.237 61.82C196.197 61.82 197.797 62.31 199.037 63.29C200.297 64.27 201.007 65.57 201.167 67.19H198.167C198.067 66.39 197.647 65.69 196.907 65.09C196.167 64.47 195.187 64.16 193.967 64.16C192.827 64.16 191.897 64.46 191.177 65.06C190.457 65.64 190.097 66.46 190.097 67.52C190.097 68.28 190.307 68.9 190.727 69.38C191.167 69.86 191.697 70.23 192.317 70.49C192.957 70.73 193.847 71.01 194.987 71.33C196.367 71.71 197.477 72.09 198.317 72.47C199.157 72.83 199.877 73.4 200.477 74.18C201.077 74.94 201.377 75.98 201.377 77.3C201.377 78.32 201.107 79.28 200.567 80.18C200.027 81.08 199.227 81.81 198.167 82.37C197.107 82.93 195.857 83.21 194.417 83.21ZM221.504 62.09V83H218.774V73.52H208.124V83H205.394V62.09H208.124V71.27H218.774V62.09H221.504Z" fill="black"/>
<path d="M238.525 78.35H229.405L227.725 83H224.845L232.405 62.21H235.555L243.085 83H240.205L238.525 78.35ZM237.745 76.13L233.965 65.57L230.185 76.13H237.745ZM249.11 62.09V83H246.38V62.09H249.11Z" fill="#5067FE"/>
</g>
<defs>
<clipPath id="clip0_165_406">
<rect width="1440" height="1024" fill="white"/>
</clipPath>
</defs>
</svg>
