<svg width="363" height="318" viewBox="0 0 363 318" fill="none" xmlns="http://www.w3.org/2000/svg">
<path d="M37.7584 146.066L35.4804 162.835C34.7614 168.419 34.0104 174.017 33.4724 179.514C33.3964 180.205 33.3464 180.88 33.2904 181.559L33.2074 182.577C33.2144 182.502 33.2084 182.233 33.1724 182.077C33.1564 181.915 33.1054 181.74 33.0564 181.601C33.0234 181.479 32.9534 181.341 32.9064 181.251C32.8714 181.171 32.8064 181.08 32.7674 181.025C32.5904 180.798 32.5714 180.828 32.6184 180.877C32.6574 180.933 32.7994 181.043 32.9584 181.162C33.2944 181.405 33.7674 181.68 34.2834 181.938C36.4054 182.975 39.0284 183.859 41.6264 184.662C46.8734 186.254 52.3784 187.631 57.8164 188.972L57.2014 193.749C51.3814 193.543 45.6684 193.002 39.8594 191.954C36.9444 191.4 34.0594 190.794 30.9474 189.601C30.1614 189.291 29.3544 188.94 28.4774 188.443C28.0344 188.187 27.5834 187.9 27.0814 187.496C26.5864 187.088 26.0494 186.621 25.4854 185.794C25.2064 185.377 24.9364 184.875 24.7294 184.264C24.6274 183.956 24.5494 183.604 24.4924 183.27C24.4464 182.938 24.4284 182.491 24.4334 182.239L24.4584 181.129C24.4754 180.389 24.4874 179.645 24.5234 178.919C24.7604 173.076 25.2854 167.375 25.9084 161.674C26.5174 155.973 27.2444 150.324 28.1384 144.646L37.7584 146.066Z" fill="#7F3E3B"/>
<path d="M70.4073 194.017L66.7403 197.368C65.8843 198.15 64.6393 198.333 63.5943 197.83L59.5413 195.879C59.5413 195.879 53.5313 195.631 52.6743 191.959L54.2283 189.106L63.5383 188.071C64.4953 187.965 65.4603 188.179 66.2813 188.681L70.1183 191.024C71.1883 191.677 71.3323 193.172 70.4073 194.017Z" fill="#7F3E3B"/>
<path d="M48.4502 111.612C49.4012 117.364 50.2082 127.875 46.0942 131.572C46.0942 131.572 56.1362 136.83 62.7212 146.007C69.7642 140.427 63.8662 132.101 63.8662 132.101C57.5352 130.389 57.8402 125.662 59.0832 121.252L48.4502 111.612Z" fill="#7F3E3B"/>
<path d="M67.2435 135.638C67.2435 135.638 66.7135 130.761 64.0515 128.35C61.8155 126.324 50.0805 127.45 46.3845 127.862C45.6885 127.939 45.0875 128.371 44.7855 129.002L42.1045 134.602L67.2435 135.638Z" fill="#407BFF"/>
<path opacity="0.8" d="M67.2435 135.638C67.2435 135.638 66.7135 130.761 64.0515 128.35C61.8155 126.324 50.0805 127.45 46.3845 127.862C45.6885 127.939 45.0875 128.371 44.7855 129.002L42.1045 134.602L67.2435 135.638Z" fill="white"/>
<path d="M34.7305 133.07C27.4895 135.426 25.9335 145.134 26.5855 152.69L41.2005 161.68C41.2005 161.68 44.7495 150.646 44.7195 144.755C44.6875 138.484 39.6475 131.47 34.7305 133.07Z" fill="#407BFF"/>
<path d="M37.5607 159.477C37.2107 159.477 36.8607 159.337 36.6007 159.087C36.5407 159.017 36.4807 158.946 36.4407 158.877C36.3907 158.807 36.3407 158.727 36.3107 158.637C36.2817 158.557 36.2507 158.477 36.2307 158.387C36.2107 158.297 36.2017 158.217 36.2017 158.127C36.2017 157.767 36.3507 157.417 36.6007 157.167C37.1107 156.656 38.0207 156.656 38.5207 157.167C38.7707 157.417 38.9207 157.767 38.9207 158.127C38.9207 158.217 38.9107 158.297 38.8907 158.387C38.8707 158.477 38.8507 158.557 38.8107 158.637C38.7817 158.727 38.7417 158.807 38.6907 158.877C38.6407 158.946 38.5817 159.017 38.5207 159.087C38.2707 159.337 37.9207 159.477 37.5607 159.477Z" fill="white"/>
<path d="M34.7505 158.558C34.7505 158.558 34.7505 158.558 34.7605 158.558C34.2405 158.358 33.9105 157.868 33.8905 157.338C33.5005 157.688 32.9305 157.798 32.4205 157.558C31.9205 157.328 31.6205 156.818 31.6305 156.298C31.2205 156.628 30.6405 156.697 30.1505 156.428C29.6615 156.168 29.4005 155.648 29.4405 155.128C29.0105 155.428 28.4305 155.468 27.9515 155.178C27.3105 154.798 27.1105 153.958 27.4915 153.318C27.8815 152.678 28.7215 152.468 29.3605 152.858C29.8105 153.138 30.0415 153.638 30.0105 154.128C30.4105 153.838 30.9605 153.788 31.4305 154.038C31.8905 154.288 32.1605 154.767 32.1505 155.267C32.5315 154.958 33.0815 154.877 33.5605 155.097C34.0405 155.317 34.3315 155.787 34.3505 156.277C34.7205 155.958 35.2505 155.838 35.7505 156.027C36.4395 156.307 36.7905 157.097 36.5105 157.788C36.3005 158.327 35.7905 158.647 35.2505 158.647C35.0805 158.648 34.9205 158.617 34.7505 158.558Z" fill="white"/>
<path d="M26.5905 154.047C26.5005 154.047 26.4105 154.037 26.3195 154.017C26.2295 153.997 26.1495 153.977 26.0695 153.937C25.9795 153.907 25.8995 153.868 25.8305 153.818C25.7605 153.768 25.6895 153.709 25.6305 153.648C25.5605 153.588 25.5105 153.517 25.4605 153.447C25.4105 153.367 25.3705 153.288 25.3305 153.208C25.3005 153.128 25.2695 153.038 25.2505 152.958C25.2405 152.867 25.2295 152.777 25.2295 152.687C25.2295 152.597 25.2405 152.508 25.2505 152.428C25.2705 152.338 25.3005 152.257 25.3305 152.167C25.3595 152.087 25.4105 152.007 25.4605 151.937C25.5105 151.867 25.5605 151.797 25.6305 151.727C25.6905 151.667 25.7605 151.607 25.8305 151.557C25.8995 151.517 25.9795 151.467 26.0695 151.437C26.1495 151.407 26.2295 151.377 26.3195 151.357C26.7605 151.277 27.2295 151.418 27.5405 151.727C27.6095 151.797 27.6605 151.867 27.7105 151.937C27.7605 152.007 27.8005 152.087 27.8405 152.167C27.8705 152.257 27.9005 152.338 27.9105 152.428C27.9305 152.508 27.9395 152.597 27.9395 152.687C27.9395 152.777 27.9295 152.867 27.9105 152.958C27.8995 153.038 27.8705 153.128 27.8405 153.208C27.8005 153.288 27.7605 153.367 27.7105 153.447C27.6605 153.517 27.6095 153.589 27.5405 153.648C27.2905 153.898 26.9395 154.047 26.5905 154.047Z" fill="white"/>
<path d="M80.7683 147.178C80.1563 155.495 78.3053 169.502 73.7473 193.081L34.6073 191.917C35.6343 177.469 34.0843 166.696 30.5433 141.41C29.8973 136.795 33.2153 132.575 37.8513 132.097C40.3643 131.838 43.2183 131.624 46.0933 131.571C52.6893 131.449 58.0913 131.4 63.8663 132.1C65.7733 132.332 67.7433 132.632 69.6243 132.953C76.4513 134.119 81.2763 140.272 80.7683 147.178Z" fill="#407BFF"/>
<path d="M68.7003 101.024C68.7923 101.796 69.2773 102.373 69.7813 102.312C70.2853 102.251 70.6203 101.577 70.5273 100.804C70.4343 100.032 69.9503 99.4547 69.4463 99.5157C68.9423 99.5767 68.6083 100.252 68.7003 101.024Z" fill="#263238"/>
<path d="M69.2295 99.5856L71.0195 98.8286C71.0195 98.8286 70.2425 100.392 69.2295 99.5856Z" fill="#263238"/>
<path d="M68.9673 102.221C68.9673 102.221 70.6763 105.388 72.3103 106.819C71.4053 107.893 69.6193 107.665 69.6193 107.665L68.9673 102.221Z" fill="#630F0F"/>
<path d="M68.7945 94.2536C68.8815 94.1246 68.8995 93.9536 68.8285 93.8026C68.7205 93.5746 68.4475 93.4776 68.2195 93.5856C65.9385 94.6686 65.6305 96.7556 65.6185 96.8436C65.5845 97.0936 65.7595 97.3236 66.0095 97.3576C66.2585 97.3916 66.4885 97.2176 66.5235 96.9686C66.5335 96.8996 66.7895 95.2766 68.6115 94.4116C68.6885 94.3746 68.7505 94.3186 68.7945 94.2536Z" fill="#263238"/>
<path d="M42.0652 100.848C43.7842 110.261 44.3102 114.282 49.6832 118.575C57.7652 125.033 68.9502 120.863 70.0792 111.126C71.0952 102.362 68.1132 88.4409 58.3792 85.7789C48.7882 83.1579 40.3462 91.4349 42.0652 100.848Z" fill="#7F3E3B"/>
<path d="M62.7955 103.484C64.3825 108.656 68.1635 121.161 59.8105 123.945C53.2765 126.123 32.8185 127.865 30.4635 115.878C28.0275 103.483 39.0795 94.6617 39.0795 94.6617C39.0795 94.6617 30.3235 87.4797 35.9335 79.6577C43.1645 69.5737 60.4765 75.2757 65.6155 82.4007C70.6105 89.3257 62.7955 103.484 62.7955 103.484Z" fill="#263238"/>
<path d="M46.9615 125.665C43.6115 125.665 39.4565 124.981 36.0345 123.509C31.3885 121.508 28.6765 118.416 28.1925 114.568C26.5505 101.497 38.7135 94.3137 38.8375 94.2437L39.3215 95.0816C39.2045 95.1496 27.5925 102.022 29.1535 114.447C29.7075 118.855 33.4095 121.325 36.4175 122.62C42.3555 125.177 50.0265 125.163 51.8885 123.798L52.4605 124.579C51.4915 125.288 49.4485 125.665 46.9615 125.665Z" fill="#263238"/>
<path d="M35.3143 92.7858C35.2043 94.4578 33.8173 96.7548 39.6143 97.6178C45.4113 98.4818 53.4653 98.3998 55.1183 97.0048C56.7703 95.6108 58.4003 92.2768 54.9433 92.5748C51.4853 92.8738 35.5013 89.9278 35.3143 92.7858Z" fill="#407BFF"/>
<path d="M59.6322 104.959C60.6232 106.842 62.3912 108.092 64.0702 108.584C66.5952 109.323 67.8902 107.073 67.2152 104.673C66.6082 102.513 64.5632 99.5248 62.0162 99.8388C59.5072 100.148 58.4992 102.806 59.6322 104.959Z" fill="#7F3E3B"/>
<path d="M120.641 302.607L129.921 302.431L125.428 279.266L116.148 279.442L120.641 302.607Z" fill="#7F3E3B"/>
<path d="M127.6 292.521C130.055 301.766 139.077 311.553 139.077 311.553L126.2 308.281L120.572 300.284L121.557 298.167L127.6 292.521Z" fill="#7F3E3B"/>
<path d="M118.455 296.818C118.416 297.845 118.494 299.015 118.642 300.053C119.185 303.877 120.873 314.014 120.873 314.014L121.747 314.02C121.747 314.02 120.919 307.196 121.039 304.681C121.159 302.166 122.782 306.613 124.742 309.128C126.702 311.644 130.231 313.934 135.94 314.112C142.625 314.321 145.288 314.04 143.146 312.371C141.004 310.702 136.449 309.613 136.449 309.613C136.449 309.613 131.19 307.724 127.431 302.072C124.993 298.407 120.908 295.756 119.135 294.895C118.599 294.99 118.486 296.002 118.455 296.818Z" fill="#263238"/>
<path d="M153.507 271.139L165.353 271.505L152.104 251.807L143.901 258.818L153.507 271.139Z" fill="#7F3E3B"/>
<path d="M156.32 262.775C164.926 266.784 178.711 265.995 178.711 265.995L167.506 274.985L157.897 274.273L156.882 272.138L156.32 262.775Z" fill="#7F3E3B"/>
<path d="M154.498 272.989C155.228 273.722 156.135 274.461 156.989 275.055C160.132 277.244 168.617 282.852 168.617 282.852L169.161 282.169C169.161 282.169 163.639 278.15 161.866 276.335C160.094 274.52 164.361 276.287 167.418 276.466C170.476 276.646 174.336 275.436 177.993 271.067C182.274 265.952 183.713 263.666 181.165 264.209C178.617 264.752 175.004 267.589 175.004 267.589C175.004 267.589 170.369 270.434 163.898 269.524C159.702 268.934 155.233 270.333 153.505 271.139C153.245 271.626 153.918 272.406 154.498 272.989Z" fill="#263238"/>
<path d="M60.0985 192.399C60.0985 192.399 123.463 183.026 130.023 199.268C141.437 227.528 157.555 259.909 157.555 259.909L149.772 266.347C149.772 266.347 122.145 240.772 112.316 212.38C100.577 216.178 63.2275 228.4 49.5475 228.4C34.9365 228.4 28.9695 215.943 34.2465 195.258C34.7165 193.414 36.3975 192.136 38.3005 192.146C47.4985 192.191 60.0985 192.399 60.0985 192.399Z" fill="#263238"/>
<path d="M66.1724 200.65C66.1724 200.65 118.177 199.084 118.616 217.509C119.342 247.978 127.929 291.638 127.929 291.638L118.443 292.521C118.443 292.521 102.934 257.792 98.8314 228.028C80.3064 229.23 63.2274 228.4 49.5474 228.4C34.2164 228.4 32.9494 211.563 47.8724 191.918C56.9934 191.918 66.1724 200.65 66.1724 200.65Z" fill="#263238"/>
<path d="M34.0904 189.603L32.9854 193.077C32.8404 193.345 33.1544 193.631 33.6064 193.645L73.8895 194.843C74.2425 194.853 74.5394 194.689 74.5684 194.468L75.0254 190.975C75.0574 190.733 74.7574 190.518 74.3714 190.507L34.7364 189.328C34.4454 189.319 34.1844 189.43 34.0904 189.603Z" fill="white"/>
<path d="M39.2816 194.193L38.2196 194.161C38.0086 194.155 37.8506 194.041 37.8686 193.908L38.5016 189.371C38.5196 189.238 38.7086 189.135 38.9196 189.141L39.9816 189.172C40.1926 189.178 40.3506 189.292 40.3326 189.425L39.6996 193.962C39.6816 194.096 39.4936 194.199 39.2816 194.193Z" fill="#263238"/>
<path d="M70.8944 195.133L69.8334 195.101C69.6224 195.095 69.4644 194.981 69.4824 194.848L70.1154 190.311C70.1344 190.178 70.3224 190.075 70.5334 190.081L71.5954 190.112C71.8064 190.118 71.9644 190.232 71.9464 190.365L71.3134 194.902C71.2944 195.036 71.1064 195.139 70.8944 195.133Z" fill="#263238"/>
<path d="M55.0887 194.663L54.0277 194.631C53.8167 194.625 53.6587 194.511 53.6767 194.378L54.3097 189.841C54.3277 189.708 54.5167 189.605 54.7277 189.611L55.7897 189.643C56.0007 189.649 56.1587 189.763 56.1407 189.896L55.5077 194.433C55.4877 194.566 55.2997 194.669 55.0887 194.663Z" fill="#263238"/>
<path d="M103.325 150.657H128.624C129.432 150.657 130.014 151.432 129.788 152.208L120.334 184.656C120.183 185.173 119.709 185.529 119.17 185.529H93.8713C93.0633 185.529 92.4813 184.754 92.7073 183.978L102.161 151.53C102.312 151.012 102.786 150.657 103.325 150.657Z" fill="#407BFF"/>
<path d="M103.793 151.848L128.381 152.431L118.672 183.036L94.0825 182.452L103.793 151.848Z" fill="#E0E0E0"/>
<path d="M103.019 151.547L127.614 151.649L118.505 182.437L93.9102 182.335L103.019 151.547Z" fill="white"/>
<path d="M80.8436 152.184C80.8926 153.159 80.9856 154.372 81.0746 155.48C81.1736 156.613 81.2976 157.747 81.4476 158.875C81.7276 161.134 82.1026 163.37 82.5666 165.554C83.0476 167.731 83.6146 169.866 84.3526 171.86C84.7206 172.859 85.1266 173.824 85.5726 174.735C85.7886 175.201 86.0336 175.631 86.2756 176.063L86.6406 176.678C86.6096 176.637 86.5666 176.635 86.6006 176.67C86.6696 176.827 87.3756 177.279 88.1936 177.602C89.0316 177.942 90.0326 178.227 91.0746 178.464C93.1716 178.946 95.4536 179.26 97.7616 179.497C102.381 179.947 107.206 180.171 111.934 180.268L112.411 185.06C107.474 186.012 102.583 186.613 97.5026 186.745C94.9636 186.802 92.3956 186.757 89.7066 186.425C88.3596 186.246 86.9846 186.007 85.5196 185.579C84.0566 185.117 82.4776 184.589 80.7356 183.11C80.3096 182.748 79.8756 182.278 79.4806 181.753L78.8366 180.853C78.4336 180.259 78.0346 179.659 77.6866 179.051C76.9586 177.839 76.3416 176.599 75.7996 175.35C74.6976 172.853 73.8706 170.325 73.2176 167.786C72.5556 165.25 72.0786 162.703 71.7296 160.151C71.5626 158.873 71.4266 157.595 71.3176 156.311C71.2036 155.002 71.1366 153.793 71.1216 152.343L80.8436 152.184Z" fill="#7F3E3B"/>
<path d="M77.5536 137.437C83.8506 143.366 82.3336 158.818 82.3336 158.818L70.2676 160.927C70.2676 160.927 62.8186 149.849 65.4366 145.204C68.1636 140.366 74.1466 134.229 77.5536 137.437Z" fill="#407BFF"/>
<path d="M82.3305 160.178C81.9795 160.178 81.6205 160.028 81.3705 159.778C81.3095 159.718 81.2505 159.648 81.2005 159.568C81.1605 159.499 81.1095 159.419 81.0805 159.339C81.0505 159.259 81.0195 159.169 81.0005 159.078C80.9905 158.999 80.9805 158.908 80.9805 158.818C80.9805 158.459 81.1215 158.108 81.3715 157.858C81.4405 157.798 81.5015 157.738 81.5815 157.688C81.6505 157.638 81.7305 157.598 81.8115 157.568C81.9015 157.528 81.9815 157.508 82.0715 157.488C82.5025 157.398 82.9715 157.548 83.2925 157.858C83.5425 158.108 83.6925 158.459 83.6925 158.818C83.6925 158.908 83.6825 158.999 83.6635 159.078C83.6425 159.169 83.6235 159.259 83.5835 159.339C83.5535 159.419 83.5135 159.499 83.4635 159.568C83.4135 159.648 83.3535 159.718 83.2935 159.778C83.0405 160.027 82.6895 160.178 82.3305 160.178Z" fill="white"/>
<path d="M71.3708 160.898C71.3098 160.148 71.8598 159.488 72.6098 159.428C73.1298 159.378 73.6208 159.638 73.8798 160.068C74.0398 159.598 74.4498 159.228 74.9698 159.148C75.4908 159.078 75.9908 159.308 76.2808 159.718C76.4108 159.238 76.8008 158.848 77.3098 158.748C77.8298 158.638 78.3398 158.848 78.6498 159.237C78.7508 158.748 79.1208 158.337 79.6298 158.197V158.208C80.3598 158.008 81.0998 158.447 81.2898 159.168C81.4798 159.888 81.0498 160.638 80.3188 160.827C79.7898 160.968 79.2398 160.767 78.9098 160.357C78.7998 160.867 78.3988 161.288 77.8488 161.407C77.3088 161.508 76.7688 161.277 76.4688 160.847C76.3288 161.357 75.9098 161.757 75.3588 161.837C74.8088 161.917 74.2798 161.647 74.0088 161.207C73.8388 161.696 73.3988 162.076 72.8388 162.127C72.7988 162.127 72.7688 162.127 72.7288 162.127C72.0308 162.128 71.4398 161.598 71.3708 160.898Z" fill="white"/>
<path d="M70.2706 162.288C70.1806 162.288 70.0906 162.277 70.0006 162.258C69.9106 162.238 69.8306 162.208 69.7506 162.178C69.6606 162.148 69.5906 162.098 69.5106 162.058C69.4406 162.008 69.3706 161.948 69.3106 161.888C69.2416 161.827 69.1906 161.758 69.1406 161.678C69.0906 161.608 69.0506 161.528 69.0106 161.448C68.9806 161.358 68.9506 161.278 68.9406 161.188C68.9206 161.108 68.9116 161.018 68.9116 160.928C68.9116 160.838 68.9216 160.748 68.9406 160.657C68.9516 160.577 68.9806 160.487 69.0106 160.407C69.0506 160.327 69.0906 160.248 69.1406 160.168C69.1906 160.098 69.2416 160.027 69.3106 159.968C69.3716 159.908 69.4406 159.848 69.5106 159.798C69.5906 159.748 69.6606 159.708 69.7506 159.678C69.8306 159.638 69.9106 159.617 70.0006 159.598C70.4396 159.508 70.9106 159.648 71.2206 159.968C71.2906 160.028 71.3406 160.098 71.3906 160.168C71.4406 160.248 71.4806 160.327 71.5206 160.407C71.5506 160.487 71.5816 160.577 71.6006 160.657C71.6106 160.748 71.6216 160.838 71.6216 160.928C71.6216 161.018 71.6106 161.108 71.6006 161.188C71.5806 161.278 71.5506 161.358 71.5206 161.448C71.4806 161.528 71.4406 161.608 71.3906 161.678C71.3406 161.748 71.2906 161.827 71.2206 161.888C70.9706 162.138 70.6206 162.288 70.2706 162.288Z" fill="white"/>
<path d="M123.201 175.266L119.026 174.984C117.984 174.914 116.949 175.191 116.082 175.774L108.41 180.927L108.352 184.175C110.81 187.034 116.254 184.474 116.254 184.474L121.303 184.312C122.128 184.286 122.853 183.76 123.136 182.985L124.963 177.973C125.424 176.709 124.543 175.357 123.201 175.266Z" fill="#7F3E3B"/>
<path d="M36.5881 317.454H37.7212C38.1632 317.454 38.5421 317.066 38.6181 316.535L45.5782 268.096H40.2932L35.6841 316.214C35.6201 316.874 36.0431 317.454 36.5881 317.454Z" fill="#407BFF"/>
<path opacity="0.3" d="M36.5881 317.454H37.7212C38.1632 317.454 38.5421 317.066 38.6181 316.535L45.5782 268.096H40.2932L35.6841 316.214C35.6201 316.874 36.0431 317.454 36.5881 317.454Z" fill="black"/>
<path d="M22.087 317.454H23.22C23.662 317.454 24.04 317.066 24.117 316.535L31.077 268.096H25.792L21.183 316.214C21.12 316.874 21.543 317.454 22.087 317.454Z" fill="#407BFF"/>
<path opacity="0.3" d="M22.087 317.454H23.22C23.662 317.454 24.04 317.066 24.117 316.535L31.077 268.096H25.792L21.183 316.214C21.12 316.874 21.543 317.454 22.087 317.454Z" fill="black"/>
<path d="M102.885 317.454H101.752C101.31 317.454 100.931 317.066 100.855 316.535L93.895 268.096H99.18L103.789 316.214C103.853 316.874 103.43 317.454 102.885 317.454Z" fill="#407BFF"/>
<path opacity="0.3" d="M102.885 317.454H101.752C101.31 317.454 100.931 317.066 100.855 316.535L93.895 268.096H99.18L103.789 316.214C103.853 316.874 103.43 317.454 102.885 317.454Z" fill="black"/>
<path d="M117.386 317.454H116.253C115.811 317.454 115.433 317.066 115.356 316.535L108.396 268.096H113.681L118.29 316.214C118.354 316.874 117.931 317.454 117.386 317.454Z" fill="#407BFF"/>
<path opacity="0.3" d="M117.386 317.454H116.253C115.811 317.454 115.433 317.066 115.356 316.535L108.396 268.096H113.681L118.29 316.214C118.354 316.874 117.931 317.454 117.386 317.454Z" fill="black"/>
<path d="M136.178 210.676H100.578C94.2622 188.742 71.5352 171.437 48.2612 171.437H48.2582H36.6982C12.3362 171.437 -3.38577 190.393 1.58223 213.776C2.49423 218.069 4.04523 222.21 6.11223 226.114L11.7262 260.143C12.4512 264.535 15.9552 268.095 19.5522 268.095H126.704C130.302 268.095 133.806 264.535 134.53 260.143L141.38 218.627C142.106 214.236 139.777 210.676 136.178 210.676Z" fill="#407BFF"/>
<path opacity="0.5" d="M136.178 210.676H100.578C94.2622 188.742 71.5352 171.437 48.2612 171.437H48.2582H36.6982C12.3362 171.437 -3.38577 190.393 1.58223 213.776C2.49423 218.069 4.04523 222.21 6.11223 226.114L11.7262 260.143C12.4512 264.535 15.9552 268.095 19.5522 268.095H126.704C130.302 268.095 133.806 264.535 134.53 260.143L141.38 218.627C142.106 214.236 139.777 210.676 136.178 210.676Z" fill="white"/>
<path d="M318.07 304.593H316.655C316.103 304.593 315.63 304.107 315.534 303.44L306.839 242.714H313.441L319.199 303.037C319.28 303.866 318.751 304.593 318.07 304.593Z" fill="#407BFF"/>
<path opacity="0.3" d="M318.07 304.593H316.655C316.103 304.593 315.63 304.107 315.534 303.44L306.839 242.714H313.441L319.199 303.037C319.28 303.866 318.751 304.593 318.07 304.593Z" fill="black"/>
<path d="M336.185 304.593H334.769C334.217 304.593 333.745 304.107 333.648 303.44L324.954 242.714H331.556L337.314 303.037C337.394 303.866 336.866 304.593 336.185 304.593Z" fill="#407BFF"/>
<path opacity="0.3" d="M336.185 304.593H334.769C334.217 304.593 333.745 304.107 333.648 303.44L324.954 242.714H331.556L337.314 303.037C337.394 303.866 336.866 304.593 336.185 304.593Z" fill="black"/>
<path d="M235.252 304.593H236.667C237.219 304.593 237.692 304.107 237.788 303.44L246.483 242.714H239.881L234.123 303.037C234.043 303.866 234.572 304.593 235.252 304.593Z" fill="#407BFF"/>
<path opacity="0.3" d="M235.252 304.593H236.667C237.219 304.593 237.692 304.107 237.788 303.44L246.483 242.714H239.881L234.123 303.037C234.043 303.866 234.572 304.593 235.252 304.593Z" fill="black"/>
<path d="M217.138 304.593H218.553C219.105 304.593 219.578 304.107 219.674 303.44L228.369 242.714H221.767L216.009 303.037C215.93 303.866 216.458 304.593 217.138 304.593Z" fill="#407BFF"/>
<path opacity="0.3" d="M217.138 304.593H218.553C219.105 304.593 219.578 304.107 219.674 303.44L228.369 242.714H221.767L216.009 303.037C215.93 303.866 216.458 304.593 217.138 304.593Z" fill="black"/>
<path d="M193.663 170.731H238.133C246.022 143.234 274.413 121.54 303.487 121.54H303.489H317.93C348.363 121.54 368.002 145.304 361.797 174.619C360.658 180 358.721 185.192 356.138 190.087L349.124 232.746C348.22 238.252 343.842 242.715 339.348 242.715H205.495C201 242.715 196.623 238.252 195.718 232.746L187.162 180.701C186.258 175.195 189.168 170.731 193.663 170.731Z" fill="#407BFF"/>
<path opacity="0.5" d="M193.663 170.731H238.133C246.022 143.234 274.413 121.54 303.487 121.54H303.489H317.93C348.363 121.54 368.002 145.304 361.797 174.619C360.658 180 358.721 185.192 356.138 190.087L349.124 232.746C348.22 238.252 343.842 242.715 339.348 242.715H205.495C201 242.715 196.623 238.252 195.718 232.746L187.162 180.701C186.258 175.195 189.168 170.731 193.663 170.731Z" fill="white"/>
<path d="M182.529 288.882L193.544 293.955C193.944 294.139 194.119 294.557 193.964 294.962L190.498 303.954C190.138 304.886 188.897 305.354 187.981 304.913C184.177 303.08 182.449 302.011 177.604 299.78C174.624 298.407 166.465 293.819 162.789 291.165C159.194 288.569 161.833 284.94 163.628 285.735C171.674 289.297 176.796 289.616 180.562 288.71C181.243 288.546 181.943 288.612 182.529 288.882Z" fill="#263238"/>
<path d="M260.627 153.394C260.627 153.394 190.212 154.272 189.124 182.127C187.561 222.165 181.669 288.644 181.669 288.644L193.544 293.953C193.544 293.953 214.348 227.242 215.091 195.974C234.847 191.035 285.82 196.015 291.809 179.719C296.709 166.387 294.059 153.394 294.059 153.394H260.627Z" fill="#407BFF"/>
<path opacity="0.2" d="M260.627 153.394C260.627 153.394 190.212 154.272 189.124 182.127C187.561 222.165 181.669 288.644 181.669 288.644L193.544 293.953C193.544 293.953 214.348 227.242 215.091 195.974C234.847 191.035 285.82 196.015 291.809 179.719C296.709 166.387 294.059 153.394 294.059 153.394H260.627Z" fill="black"/>
<path d="M275.613 80.1086C275.001 82.6792 274.383 84.9995 273.674 87.4045C272.98 89.787 272.254 92.1576 271.492 94.5215C269.946 99.2415 268.244 103.93 266.278 108.569C264.328 113.216 262.148 117.823 259.491 122.367C258.15 124.637 256.718 126.911 255.019 129.13C253.321 131.35 251.399 133.561 248.885 135.632L248.689 135.793C248.552 135.905 248.405 136.014 248.26 136.111C246.582 137.22 245.019 137.56 243.83 137.706C242.621 137.841 241.638 137.785 240.824 137.685C239.153 137.479 237.928 137.1 236.779 136.702C234.518 135.893 232.662 134.966 230.871 134.005C227.315 132.085 224.16 129.934 221.063 127.752C217.993 125.536 215.038 123.244 212.167 120.862C209.314 118.438 206.519 116.045 203.796 113.411C202.193 111.859 202.147 109.298 203.692 107.689C204.987 106.341 206.989 106.089 208.547 106.956L208.612 106.993C211.728 108.726 214.872 110.564 218.025 112.274C221.165 114.017 224.295 115.741 227.43 117.354C230.541 118.988 233.699 120.504 236.708 121.751C238.2 122.363 239.697 122.89 240.915 123.165C241.506 123.298 242.056 123.367 242.2 123.337C242.289 123.335 242.225 123.284 241.917 123.305C241.627 123.334 240.965 123.419 240.043 124.011L239.419 124.49C240.542 123.424 241.735 121.939 242.837 120.264C243.94 118.584 245.019 116.756 246.019 114.834C248.012 110.97 249.793 106.804 251.438 102.544C253.065 98.2715 254.586 93.9001 255.995 89.4769C257.429 85.0975 258.733 80.5008 259.924 76.2115L259.969 76.0499C261.167 71.7354 265.623 69.2124 269.921 70.4143C274.12 71.5856 276.611 75.8922 275.613 80.1086Z" fill="#263238"/>
<path d="M247.071 294.633H260.281C260.762 294.633 261.125 294.968 261.153 295.438L261.793 305.928C261.859 307.016 260.842 308.045 259.734 308.027C255.136 307.947 252.938 307.676 247.129 307.676C243.555 307.676 236.345 308.048 231.411 308.048C226.584 308.048 226.617 303.15 228.708 302.707C238.087 300.718 241.726 297.975 245.045 295.358C245.643 294.887 246.367 294.633 247.071 294.633Z" fill="#263238"/>
<path d="M279.605 153.394C279.605 153.394 215.735 158.807 217.306 186.64C219.027 217.118 247.069 294.633 247.069 294.633H259.985C259.985 294.633 248.93 223.647 245.044 192.613C263.046 192.613 304.798 196.015 310.787 179.719C315.687 166.387 313.037 153.394 313.037 153.394H279.605Z" fill="#407BFF"/>
<path d="M209.531 108.303C209.531 108.303 207.694 105.314 205.94 103.88C203.328 106.338 201.858 113.505 201.858 113.505L205.47 113.833C205.47 113.833 209.613 112.481 209.531 108.303Z" fill="#407BFF"/>
<path d="M196.276 101.863L192.168 100.073C191.066 99.592 189.778 100.004 189.156 101.038L187.211 104.272C186.65 105.204 186.782 106.398 187.534 107.185L193.172 113.088L202.575 112.706C203.657 112.663 204.63 112.039 205.122 111.071L206.209 108.943C206.889 107.61 206.517 105.939 205.272 105.114C202.224 103.089 196.276 101.863 196.276 101.863Z" fill="#FFC3BD"/>
<path d="M260.03 77.3854C258.145 89.2767 255.71 115.062 260.685 153.892L313.037 153.395C312.724 126.49 316.926 101.224 321.028 76.5453C321.709 72.4442 318.909 68.6425 314.808 68.0489C302.232 66.2309 281.929 66.2998 269.611 68.0118C264.711 68.6942 260.808 72.48 260.03 77.3854Z" fill="#263238"/>
<path d="M321.507 73.1895C323.042 77.015 324.279 80.6908 325.544 84.4805C326.797 88.2464 327.899 92.0693 328.939 95.9306C329.939 99.8038 330.896 103.711 331.626 107.726C332.36 111.743 333.007 115.821 333.232 120.149C333.302 121.222 333.321 122.334 333.335 123.446L333.315 125.145C333.282 126.343 333.109 128.162 332.002 130.107C331.479 131.049 330.658 132.015 329.805 132.68C329.359 133.049 328.93 133.323 328.495 133.562C328.036 133.825 327.631 133.999 327.233 134.146C325.617 134.738 324.369 134.817 323.355 134.823C321.367 134.785 320.003 134.44 318.731 134.097C316.254 133.375 314.268 132.492 312.334 131.566C310.421 130.62 308.624 129.62 306.866 128.594C299.884 124.438 293.6 119.81 287.503 114.683C285.797 113.249 285.574 110.7 287.002 108.988C288.207 107.545 290.202 107.159 291.82 107.933L291.913 107.978C298.741 111.243 305.679 114.586 312.445 117.4C314.132 118.098 315.817 118.753 317.456 119.298C319.072 119.859 320.7 120.343 321.967 120.536C322.567 120.634 323.115 120.622 323.054 120.564C323.001 120.548 322.721 120.496 322.004 120.743C321.834 120.808 321.651 120.889 321.394 121.02C321.174 121.143 320.949 121.291 320.679 121.494C320.206 121.866 319.703 122.451 319.402 122.968C318.771 124.066 318.74 124.901 318.721 125.138L318.645 123.939C318.573 123.123 318.503 122.302 318.383 121.453C317.479 114.658 315.57 107.422 313.454 100.309C311.332 93.2009 308.905 85.9342 306.432 79.0305L306.407 78.9616C304.898 74.7465 307.077 70.1021 311.278 68.5862C315.376 67.1087 319.888 69.1732 321.507 73.1895Z" fill="#263238"/>
<path d="M300.576 41.4038L294.242 46.675L285.619 53.8623C285.871 55.0323 286.068 56.2169 286.167 57.3578C286.579 61.5358 285.668 65.3786 280.607 67.3251C278.696 68.0605 277.033 69.4625 276.429 71.4249C275.747 73.6458 276.553 76.1131 283.501 76.1117C293.702 76.1091 299.031 71.5574 301.037 69.3154C301.602 68.6833 301.61 67.7531 301.123 67.0601C297.083 61.3066 298.928 48.5871 300.576 41.4038Z" fill="#FFC3BD"/>
<path d="M283.252 73.8594C283.252 73.8594 283.931 74.5961 284.135 75.6615C284.666 74.7604 286.048 73.8594 286.048 73.8594C286.048 73.8594 289.077 75.211 289.707 78.1593C287.766 78.036 284.216 76.1107 284.216 76.1107C284.216 76.1107 282.379 77.176 280.542 77.2582C280.626 74.9645 283.252 73.8594 283.252 73.8594Z" fill="#407BFF"/>
<path d="M286.048 73.8589C288.984 77.1783 289.543 81.5855 289.543 81.5855C289.543 81.5855 306.446 77.3465 305.653 66.29C304.231 65.389 300.967 64.8457 300.967 64.8457C300.967 64.8457 297.332 71.4685 286.048 73.8589Z" fill="#407BFF"/>
<path d="M283.252 73.8592C280.315 77.1785 279.531 81.5857 279.531 81.5857C279.531 81.5857 270.861 73.667 279.306 66.3817C280.792 65.7682 283.775 65.4409 283.775 65.4409C283.775 65.4409 278.164 70.0085 283.252 73.8592Z" fill="#407BFF"/>
<path opacity="0.2" d="M285.621 53.8625C285.873 55.0326 286.07 56.2172 286.169 57.3581C289.386 56.7088 293.682 53.2702 294.131 49.9734C294.3 48.7331 294.328 47.5353 294.243 46.6753L285.621 53.8625Z" fill="black"/>
<path d="M276.366 18.5776C268.415 24.2357 272.864 37.5091 279.646 32.4301C286.429 27.351 282.846 13.9663 276.366 18.5776Z" fill="#263238"/>
<path d="M303.188 30.398C300.987 40.5587 300.213 46.5984 294.233 51.2349C285.239 58.2088 273.319 52.0127 272.444 41.5048C271.658 32.0464 275.39 17.0199 286.042 14.1432C296.534 11.3088 305.389 20.2372 303.188 30.398Z" fill="#FFC3BD"/>
<path d="M298.501 22.8673C292.888 21.3103 278.417 25.0073 273.279 19.5082C267.769 13.6103 275.809 10.7428 278.177 12.7914C275.177 9.35144 276.298 5.66504 280.544 5.99234C283.64 6.23085 284.628 9.67872 284.628 9.67872C284.628 9.67872 284.11 3.65357 289.438 4.06832C294.276 4.44465 294.291 10.9906 294.291 10.9906C294.291 10.9906 305.837 7.71363 309.685 18.7728C316.95 18.6085 316.786 33.9543 302.176 39.4149C296.243 36.4653 295.97 25.9971 298.501 22.8673Z" fill="#263238"/>
<path d="M308.13 20.9841C307.433 20.9841 306.814 20.4832 306.686 19.7703C306.542 18.97 307.07 18.2054 307.865 18.0583C307.997 18.0186 308.389 17.6953 308.715 16.9824C309.06 16.2337 309.282 15.1153 308.875 14.2222C308.538 13.4802 308.864 12.6069 309.602 12.2677C310.339 11.9258 311.212 12.2571 311.55 12.9978C312.431 14.9377 311.963 17.1268 311.232 18.5301C310.531 19.875 309.496 20.7615 308.393 20.9589C308.305 20.9761 308.217 20.9841 308.13 20.9841Z" fill="#263238"/>
<path d="M304.836 39.8177C303.351 41.7749 301.179 42.937 299.276 43.2736C296.413 43.7797 295.543 41.1375 296.809 38.5708C297.949 36.2612 300.81 33.2148 303.456 33.8747C306.064 34.524 306.534 37.5797 304.836 39.8177Z" fill="#FFC3BD"/>
<path d="M285.849 31.3267C285.721 32.1601 285.176 32.7829 284.631 32.718C284.085 32.6531 283.747 31.9243 283.875 31.0908C284.003 30.2573 284.549 29.6345 285.094 29.6995C285.639 29.7657 285.977 30.4932 285.849 31.3267Z" fill="#263238"/>
<path d="M276.424 30.2027C276.296 31.0361 275.751 31.6589 275.206 31.594C274.66 31.5291 274.322 30.8003 274.45 29.9668C274.579 29.1333 275.124 28.5105 275.669 28.5754C276.214 28.6404 276.552 29.3692 276.424 30.2027Z" fill="#263238"/>
<path d="M279.296 30.5366C279.296 30.5366 277.318 34.5794 275.36 36.4783C276.522 37.7239 278.717 37.2959 278.717 37.2959L279.296 30.5366Z" fill="#ED847E"/>
<path d="M282.574 41.5788C285.882 41.5788 287.731 39.509 287.815 39.4123C287.905 39.3103 287.895 39.1539 287.793 39.0638C287.691 38.9724 287.536 38.9843 287.446 39.0863C287.425 39.1102 285.321 41.4688 281.656 41.0276C281.52 41.0104 281.398 41.1084 281.383 41.2449C281.367 41.3801 281.463 41.5033 281.599 41.5192C281.934 41.5603 282.261 41.5788 282.574 41.5788Z" fill="#263238"/>
<path d="M289.638 26.5222C289.718 26.5049 289.793 26.4665 289.858 26.4095C290.061 26.228 290.079 25.9153 289.899 25.7112C288.107 23.6905 285.848 24.0575 285.754 24.0747C285.496 24.0933 285.305 24.3768 285.352 24.6472C285.399 24.9162 285.654 25.0964 285.922 25.05C286.015 25.0354 287.754 24.7823 289.162 26.3698C289.285 26.5076 289.469 26.5593 289.638 26.5222Z" fill="#263238"/>
<path d="M273.058 25.9788C273.21 26.0225 273.379 25.992 273.51 25.8834C275.234 24.4443 277.008 24.92 277.025 24.9253C277.287 24.9995 277.559 24.8458 277.632 24.5821C277.706 24.3198 277.554 24.0481 277.293 23.9726L277.29 23.9713C277.198 23.9448 274.997 23.3538 272.879 25.1214C272.669 25.2964 272.641 25.6078 272.814 25.8184C272.881 25.8993 272.967 25.9523 273.058 25.9788Z" fill="#263238"/>
<path d="M290.246 101.07L284.468 97.4656C282.734 96.3844 280.453 96.933 279.398 98.6887L278.718 99.8203C277.895 101.188 278.047 102.932 279.091 104.135L283.079 108.729C283.079 108.729 286.549 116.849 290.572 114.705L293.641 109.369L290.246 101.07Z" fill="#FFC3BD"/>
<path d="M296.198 111.452C296.198 111.452 294.744 107.865 293.178 106.05C290.276 108.545 287.925 116.499 287.925 116.499L291.475 117.267C291.475 117.267 295.759 116.191 296.198 111.452Z" fill="#407BFF"/>
<path d="M340.451 170.731H271.901C267.406 170.731 264.497 175.194 265.402 180.7L273.958 232.745C274.863 238.251 279.239 242.713 283.734 242.713H331.963L340.451 170.731Z" fill="#407BFF"/>
<path opacity="0.5" d="M340.451 170.731H271.901C267.406 170.731 264.497 175.194 265.402 180.7L273.958 232.745C274.863 238.251 279.239 242.713 283.734 242.713H331.963L340.451 170.731Z" fill="white"/>
<path d="M131.532 51.1938H123.365V52.1938H131.532V51.1938Z" fill="#407BFF"/>
<path d="M93.3218 62.9788H92.3218V58.0588C92.3218 54.2738 95.4018 51.1948 99.1868 51.1948H117.417V52.1948H99.1868C95.9528 52.1948 93.3218 54.8258 93.3218 58.0588V62.9788Z" fill="#407BFF"/>
<path d="M190.361 97.1779H99.1878C97.3298 97.1779 95.8228 95.6709 95.8228 93.8129V58.0589C95.8228 56.2009 97.3298 54.6938 99.1878 54.6938H190.361C192.219 54.6938 193.726 56.2009 193.726 58.0589V93.8129C193.726 95.6709 192.219 97.1779 190.361 97.1779Z" fill="#407BFF"/>
<path d="M186.049 78.1968H103.499C102.25 78.1968 101.238 77.1848 101.238 75.9358C101.238 74.6868 102.25 73.6748 103.499 73.6748H186.049C187.298 73.6748 188.31 74.6868 188.31 75.9358C188.31 77.1848 187.298 78.1968 186.049 78.1968Z" fill="white"/>
<path d="M168.383 87.586H103.499C102.25 87.586 101.238 86.574 101.238 85.325C101.238 84.076 102.25 83.064 103.499 83.064H168.383C169.632 83.064 170.644 84.076 170.644 85.325C170.643 86.574 169.631 87.586 168.383 87.586Z" fill="white"/>
<path d="M131.337 68.8067H103.498C102.249 68.8067 101.237 67.7947 101.237 66.5457C101.237 65.2967 102.249 64.2847 103.498 64.2847H131.337C132.586 64.2847 133.598 65.2967 133.598 66.5457C133.598 67.7947 132.586 68.8067 131.337 68.8067Z" fill="white"/>
<path d="M168.239 68.8067H140.4C139.151 68.8067 138.139 67.7947 138.139 66.5457C138.139 65.2967 139.151 64.2847 140.4 64.2847H168.239C169.488 64.2847 170.5 65.2967 170.5 66.5457C170.5 67.7947 169.488 68.8067 168.239 68.8067Z" fill="white"/>
<path d="M101.238 94.4646V105.297C101.238 107.382 103.633 108.557 105.282 107.281L121.882 94.4326L101.238 94.4646Z" fill="#407BFF"/>
<path d="M241.813 1.05078H150.64C148.781 1.05078 147.275 2.55778 147.275 4.41578V40.1698C147.275 42.0278 148.782 43.5348 150.64 43.5348H222.665L235.719 53.6378C237.367 54.9138 239.763 53.7388 239.763 51.6538V43.5338H241.814C243.672 43.5338 245.179 42.0268 245.179 40.1688V4.41578C245.178 2.55778 243.671 1.05078 241.813 1.05078Z" fill="white"/>
<path d="M237.25 54.6658C236.599 54.6658 235.953 54.4518 235.413 54.0328L222.493 44.0348H150.64C148.509 44.0348 146.775 42.3008 146.775 40.1698V4.41578C146.775 2.28478 148.509 0.550781 150.64 0.550781H241.813C243.944 0.550781 245.678 2.28478 245.678 4.41578V40.1698C245.678 42.3008 243.944 44.0348 241.813 44.0348H240.263V51.6538C240.263 52.8108 239.617 53.8448 238.579 54.3548C238.154 54.5638 237.701 54.6658 237.25 54.6658ZM150.64 1.55078C149.06 1.55078 147.775 2.83578 147.775 4.41578V40.1698C147.775 41.7498 149.06 43.0348 150.64 43.0348H222.835L236.024 53.2418C236.643 53.7218 237.433 53.8048 238.138 53.4578C238.842 53.1118 239.262 52.4378 239.262 51.6538V43.0348H241.812C243.392 43.0348 244.677 41.7498 244.677 40.1698V4.41578C244.677 2.83578 243.392 1.55078 241.812 1.55078H150.64Z" fill="#407BFF"/>
<path d="M194.278 24.5537H237.502C238.751 24.5537 239.763 23.5417 239.763 22.2927C239.763 21.0437 238.751 20.0317 237.502 20.0317H194.278C193.029 20.0317 192.017 21.0437 192.017 22.2927C192.017 23.5417 193.029 24.5537 194.278 24.5537Z" fill="#407BFF"/>
<path d="M164.101 24.5537H185.501C186.75 24.5537 187.762 23.5417 187.762 22.2927C187.762 21.0437 186.75 20.0317 185.501 20.0317H164.101C162.852 20.0317 161.84 21.0437 161.84 22.2927C161.84 23.5417 162.853 24.5537 164.101 24.5537Z" fill="#407BFF"/>
<path d="M172.618 33.9439H237.502C238.751 33.9439 239.763 32.9319 239.763 31.6829C239.763 30.4339 238.751 29.4219 237.502 29.4219H172.618C171.369 29.4219 170.357 30.4339 170.357 31.6829C170.357 32.9309 171.369 33.9439 172.618 33.9439Z" fill="#407BFF"/>
<path d="M154.951 15.1636H237.501C238.75 15.1636 239.762 14.1516 239.762 12.9026C239.762 11.6536 238.75 10.6416 237.501 10.6416H154.951C153.702 10.6416 152.69 11.6536 152.69 12.9026C152.69 14.1516 153.703 15.1636 154.951 15.1636Z" fill="#407BFF"/>
</svg>
