<svg width="202" height="304" viewBox="0 0 202 304" fill="none" xmlns="http://www.w3.org/2000/svg">
<path d="M157.07 300.545H155.655C155.103 300.545 154.63 300.059 154.534 299.392L145.839 238.666H152.441L158.199 298.989C158.28 299.817 157.751 300.545 157.07 300.545Z" fill="#407BFF"/>
<path opacity="0.3" d="M157.07 300.545H155.655C155.103 300.545 154.63 300.059 154.534 299.392L145.839 238.666H152.441L158.199 298.989C158.28 299.817 157.751 300.545 157.07 300.545Z" fill="black"/>
<path d="M175.185 300.545H173.769C173.218 300.545 172.745 300.059 172.648 299.392L163.954 238.666H170.556L176.314 298.989C176.394 299.817 175.866 300.545 175.185 300.545Z" fill="#407BFF"/>
<path opacity="0.3" d="M175.185 300.545H173.769C173.218 300.545 172.745 300.059 172.648 299.392L163.954 238.666H170.556L176.314 298.989C176.394 299.817 175.866 300.545 175.185 300.545Z" fill="black"/>
<path d="M74.2515 300.545H75.6669C76.2189 300.545 76.6916 300.059 76.788 299.392L85.4827 238.666H78.8807L73.1226 298.989C73.0433 299.817 73.5715 300.545 74.2515 300.545Z" fill="#407BFF"/>
<path opacity="0.3" d="M74.2515 300.545H75.6669C76.2189 300.545 76.6916 300.059 76.788 299.392L85.4827 238.666H78.8807L73.1226 298.989C73.0433 299.817 73.5715 300.545 74.2515 300.545Z" fill="black"/>
<path d="M56.1377 300.545H57.5531C58.1051 300.545 58.5778 300.059 58.6741 299.392L67.3689 238.666H60.767L55.0088 298.989C54.9296 299.818 55.4577 300.545 56.1377 300.545Z" fill="#407BFF"/>
<path opacity="0.3" d="M56.1377 300.545H57.5531C58.1051 300.545 58.5778 300.059 58.6741 299.392L67.3689 238.666H60.767L55.0088 298.989C54.9296 299.818 55.4577 300.545 56.1377 300.545Z" fill="black"/>
<path d="M32.6627 166.683H77.1332C85.0225 139.186 113.413 117.492 142.487 117.492H142.49H156.93C187.363 117.492 207.002 141.256 200.798 170.571C199.658 175.952 197.721 181.144 195.138 186.039L188.125 228.698C187.22 234.204 182.842 238.667 178.348 238.667H44.4946C40.0001 238.667 35.623 234.204 34.7185 228.698L26.1624 176.653C25.258 171.147 28.1681 166.683 32.6627 166.683Z" fill="#407BFF"/>
<path opacity="0.5" d="M32.6627 166.683H77.1332C85.0225 139.186 113.413 117.492 142.487 117.492H142.49H156.93C187.363 117.492 207.002 141.256 200.798 170.571C199.658 175.952 197.721 181.144 195.138 186.039L188.125 228.698C187.22 234.204 182.842 238.667 178.348 238.667H44.4946C40.0001 238.667 35.623 234.204 34.7185 228.698L26.1624 176.653C25.258 171.147 28.1681 166.683 32.6627 166.683Z" fill="white"/>
<path d="M21.5291 284.834L32.5437 289.907C32.9438 290.091 33.1194 290.51 32.9636 290.914L29.4976 299.906C29.1385 300.839 27.8973 301.307 26.9809 300.865C23.1769 299.033 21.4485 297.963 16.604 295.732C13.6239 294.359 5.46531 289.772 1.78936 287.118C-1.80604 284.522 0.833399 280.892 2.6278 281.687C10.6742 285.249 15.796 285.569 19.5617 284.662C20.243 284.498 20.9428 284.564 21.5291 284.834Z" fill="#263238"/>
<path d="M99.6271 149.346C99.6271 149.346 29.2124 150.224 28.1244 178.079C26.5611 218.118 20.6696 284.596 20.6696 284.596L32.5438 289.905C32.5438 289.905 53.3477 223.194 54.0911 191.926C73.8467 186.987 124.82 191.967 130.809 175.671C135.709 162.339 133.059 149.346 133.059 149.346H99.6271Z" fill="#407BFF"/>
<path opacity="0.2" d="M99.6271 149.346C99.6271 149.346 29.2124 150.224 28.1244 178.079C26.5611 218.118 20.6696 284.596 20.6696 284.596L32.5438 289.905C32.5438 289.905 53.3477 223.194 54.0911 191.926C73.8467 186.987 124.82 191.967 130.809 175.671C135.709 162.339 133.059 149.346 133.059 149.346H99.6271Z" fill="black"/>
<path d="M114.613 76.0606C114.001 78.6313 113.383 80.9515 112.674 83.3565C111.98 85.739 111.254 88.1096 110.492 90.4735C108.946 95.1935 107.244 99.8816 105.278 104.521C103.328 109.168 101.148 113.775 98.4913 118.319C97.1498 120.589 95.7185 122.863 94.0192 125.082C92.3212 127.302 90.3987 129.513 87.8847 131.584L87.6892 131.745C87.5519 131.857 87.4054 131.966 87.2601 132.063C85.5819 133.172 84.0186 133.512 82.8302 133.658C81.6208 133.793 80.6384 133.738 79.8237 133.637C78.1534 133.431 76.9281 133.052 75.7794 132.654C73.5176 131.845 71.6624 130.918 69.8707 129.957C66.3149 128.037 63.1605 125.886 60.0629 123.704C56.993 121.488 54.038 119.196 51.1674 116.814C48.3141 114.39 45.5189 111.997 42.7962 109.363C41.1933 107.811 41.1471 105.25 42.6919 103.641C43.9872 102.293 45.9889 102.042 47.547 102.908L47.6117 102.945C50.7278 104.678 53.8716 106.516 57.0247 108.226C60.1645 109.969 63.2952 111.693 66.4298 113.306C69.5406 114.94 72.6989 116.456 75.7081 117.703C77.2001 118.315 78.6974 118.842 79.9148 119.117C80.5064 119.25 81.0557 119.319 81.1996 119.289C81.2894 119.287 81.2246 119.236 80.917 119.257C80.6265 119.286 79.965 119.371 79.0434 119.963L78.4188 120.442C79.5425 119.376 80.7348 117.891 81.8373 116.216C82.9399 114.536 84.0186 112.708 85.0194 110.786C87.0119 106.922 88.7931 102.756 90.4383 98.4956C92.065 94.2235 93.5861 89.8521 94.9949 85.4289C96.4289 81.0495 97.7334 76.4528 98.9244 72.1635L98.9693 72.0019C100.167 67.6874 104.623 65.1644 108.921 66.3663C113.12 67.5377 115.611 71.8442 114.613 76.0606Z" fill="#263238"/>
<path d="M86.071 290.585H99.2814C99.7621 290.585 100.125 290.92 100.153 291.39L100.793 301.88C100.859 302.968 99.8426 303.997 98.7348 303.979C94.1359 303.899 91.9388 303.628 86.1291 303.628C82.5548 303.628 75.3455 304 70.4112 304C65.5839 304 65.6169 299.102 67.7084 298.658C77.0871 296.669 80.7261 293.927 84.0455 291.31C84.6437 290.839 85.3672 290.585 86.071 290.585Z" fill="#263238"/>
<path d="M118.605 149.346C118.605 149.346 54.7353 154.759 56.3066 182.592C58.0271 213.07 86.0694 290.585 86.0694 290.585H98.9854C98.9854 290.585 87.9298 219.599 84.0439 188.566C102.046 188.566 143.798 191.967 149.787 175.671C154.687 162.339 152.037 149.346 152.037 149.346H118.605Z" fill="#407BFF"/>
<path d="M48.531 104.255C48.531 104.255 46.6944 101.266 44.9396 99.832C42.3279 102.29 40.8583 109.457 40.8583 109.457L44.4695 109.785C44.4695 109.785 48.6129 108.433 48.531 104.255Z" fill="#407BFF"/>
<path d="M35.2758 97.8154L31.1681 96.0251C30.0655 95.5441 28.7782 95.9562 28.1563 96.9898L26.2113 100.224C25.6501 101.156 25.7822 102.35 26.5335 103.137L32.1715 109.04L41.5753 108.658C42.6567 108.615 43.6298 107.991 44.1223 107.023L45.209 104.895C45.889 103.562 45.5166 101.891 44.2715 101.066C41.2241 99.0411 35.2758 97.8154 35.2758 97.8154Z" fill="#FFC3BD"/>
<path d="M99.0304 73.3376C97.1449 85.2289 94.7101 111.014 99.6853 149.844L152.037 149.347C151.724 122.443 155.926 97.1758 160.028 72.4975C160.709 68.3963 157.909 64.5947 153.808 64.001C141.232 62.183 120.929 62.2519 108.611 63.9639C103.711 64.6463 99.8081 68.4321 99.0304 73.3376Z" fill="#263238"/>
<path d="M160.506 69.1417C162.042 72.9672 163.279 76.643 164.544 80.4327C165.797 84.1986 166.898 88.0215 167.939 91.8828C168.938 95.756 169.896 99.6636 170.626 103.679C171.36 107.695 172.007 111.774 172.231 116.101C172.301 117.175 172.321 118.286 172.334 119.398L172.315 121.097C172.282 122.295 172.109 124.114 171.002 126.059C170.479 127.001 169.658 127.967 168.805 128.633C168.359 129.001 167.93 129.275 167.495 129.514C167.036 129.778 166.63 129.951 166.233 130.098C164.617 130.69 163.369 130.769 162.355 130.775C160.366 130.737 159.002 130.392 157.731 130.049C155.254 129.327 153.268 128.444 151.334 127.518C149.42 126.572 147.623 125.572 145.866 124.546C138.884 120.391 132.6 115.762 126.503 110.635C124.797 109.202 124.574 106.652 126.002 104.94C127.206 103.497 129.201 103.112 130.82 103.885L130.913 103.93C137.74 107.195 144.679 110.539 151.445 113.352C153.132 114.05 154.817 114.705 156.455 115.251C158.072 115.811 159.7 116.295 160.967 116.488C161.567 116.586 162.115 116.574 162.054 116.516C162.001 116.5 161.721 116.448 161.004 116.695C160.834 116.76 160.65 116.841 160.394 116.972C160.174 117.095 159.949 117.244 159.678 117.446C159.206 117.819 158.703 118.403 158.402 118.92C157.771 120.018 157.74 120.853 157.72 121.09L157.645 119.891C157.573 119.075 157.503 118.255 157.382 117.405C156.479 110.61 154.57 103.374 152.453 96.2608C150.332 89.1531 147.905 81.8863 145.432 74.9826L145.406 74.9137C143.897 70.6986 146.077 66.0542 150.277 64.5383C154.376 63.0609 158.888 65.1253 160.506 69.1417Z" fill="#263238"/>
<path d="M139.576 37.356L133.243 42.6272L124.619 49.8144C124.871 50.9845 125.068 52.1691 125.167 53.31C125.579 57.488 124.668 61.3307 119.607 63.2773C117.696 64.0127 116.033 65.4146 115.429 67.3771C114.747 69.5979 115.553 72.0652 122.501 72.0639C132.703 72.0612 138.032 67.5096 140.037 65.2675C140.602 64.6355 140.61 63.7053 140.123 63.0122C136.083 57.2587 137.929 44.5392 139.576 37.356Z" fill="#FFC3BD"/>
<path d="M122.252 69.8114C122.252 69.8114 122.93 70.5481 123.135 71.6135C123.666 70.7125 125.048 69.8114 125.048 69.8114C125.048 69.8114 128.077 71.163 128.707 74.1113C126.766 73.9881 123.216 72.0627 123.216 72.0627C123.216 72.0627 121.379 73.1281 119.542 73.2102C119.626 70.9165 122.252 69.8114 122.252 69.8114Z" fill="#407BFF"/>
<path d="M125.048 69.8112C127.985 73.1305 128.543 77.5378 128.543 77.5378C128.543 77.5378 145.447 73.2988 144.653 62.2423C143.231 61.3413 139.967 60.798 139.967 60.798C139.967 60.798 136.332 67.4207 125.048 69.8112Z" fill="#407BFF"/>
<path d="M122.252 69.8115C119.315 73.1308 118.531 77.538 118.531 77.538C118.531 77.538 109.861 69.6193 118.306 62.334C119.792 61.7205 122.774 61.3932 122.774 61.3932C122.774 61.3932 117.164 65.9608 122.252 69.8115Z" fill="#407BFF"/>
<path opacity="0.2" d="M124.621 49.8144C124.873 50.9845 125.07 52.1691 125.169 53.31C128.385 52.6607 132.682 49.2221 133.131 45.9253C133.3 44.6851 133.328 43.4872 133.243 42.6272L124.621 49.8144Z" fill="black"/>
<path d="M115.366 14.5299C107.415 20.188 111.864 33.4614 118.646 28.3823C125.429 23.3033 121.846 9.9186 115.366 14.5299Z" fill="#263238"/>
<path d="M142.189 26.35C139.987 36.5107 139.214 42.5505 133.234 47.1869C124.239 54.1608 112.319 47.9648 111.445 37.4568C110.658 27.9984 114.391 12.9719 125.042 10.0952C135.534 7.26083 144.39 16.1892 142.189 26.35Z" fill="#FFC3BD"/>
<path d="M137.501 18.8194C131.888 17.2625 117.417 20.9595 112.279 15.4604C106.769 9.56241 114.809 6.69493 117.177 8.74351C114.177 5.30359 115.298 1.61719 119.544 1.94449C122.64 2.183 123.628 5.63087 123.628 5.63087C123.628 5.63087 123.11 -0.394281 128.438 0.0204705C133.276 0.396794 133.291 6.94271 133.291 6.94271C133.291 6.94271 144.837 3.66578 148.685 14.7249C155.95 14.5606 155.786 29.9064 141.176 35.3671C135.243 32.4174 134.97 21.9493 137.501 18.8194Z" fill="#263238"/>
<path d="M147.13 16.9364C146.433 16.9364 145.814 16.4355 145.686 15.7226C145.542 14.9223 146.07 14.1577 146.865 14.0106C146.997 13.9708 147.389 13.6475 147.715 12.9346C148.06 12.186 148.282 11.0676 147.875 10.1745C147.538 9.43242 147.865 8.5592 148.603 8.21998C149.339 7.87811 150.212 8.20937 150.55 8.9501C151.431 10.89 150.964 13.0791 150.232 14.4823C149.531 15.8273 148.496 16.7138 147.393 16.9112C147.305 16.9284 147.218 16.9364 147.13 16.9364Z" fill="#263238"/>
<path d="M143.836 35.7699C142.351 37.727 140.179 38.8891 138.276 39.2257C135.413 39.7319 134.543 37.0897 135.809 34.523C136.949 32.2134 139.81 29.167 142.456 29.8269C145.064 30.4762 145.534 33.5318 143.836 35.7699Z" fill="#FFC3BD"/>
<path d="M124.849 27.2788C124.721 28.1123 124.176 28.7351 123.63 28.6702C123.085 28.6052 122.747 27.8764 122.875 27.043C123.003 26.2095 123.549 25.5867 124.094 25.6516C124.639 25.7179 124.977 26.4453 124.849 27.2788Z" fill="#263238"/>
<path d="M115.424 26.1547C115.296 26.9882 114.751 27.6109 114.205 27.546C113.66 27.4811 113.322 26.7523 113.45 25.9188C113.578 25.0853 114.124 24.4625 114.669 24.5275C115.214 24.5924 115.552 25.3212 115.424 26.1547Z" fill="#263238"/>
<path d="M118.296 26.4888C118.296 26.4888 116.318 30.5316 114.36 32.4304C115.522 33.676 117.717 33.248 117.717 33.248L118.296 26.4888Z" fill="#ED847E"/>
<path d="M121.573 37.5311C124.882 37.5311 126.731 35.4613 126.815 35.3646C126.905 35.2626 126.895 35.1062 126.793 35.0161C126.691 34.9247 126.535 34.9366 126.446 35.0386C126.425 35.0625 124.321 37.4211 120.656 36.9799C120.52 36.9626 120.398 37.0607 120.382 37.1972C120.367 37.3323 120.463 37.4556 120.599 37.4715C120.934 37.5125 121.261 37.5311 121.573 37.5311Z" fill="#263238"/>
<path d="M128.638 22.4743C128.718 22.4571 128.793 22.4187 128.858 22.3617C129.061 22.1801 129.079 21.8674 128.899 21.6634C127.107 19.6426 124.848 20.0097 124.754 20.0269C124.496 20.0454 124.305 20.329 124.352 20.5993C124.399 20.8683 124.654 21.0485 124.922 21.0021C125.015 20.9876 126.754 20.7345 128.162 22.3219C128.285 22.4597 128.469 22.5114 128.638 22.4743Z" fill="#263238"/>
<path d="M112.058 21.9309C112.21 21.9747 112.379 21.9442 112.51 21.8355C114.234 20.3965 116.007 20.8722 116.024 20.8775C116.287 20.9517 116.559 20.798 116.632 20.5343C116.706 20.2719 116.554 20.0003 116.292 19.9247L116.29 19.9234C116.197 19.8969 113.996 19.3059 111.878 21.0736C111.669 21.2485 111.641 21.5599 111.814 21.7706C111.881 21.8514 111.967 21.9044 112.058 21.9309Z" fill="#263238"/>
<path d="M129.246 97.0223L123.468 93.418C121.734 92.3368 119.453 92.8854 118.398 94.6411L117.718 95.7727C116.895 97.1402 117.047 98.884 118.091 100.087L122.079 104.681C122.079 104.681 125.549 112.801 129.572 110.657L132.641 105.321L129.246 97.0223Z" fill="#FFC3BD"/>
<path d="M135.198 107.404C135.198 107.404 133.744 103.817 132.178 102.002C129.276 104.497 126.926 112.451 126.926 112.451L130.475 113.219C130.475 113.219 134.759 112.143 135.198 107.404Z" fill="#407BFF"/>
<path d="M179.451 166.683H110.901C106.406 166.683 103.497 171.146 104.402 176.652L112.958 228.697C113.864 234.203 118.239 238.666 122.734 238.666H170.964L179.451 166.683Z" fill="#407BFF"/>
<path opacity="0.5" d="M179.451 166.683H110.901C106.406 166.683 103.497 171.146 104.402 176.652L112.958 228.697C113.864 234.203 118.239 238.666 122.734 238.666H170.964L179.451 166.683Z" fill="white"/>
</svg>
