<svg width="500" height="466" viewBox="0 0 500 466" fill="none" xmlns="http://www.w3.org/2000/svg">
<path d="M500 382.398H0V382.648H500V382.398Z" fill="#EBEBEB"/>
<path d="M449.901 398.494H416.779V398.744H449.901V398.494Z" fill="#EBEBEB"/>
<path d="M404.187 398.494H333.381V398.744H404.187V398.494Z" fill="#EBEBEB"/>
<path d="M294.333 389.208H275.141V389.458H294.333V389.208Z" fill="#EBEBEB"/>
<path d="M86.749 390.888H52.459V391.138H86.749V390.888Z" fill="#EBEBEB"/>
<path d="M158 390.888H95.6521V391.138H158V390.888Z" fill="#EBEBEB"/>
<path d="M225.147 395.111H188.333V395.361H225.147V395.111Z" fill="#EBEBEB"/>
<path d="M237.014 337.8H43.915C40.768 337.8 38.207 335.239 38.207 332.092V60.6601C38.207 57.5131 40.768 54.9521 43.915 54.9521H237.014C240.16 54.9521 242.721 57.5131 242.721 60.6601V332.092C242.721 335.239 240.16 337.8 237.014 337.8ZM43.915 55.2031C40.905 55.2031 38.457 57.6511 38.457 60.6611V332.093C38.457 335.103 40.905 337.551 43.915 337.551H237.014C240.023 337.551 242.471 335.103 242.471 332.093V60.6601C242.471 57.6511 240.023 55.2021 237.014 55.2021L43.915 55.2031Z" fill="#EBEBEB"/>
<path d="M453.31 337.8H260.212C257.065 337.8 254.505 335.239 254.505 332.092V60.6601C254.505 57.5131 257.066 54.9521 260.212 54.9521H453.31C456.458 54.9521 459.018 57.5131 459.018 60.6601V332.092C459.019 335.239 456.458 337.8 453.31 337.8ZM260.212 55.2031C257.203 55.2031 254.755 57.6511 254.755 60.6611V332.093C254.755 335.103 257.203 337.551 260.212 337.551H453.31C456.32 337.551 458.768 335.103 458.768 332.093V60.6601C458.768 57.6511 456.32 55.2021 453.31 55.2021L260.212 55.2031Z" fill="#EBEBEB"/>
<path d="M158.745 89.875H62.052V356.572H158.745V89.875Z" fill="#F5F5F5"/>
<path d="M158.747 356.571H159.726L159.726 89.8743H158.747L158.747 356.571Z" fill="#EBEBEB"/>
<path d="M149.416 100.048H71.3831V346.398H149.416V100.048Z" fill="white"/>
<path d="M200.182 247.738L428.275 247.738V78.2668L200.182 78.2668L200.182 247.738Z" fill="#E6E6E6"/>
<path d="M196.651 247.738L424.744 247.738V78.2668L196.651 78.2668L196.651 247.738Z" fill="#F5F5F5"/>
<path d="M418.408 240.62L418.408 85.3853L202.988 85.3853L202.988 240.62L418.408 240.62Z" fill="white"/>
<path d="M205.657 240.621L205.657 85.3857H202.988L202.988 240.621H205.657Z" fill="#E6E6E6"/>
<path d="M199.272 207.458L422.123 207.458V197.902L199.272 197.902V207.458Z" fill="#F5F5F5"/>
<g opacity="0.4">
<path d="M211.113 70.7788H189.578V125.244H211.113V70.7788Z" fill="#E6E6E6"/>
<path d="M211.113 120.867H221.788V70.7777H211.113V120.867Z" fill="#F5F5F5"/>
<path d="M243.323 70.7788H221.788V125.244H243.323V70.7788Z" fill="#E6E6E6"/>
<path d="M243.323 120.867H253.998V70.7777H243.323V120.867Z" fill="#F5F5F5"/>
<path d="M275.533 70.7788H253.998V125.244H275.533V70.7788Z" fill="#E6E6E6"/>
<path d="M275.533 120.867H286.208V70.7777H275.533V120.867Z" fill="#F5F5F5"/>
<path d="M307.743 70.7788H286.208V125.244H307.743V70.7788Z" fill="#E6E6E6"/>
<path d="M307.743 120.867H318.418V70.7777H307.743V120.867Z" fill="#F5F5F5"/>
<path d="M339.953 70.7788H318.418V125.244H339.953V70.7788Z" fill="#E6E6E6"/>
<path d="M339.953 120.867H350.628V70.7777H339.953V120.867Z" fill="#F5F5F5"/>
<path d="M372.163 70.7788H350.628V125.244H372.163V70.7788Z" fill="#E6E6E6"/>
<path d="M372.163 120.867H382.838V70.7777H372.163V120.867Z" fill="#F5F5F5"/>
<path d="M404.373 70.7788H382.838V125.244H404.373V70.7788Z" fill="#E6E6E6"/>
<path d="M404.373 120.867H415.048V70.7777H404.373V120.867Z" fill="#F5F5F5"/>
<path d="M436.583 70.7788H415.048V125.244H436.583V70.7788Z" fill="#E6E6E6"/>
</g>
<path d="M203.719 382.398H230.407V283H203.719V382.398Z" fill="#E6E6E6"/>
<path d="M208.16 382.398H203.718V373.454H212.817L208.16 382.398Z" fill="#F0F0F0"/>
<path d="M395.754 382.398H422.442V283H395.754V382.398Z" fill="#E6E6E6"/>
<path d="M203.719 378.964H399.63V283H203.719V378.964Z" fill="#F0F0F0"/>
<path d="M207.164 313.571H396.184V287.254H207.164V313.571Z" fill="#E6E6E6"/>
<path d="M254.978 295.431H348.37C352.703 295.431 356.846 292.184 359.827 286.453H243.521C246.502 292.185 250.644 295.431 254.978 295.431Z" fill="#F0F0F0"/>
<path d="M395.188 382.398H399.63V373.454H390.531L395.188 382.398Z" fill="#F0F0F0"/>
<path d="M207.164 344.141H396.184V317.824H207.164V344.141Z" fill="#E6E6E6"/>
<path d="M254.978 326.002H348.37C352.703 326.002 356.846 322.755 359.827 317.023H243.521C246.502 322.755 250.644 326.002 254.978 326.002Z" fill="#F0F0F0"/>
<path d="M207.164 374.71H396.184V348.393H207.164V374.71Z" fill="#E6E6E6"/>
<path d="M254.978 356.572H348.37C352.703 356.572 356.846 353.325 359.827 347.594H243.521C246.502 353.325 250.644 356.572 254.978 356.572Z" fill="#F0F0F0"/>
<path d="M250 427.561C357.082 427.561 443.889 422.492 443.889 416.238C443.889 409.985 357.082 404.915 250 404.915C142.918 404.915 56.1111 409.985 56.1111 416.238C56.1111 422.492 142.918 427.561 250 427.561Z" fill="#F5F5F5"/>
<path d="M147.283 413.903H148.781C149.291 413.903 149.715 413.473 149.752 412.917L158.003 289.029H151.806L146.311 412.788C146.284 413.395 146.727 413.903 147.283 413.903Z" fill="#407BFF"/>
<path opacity="0.3" d="M147.283 413.903H148.781C149.291 413.903 149.715 413.473 149.752 412.917L158.003 289.029H151.806L146.311 412.788C146.284 413.395 146.727 413.903 147.283 413.903Z" fill="white"/>
<path d="M130.279 413.903H131.777C132.287 413.903 132.711 413.473 132.748 412.917L140.999 289.029H134.802L129.307 412.788C129.28 413.395 129.723 413.903 130.279 413.903Z" fill="#407BFF"/>
<path opacity="0.3" d="M130.279 413.903H131.777C132.287 413.903 132.711 413.473 132.748 412.917L140.999 289.029H134.802L129.307 412.788C129.28 413.395 129.723 413.903 130.279 413.903Z" fill="white"/>
<path d="M339.926 413.903H338.428C337.918 413.903 337.494 413.473 337.457 412.917L329.206 289.029H335.403L340.898 412.788C340.926 413.395 340.482 413.903 339.926 413.903Z" fill="#407BFF"/>
<path opacity="0.3" d="M339.926 413.903H338.428C337.918 413.903 337.494 413.473 337.457 412.917L329.206 289.029H335.403L340.898 412.788C340.926 413.395 340.482 413.903 339.926 413.903Z" fill="white"/>
<path d="M356.93 413.903H355.432C354.922 413.903 354.498 413.473 354.461 412.917L346.21 289.029H352.407L357.902 412.788C357.929 413.395 357.486 413.903 356.93 413.903Z" fill="#407BFF"/>
<path opacity="0.3" d="M356.93 413.903H355.432C354.922 413.903 354.498 413.473 354.461 412.917L346.21 289.029H352.407L357.902 412.788C357.929 413.395 357.486 413.903 356.93 413.903Z" fill="white"/>
<path d="M364.081 286.481H122.779V289.028H364.081V286.481Z" fill="#407BFF"/>
<path d="M118.758 247.019L116.48 263.788C115.761 269.372 115.01 274.97 114.472 280.467C114.396 281.158 114.346 281.833 114.29 282.512L114.207 283.53C114.214 283.455 114.208 283.186 114.172 283.03C114.156 282.868 114.105 282.693 114.056 282.554C114.023 282.432 113.953 282.294 113.906 282.204C113.871 282.124 113.806 282.033 113.767 281.978C113.59 281.751 113.571 281.781 113.618 281.83C113.657 281.886 113.799 281.996 113.958 282.115C114.294 282.358 114.767 282.632 115.283 282.89C117.405 283.928 120.028 284.812 122.626 285.615C127.873 287.207 133.378 288.584 138.816 289.925L138.201 294.702C132.381 294.496 126.668 293.955 120.859 292.907C117.944 292.353 115.059 291.747 111.947 290.554C111.161 290.244 110.354 289.893 109.477 289.396C109.034 289.14 108.583 288.853 108.081 288.449C107.586 288.041 107.049 287.574 106.485 286.747C106.206 286.33 105.936 285.828 105.729 285.217C105.627 284.909 105.549 284.557 105.492 284.223C105.446 283.891 105.428 283.444 105.433 283.192L105.458 282.082C105.475 281.342 105.487 280.598 105.523 279.872C105.76 274.029 106.285 268.328 106.908 262.627C107.517 256.926 108.244 251.277 109.138 245.599L118.758 247.019Z" fill="#7F3E3B"/>
<path d="M151.407 294.969L147.74 298.32C146.884 299.102 145.639 299.285 144.594 298.782L140.541 296.831C140.541 296.831 134.531 296.583 133.674 292.911L135.228 290.058L144.538 289.023C145.495 288.917 146.46 289.131 147.281 289.633L151.118 291.976C152.188 292.629 152.332 294.124 151.407 294.969Z" fill="#7F3E3B"/>
<path d="M129.45 212.564C130.401 218.316 131.208 228.827 127.094 232.524C127.094 232.524 137.136 237.782 143.721 246.959C150.764 241.379 144.866 233.053 144.866 233.053C138.535 231.341 138.84 226.614 140.083 222.204L129.45 212.564Z" fill="#7F3E3B"/>
<path d="M148.243 236.59C148.243 236.59 147.713 231.713 145.051 229.302C142.815 227.276 131.08 228.402 127.384 228.814C126.688 228.891 126.087 229.323 125.785 229.954L123.104 235.554L148.243 236.59Z" fill="#407BFF"/>
<path opacity="0.8" d="M148.243 236.59C148.243 236.59 147.713 231.713 145.051 229.302C142.815 227.276 131.08 228.402 127.384 228.814C126.688 228.891 126.087 229.323 125.785 229.954L123.104 235.554L148.243 236.59Z" fill="white"/>
<path d="M115.73 234.022C108.489 236.378 106.933 246.086 107.585 253.642L122.2 262.632C122.2 262.632 125.749 251.598 125.719 245.707C125.687 239.436 120.647 232.422 115.73 234.022Z" fill="#407BFF"/>
<path d="M118.56 260.43C118.21 260.43 117.86 260.29 117.6 260.04C117.54 259.97 117.48 259.899 117.44 259.83C117.39 259.76 117.34 259.68 117.31 259.59C117.281 259.51 117.25 259.43 117.23 259.34C117.21 259.25 117.201 259.17 117.201 259.08C117.201 258.72 117.35 258.37 117.6 258.12C118.11 257.609 119.02 257.609 119.52 258.12C119.77 258.37 119.92 258.72 119.92 259.08C119.92 259.17 119.91 259.25 119.89 259.34C119.87 259.43 119.85 259.51 119.81 259.59C119.781 259.68 119.741 259.76 119.69 259.83C119.64 259.899 119.581 259.97 119.52 260.04C119.27 260.29 118.92 260.43 118.56 260.43Z" fill="white"/>
<path d="M115.75 259.51C115.75 259.51 115.75 259.51 115.76 259.51C115.24 259.31 114.91 258.82 114.89 258.29C114.5 258.64 113.93 258.75 113.42 258.51C112.92 258.28 112.62 257.77 112.63 257.25C112.22 257.58 111.64 257.649 111.15 257.38C110.661 257.12 110.4 256.6 110.44 256.08C110.01 256.38 109.43 256.42 108.951 256.13C108.31 255.75 108.11 254.91 108.491 254.27C108.881 253.63 109.721 253.42 110.36 253.81C110.81 254.09 111.041 254.59 111.01 255.08C111.41 254.79 111.96 254.74 112.43 254.99C112.89 255.24 113.16 255.719 113.15 256.219C113.531 255.91 114.081 255.829 114.56 256.049C115.04 256.269 115.331 256.739 115.35 257.229C115.72 256.91 116.25 256.79 116.75 256.979C117.439 257.259 117.79 258.049 117.51 258.74C117.3 259.279 116.79 259.599 116.25 259.599C116.08 259.6 115.92 259.569 115.75 259.51Z" fill="white"/>
<path d="M107.59 255C107.5 255 107.41 254.99 107.319 254.97C107.229 254.95 107.149 254.93 107.069 254.89C106.979 254.86 106.899 254.82 106.83 254.77C106.76 254.72 106.689 254.661 106.63 254.6C106.56 254.54 106.51 254.47 106.46 254.4C106.41 254.32 106.37 254.241 106.33 254.161C106.3 254.081 106.269 253.991 106.25 253.911C106.24 253.82 106.229 253.73 106.229 253.64C106.229 253.55 106.24 253.46 106.25 253.38C106.27 253.29 106.3 253.21 106.33 253.12C106.359 253.04 106.41 252.96 106.46 252.89C106.51 252.82 106.56 252.75 106.63 252.68C106.69 252.62 106.76 252.56 106.83 252.51C106.899 252.47 106.979 252.42 107.069 252.39C107.149 252.36 107.229 252.33 107.319 252.31C107.76 252.23 108.229 252.371 108.54 252.68C108.609 252.75 108.66 252.82 108.71 252.89C108.76 252.96 108.8 253.04 108.84 253.12C108.87 253.21 108.9 253.29 108.91 253.38C108.93 253.46 108.939 253.55 108.939 253.64C108.939 253.73 108.929 253.82 108.91 253.911C108.899 253.991 108.87 254.081 108.84 254.161C108.8 254.241 108.76 254.32 108.71 254.4C108.66 254.47 108.609 254.541 108.54 254.6C108.29 254.85 107.939 255 107.59 255Z" fill="white"/>
<path d="M161.768 248.13C161.156 256.447 159.305 270.454 154.747 294.033L115.607 292.869C116.634 278.421 115.084 267.648 111.543 242.362C110.897 237.747 114.215 233.527 118.851 233.049C121.364 232.79 124.218 232.576 127.093 232.523C133.689 232.401 139.091 232.352 144.866 233.052C146.773 233.284 148.743 233.584 150.624 233.905C157.451 235.071 162.276 241.224 161.768 248.13Z" fill="#407BFF"/>
<path d="M149.7 201.976C149.792 202.748 150.277 203.325 150.781 203.264C151.285 203.203 151.62 202.529 151.527 201.756C151.434 200.984 150.95 200.407 150.446 200.468C149.942 200.529 149.608 201.204 149.7 201.976Z" fill="#263238"/>
<path d="M150.229 200.538L152.019 199.781C152.019 199.781 151.242 201.344 150.229 200.538Z" fill="#263238"/>
<path d="M149.967 203.173C149.967 203.173 151.676 206.34 153.31 207.771C152.405 208.845 150.619 208.617 150.619 208.617L149.967 203.173Z" fill="#630F0F"/>
<path d="M149.794 195.206C149.881 195.077 149.899 194.906 149.828 194.755C149.72 194.527 149.447 194.43 149.219 194.538C146.938 195.621 146.63 197.708 146.618 197.796C146.584 198.046 146.759 198.276 147.009 198.31C147.258 198.344 147.488 198.17 147.523 197.921C147.533 197.852 147.789 196.229 149.611 195.364C149.688 195.327 149.75 195.271 149.794 195.206Z" fill="#263238"/>
<path d="M123.065 201.8C124.784 211.213 125.31 215.234 130.683 219.527C138.765 225.985 149.95 221.815 151.079 212.078C152.095 203.314 149.113 189.393 139.379 186.731C129.788 184.11 121.346 192.387 123.065 201.8Z" fill="#7F3E3B"/>
<path d="M143.795 204.436C145.382 209.608 149.163 222.113 140.81 224.897C134.276 227.075 113.818 228.817 111.463 216.83C109.027 204.435 120.079 195.614 120.079 195.614C120.079 195.614 111.323 188.432 116.933 180.61C124.164 170.526 141.476 176.228 146.615 183.353C151.61 190.278 143.795 204.436 143.795 204.436Z" fill="#263238"/>
<path d="M127.961 226.617C124.611 226.617 120.456 225.933 117.034 224.461C112.388 222.46 109.676 219.368 109.192 215.52C107.55 202.449 119.713 195.266 119.837 195.196L120.321 196.034C120.204 196.102 108.592 202.974 110.153 215.399C110.707 219.807 114.409 222.277 117.417 223.572C123.355 226.129 131.026 226.115 132.888 224.75L133.46 225.531C132.491 226.24 130.448 226.617 127.961 226.617Z" fill="#263238"/>
<path d="M116.314 193.738C116.204 195.41 114.817 197.707 120.614 198.57C126.411 199.434 134.465 199.352 136.118 197.957C137.77 196.563 139.4 193.229 135.943 193.527C132.485 193.826 116.501 190.88 116.314 193.738Z" fill="#407BFF"/>
<path d="M140.632 205.911C141.623 207.794 143.391 209.044 145.07 209.536C147.595 210.275 148.89 208.025 148.215 205.625C147.608 203.465 145.563 200.477 143.016 200.791C140.507 201.1 139.499 203.758 140.632 205.911Z" fill="#7F3E3B"/>
<path d="M201.641 403.559L210.921 403.383L206.428 380.218L197.148 380.394L201.641 403.559Z" fill="#7F3E3B"/>
<path d="M208.6 393.473C211.055 402.718 220.077 412.505 220.077 412.505L207.2 409.233L201.572 401.236L202.557 399.119L208.6 393.473Z" fill="#7F3E3B"/>
<path d="M199.455 397.77C199.416 398.797 199.494 399.967 199.642 401.005C200.185 404.829 201.873 414.966 201.873 414.966L202.747 414.972C202.747 414.972 201.919 408.148 202.039 405.633C202.159 403.118 203.782 407.565 205.742 410.08C207.702 412.596 211.231 414.886 216.94 415.064C223.625 415.273 226.288 414.992 224.146 413.323C222.004 411.654 217.449 410.565 217.449 410.565C217.449 410.565 212.19 408.676 208.431 403.024C205.993 399.359 201.908 396.708 200.135 395.847C199.599 395.942 199.486 396.954 199.455 397.77Z" fill="#263238"/>
<path d="M234.507 372.091L246.353 372.457L233.104 352.759L224.901 359.77L234.507 372.091Z" fill="#7F3E3B"/>
<path d="M237.32 363.727C245.926 367.736 259.711 366.947 259.711 366.947L248.506 375.937L238.897 375.225L237.882 373.09L237.32 363.727Z" fill="#7F3E3B"/>
<path d="M235.498 373.941C236.228 374.674 237.135 375.414 237.989 376.008C241.132 378.197 249.617 383.805 249.617 383.805L250.161 383.121C250.161 383.121 244.639 379.103 242.866 377.288C241.094 375.473 245.361 377.239 248.418 377.418C251.476 377.598 255.336 376.389 258.993 372.02C263.274 366.905 264.713 364.618 262.165 365.161C259.617 365.704 256.004 368.542 256.004 368.542C256.004 368.542 251.369 371.386 244.898 370.476C240.702 369.886 236.233 371.285 234.505 372.091C234.245 372.578 234.918 373.358 235.498 373.941Z" fill="#263238"/>
<path d="M141.098 293.351C141.098 293.351 204.463 283.978 211.023 300.22C222.437 328.48 238.555 360.861 238.555 360.861L230.772 367.299C230.772 367.299 203.145 341.724 193.316 313.332C181.577 317.13 144.227 329.352 130.547 329.352C115.936 329.352 109.969 316.895 115.246 296.21C115.716 294.366 117.397 293.088 119.3 293.098C128.498 293.143 141.098 293.351 141.098 293.351Z" fill="#263238"/>
<path d="M147.172 301.602C147.172 301.602 199.177 300.036 199.616 318.461C200.342 348.93 208.929 392.59 208.929 392.59L199.443 393.473C199.443 393.473 183.934 358.744 179.831 328.98C161.306 330.182 144.227 329.352 130.547 329.352C115.216 329.352 113.949 312.515 128.872 292.87C137.993 292.87 147.172 301.602 147.172 301.602Z" fill="#263238"/>
<path d="M115.09 290.555L113.985 294.029C113.84 294.297 114.154 294.583 114.606 294.597L154.889 295.795C155.242 295.805 155.539 295.641 155.568 295.42L156.025 291.927C156.057 291.685 155.757 291.47 155.371 291.459L115.736 290.28C115.445 290.271 115.184 290.382 115.09 290.555Z" fill="white"/>
<path d="M120.281 295.145L119.219 295.113C119.008 295.107 118.85 294.993 118.868 294.86L119.501 290.323C119.519 290.19 119.708 290.087 119.919 290.093L120.981 290.124C121.192 290.13 121.35 290.244 121.332 290.377L120.699 294.914C120.681 295.048 120.493 295.151 120.281 295.145Z" fill="#263238"/>
<path d="M151.894 296.085L150.833 296.053C150.622 296.047 150.464 295.933 150.482 295.8L151.115 291.263C151.134 291.13 151.322 291.027 151.533 291.033L152.595 291.064C152.806 291.07 152.964 291.184 152.946 291.317L152.313 295.854C152.294 295.988 152.106 296.091 151.894 296.085Z" fill="#263238"/>
<path d="M136.088 295.615L135.027 295.583C134.816 295.577 134.658 295.463 134.676 295.33L135.309 290.793C135.327 290.66 135.516 290.557 135.727 290.563L136.789 290.595C137 290.601 137.158 290.715 137.14 290.848L136.507 295.385C136.487 295.518 136.299 295.621 136.088 295.615Z" fill="#263238"/>
<path d="M184.325 251.609H209.624C210.432 251.609 211.014 252.384 210.788 253.16L201.334 285.608C201.183 286.125 200.709 286.481 200.17 286.481H174.871C174.063 286.481 173.481 285.706 173.707 284.93L183.161 252.482C183.312 251.964 183.786 251.609 184.325 251.609Z" fill="#407BFF"/>
<path d="M184.792 252.8L209.38 253.383L199.671 283.988L175.082 283.404L184.792 252.8Z" fill="#E0E0E0"/>
<path d="M184.019 252.499L208.614 252.601L199.505 283.389L174.91 283.287L184.019 252.499Z" fill="white"/>
<path d="M161.843 253.136C161.892 254.111 161.985 255.324 162.074 256.432C162.173 257.565 162.297 258.699 162.447 259.827C162.727 262.086 163.102 264.322 163.566 266.506C164.047 268.683 164.614 270.818 165.352 272.812C165.72 273.811 166.126 274.776 166.572 275.687C166.788 276.153 167.033 276.583 167.275 277.015L167.64 277.63C167.609 277.589 167.566 277.587 167.6 277.622C167.669 277.779 168.375 278.231 169.193 278.554C170.031 278.894 171.032 279.179 172.074 279.416C174.171 279.898 176.453 280.212 178.761 280.449C183.38 280.899 188.205 281.123 192.933 281.22L193.41 286.012C188.473 286.964 183.582 287.565 178.502 287.697C175.963 287.754 173.395 287.709 170.706 287.377C169.359 287.198 167.984 286.959 166.519 286.531C165.056 286.069 163.477 285.541 161.735 284.062C161.309 283.7 160.875 283.23 160.48 282.705L159.836 281.805C159.433 281.211 159.034 280.611 158.686 280.003C157.958 278.791 157.341 277.551 156.799 276.302C155.697 273.805 154.87 271.277 154.217 268.738C153.555 266.202 153.078 263.655 152.729 261.103C152.562 259.825 152.426 258.547 152.317 257.263C152.203 255.954 152.136 254.745 152.121 253.295L161.843 253.136Z" fill="#7F3E3B"/>
<path d="M158.553 238.389C164.85 244.318 163.333 259.77 163.333 259.77L151.267 261.879C151.267 261.879 143.818 250.801 146.436 246.156C149.163 241.318 155.146 235.181 158.553 238.389Z" fill="#407BFF"/>
<path d="M163.33 261.13C162.979 261.13 162.62 260.98 162.37 260.73C162.309 260.67 162.25 260.6 162.2 260.52C162.16 260.451 162.109 260.371 162.08 260.291C162.05 260.211 162.019 260.121 162 260.03C161.99 259.951 161.98 259.86 161.98 259.77C161.98 259.411 162.121 259.06 162.371 258.81C162.44 258.75 162.501 258.69 162.581 258.64C162.65 258.59 162.73 258.55 162.811 258.52C162.901 258.48 162.981 258.46 163.071 258.44C163.502 258.35 163.971 258.5 164.292 258.81C164.542 259.06 164.692 259.411 164.692 259.77C164.692 259.86 164.682 259.951 164.663 260.03C164.642 260.121 164.623 260.211 164.583 260.291C164.553 260.371 164.513 260.451 164.463 260.52C164.413 260.6 164.353 260.67 164.293 260.73C164.04 260.979 163.689 261.13 163.33 261.13Z" fill="white"/>
<path d="M152.37 261.85C152.309 261.1 152.859 260.44 153.609 260.38C154.129 260.33 154.62 260.59 154.879 261.02C155.039 260.55 155.449 260.18 155.969 260.1C156.49 260.03 156.99 260.26 157.28 260.67C157.41 260.19 157.8 259.8 158.309 259.7C158.829 259.59 159.339 259.8 159.649 260.189C159.75 259.7 160.12 259.289 160.629 259.149V259.16C161.359 258.96 162.099 259.399 162.289 260.12C162.479 260.84 162.049 261.59 161.318 261.779C160.789 261.92 160.239 261.719 159.909 261.309C159.799 261.819 159.398 262.24 158.848 262.359C158.308 262.46 157.768 262.229 157.468 261.799C157.328 262.309 156.909 262.709 156.358 262.789C155.808 262.869 155.279 262.599 155.008 262.159C154.838 262.648 154.398 263.028 153.838 263.079C153.798 263.079 153.768 263.079 153.728 263.079C153.03 263.08 152.439 262.55 152.37 261.85Z" fill="white"/>
<path d="M151.27 263.24C151.18 263.24 151.09 263.229 151 263.21C150.91 263.19 150.83 263.16 150.75 263.13C150.66 263.1 150.59 263.05 150.51 263.01C150.44 262.96 150.37 262.9 150.31 262.84C150.241 262.779 150.19 262.71 150.14 262.63C150.09 262.56 150.05 262.48 150.01 262.4C149.98 262.31 149.95 262.23 149.94 262.14C149.92 262.06 149.911 261.97 149.911 261.88C149.911 261.79 149.921 261.7 149.94 261.609C149.951 261.529 149.98 261.439 150.01 261.359C150.05 261.279 150.09 261.2 150.14 261.12C150.19 261.05 150.241 260.979 150.31 260.92C150.371 260.86 150.44 260.8 150.51 260.75C150.59 260.7 150.66 260.66 150.75 260.63C150.83 260.59 150.91 260.569 151 260.55C151.439 260.46 151.91 260.6 152.22 260.92C152.29 260.98 152.34 261.05 152.39 261.12C152.44 261.2 152.48 261.279 152.52 261.359C152.55 261.439 152.581 261.529 152.6 261.609C152.61 261.7 152.621 261.79 152.621 261.88C152.621 261.97 152.61 262.06 152.6 262.14C152.58 262.23 152.55 262.31 152.52 262.4C152.48 262.48 152.44 262.56 152.39 262.63C152.34 262.7 152.29 262.779 152.22 262.84C151.97 263.09 151.62 263.24 151.27 263.24Z" fill="white"/>
<path d="M204.2 276.218L200.025 275.936C198.983 275.866 197.948 276.143 197.081 276.726L189.409 281.879L189.351 285.127C191.809 287.986 197.253 285.426 197.253 285.426L202.302 285.264C203.127 285.238 203.852 284.712 204.135 283.937L205.962 278.925C206.423 277.661 205.542 276.309 204.2 276.218Z" fill="#7F3E3B"/>
<path d="M117.588 418.406H118.721C119.163 418.406 119.542 418.018 119.618 417.487L126.578 369.048H121.293L116.684 417.166C116.62 417.826 117.043 418.406 117.588 418.406Z" fill="#407BFF"/>
<path opacity="0.3" d="M117.588 418.406H118.721C119.163 418.406 119.542 418.018 119.618 417.487L126.578 369.048H121.293L116.684 417.166C116.62 417.826 117.043 418.406 117.588 418.406Z" fill="black"/>
<path d="M103.087 418.406H104.22C104.662 418.406 105.04 418.018 105.117 417.487L112.077 369.048H106.792L102.183 417.166C102.12 417.826 102.543 418.406 103.087 418.406Z" fill="#407BFF"/>
<path opacity="0.3" d="M103.087 418.406H104.22C104.662 418.406 105.04 418.018 105.117 417.487L112.077 369.048H106.792L102.183 417.166C102.12 417.826 102.543 418.406 103.087 418.406Z" fill="black"/>
<path d="M183.885 418.406H182.752C182.31 418.406 181.931 418.018 181.855 417.487L174.895 369.048H180.18L184.789 417.166C184.853 417.826 184.43 418.406 183.885 418.406Z" fill="#407BFF"/>
<path opacity="0.3" d="M183.885 418.406H182.752C182.31 418.406 181.931 418.018 181.855 417.487L174.895 369.048H180.18L184.789 417.166C184.853 417.826 184.43 418.406 183.885 418.406Z" fill="black"/>
<path d="M198.386 418.406H197.253C196.811 418.406 196.433 418.018 196.356 417.487L189.396 369.048H194.681L199.29 417.166C199.354 417.826 198.931 418.406 198.386 418.406Z" fill="#407BFF"/>
<path opacity="0.3" d="M198.386 418.406H197.253C196.811 418.406 196.433 418.018 196.356 417.487L189.396 369.048H194.681L199.29 417.166C199.354 417.826 198.931 418.406 198.386 418.406Z" fill="black"/>
<path d="M217.178 311.628H181.578C175.262 289.694 152.535 272.389 129.261 272.389H129.258H117.698C93.336 272.389 77.614 291.345 82.582 314.728C83.494 319.021 85.045 323.162 87.112 327.066L92.726 361.095C93.451 365.487 96.955 369.047 100.552 369.047H207.704C211.302 369.047 214.806 365.487 215.53 361.095L222.38 319.579C223.106 315.188 220.777 311.628 217.178 311.628Z" fill="#407BFF"/>
<path opacity="0.5" d="M217.178 311.628H181.578C175.262 289.694 152.535 272.389 129.261 272.389H129.258H117.698C93.336 272.389 77.614 291.345 82.582 314.728C83.494 319.021 85.045 323.162 87.112 327.066L92.726 361.095C93.451 365.487 96.955 369.047 100.552 369.047H207.704C211.302 369.047 214.806 365.487 215.53 361.095L222.38 319.579C223.106 315.188 220.777 311.628 217.178 311.628Z" fill="white"/>
<path d="M212.532 152.146H204.365V153.146H212.532V152.146Z" fill="#407BFF"/>
<path d="M174.322 163.931H173.322V159.011C173.322 155.226 176.402 152.147 180.187 152.147H198.417V153.147H180.187C176.953 153.147 174.322 155.778 174.322 159.011V163.931Z" fill="#407BFF"/>
<path d="M271.361 198.13H180.188C178.33 198.13 176.823 196.623 176.823 194.765V159.011C176.823 157.153 178.33 155.646 180.188 155.646H271.361C273.219 155.646 274.726 157.153 274.726 159.011V194.765C274.726 196.623 273.219 198.13 271.361 198.13Z" fill="#407BFF"/>
<path d="M267.049 179.149H184.499C183.25 179.149 182.238 178.137 182.238 176.888C182.238 175.639 183.25 174.627 184.499 174.627H267.049C268.298 174.627 269.31 175.639 269.31 176.888C269.31 178.137 268.298 179.149 267.049 179.149Z" fill="white"/>
<path d="M249.383 188.538H184.499C183.25 188.538 182.238 187.526 182.238 186.277C182.238 185.028 183.25 184.016 184.499 184.016H249.383C250.632 184.016 251.644 185.028 251.644 186.277C251.643 187.526 250.631 188.538 249.383 188.538Z" fill="white"/>
<path d="M212.337 169.759H184.498C183.249 169.759 182.237 168.747 182.237 167.498C182.237 166.249 183.249 165.237 184.498 165.237H212.337C213.586 165.237 214.598 166.249 214.598 167.498C214.598 168.747 213.586 169.759 212.337 169.759Z" fill="white"/>
<path d="M249.239 169.759H221.4C220.151 169.759 219.139 168.747 219.139 167.498C219.139 166.249 220.151 165.237 221.4 165.237H249.239C250.488 165.237 251.5 166.249 251.5 167.498C251.5 168.747 250.488 169.759 249.239 169.759Z" fill="white"/>
<path d="M182.238 195.417V206.249C182.238 208.334 184.633 209.509 186.282 208.233L202.882 195.385L182.238 195.417Z" fill="#407BFF"/>
<path d="M322.813 102.003H231.64C229.781 102.003 228.275 103.51 228.275 105.368V141.122C228.275 142.98 229.782 144.487 231.64 144.487H303.665L316.719 154.59C318.367 155.866 320.763 154.691 320.763 152.606V144.486H322.814C324.672 144.486 326.179 142.979 326.179 141.121V105.368C326.178 103.51 324.671 102.003 322.813 102.003Z" fill="white"/>
<path d="M318.25 155.618C317.599 155.618 316.953 155.404 316.413 154.985L303.493 144.987H231.64C229.509 144.987 227.775 143.253 227.775 141.122V105.368C227.775 103.237 229.509 101.503 231.64 101.503H322.813C324.944 101.503 326.678 103.237 326.678 105.368V141.122C326.678 143.253 324.944 144.987 322.813 144.987H321.263V152.606C321.263 153.763 320.617 154.797 319.579 155.307C319.154 155.516 318.701 155.618 318.25 155.618ZM231.64 102.503C230.06 102.503 228.775 103.788 228.775 105.368V141.122C228.775 142.702 230.06 143.987 231.64 143.987H303.835L317.024 154.194C317.643 154.674 318.433 154.757 319.138 154.41C319.842 154.064 320.262 153.39 320.262 152.606V143.987H322.812C324.392 143.987 325.677 142.702 325.677 141.122V105.368C325.677 103.788 324.392 102.503 322.812 102.503H231.64Z" fill="#407BFF"/>
<path d="M275.278 125.506H318.502C319.751 125.506 320.763 124.494 320.763 123.245C320.763 121.996 319.751 120.984 318.502 120.984H275.278C274.029 120.984 273.017 121.996 273.017 123.245C273.017 124.494 274.029 125.506 275.278 125.506Z" fill="#407BFF"/>
<path d="M245.101 125.506H266.501C267.75 125.506 268.762 124.494 268.762 123.245C268.762 121.996 267.75 120.984 266.501 120.984H245.101C243.852 120.984 242.84 121.996 242.84 123.245C242.84 124.494 243.853 125.506 245.101 125.506Z" fill="#407BFF"/>
<path d="M253.618 134.896H318.502C319.751 134.896 320.763 133.884 320.763 132.635C320.763 131.386 319.751 130.374 318.502 130.374H253.618C252.369 130.374 251.357 131.386 251.357 132.635C251.357 133.883 252.369 134.896 253.618 134.896Z" fill="#407BFF"/>
<path d="M235.951 116.116H318.501C319.75 116.116 320.762 115.104 320.762 113.855C320.762 112.606 319.75 111.594 318.501 111.594H235.951C234.702 111.594 233.69 112.606 233.69 113.855C233.69 115.104 234.703 116.116 235.951 116.116Z" fill="#407BFF"/>
<path d="M399.07 405.545H397.655C397.103 405.545 396.63 405.059 396.534 404.392L387.839 343.667H394.441L400.199 403.99C400.28 404.818 399.751 405.545 399.07 405.545Z" fill="#407BFF"/>
<path opacity="0.3" d="M399.07 405.545H397.655C397.103 405.545 396.63 405.059 396.534 404.392L387.839 343.667H394.441L400.199 403.99C400.28 404.818 399.751 405.545 399.07 405.545Z" fill="black"/>
<path d="M417.185 405.545H415.77C415.218 405.545 414.745 405.059 414.649 404.392L405.954 343.667H412.556L418.314 403.99C418.394 404.818 417.866 405.545 417.185 405.545Z" fill="#407BFF"/>
<path opacity="0.3" d="M417.185 405.545H415.77C415.218 405.545 414.745 405.059 414.649 404.392L405.954 343.667H412.556L418.314 403.99C418.394 404.818 417.866 405.545 417.185 405.545Z" fill="black"/>
<path d="M316.252 405.545H317.667C318.219 405.545 318.692 405.059 318.788 404.392L327.483 343.667H320.881L315.123 403.99C315.043 404.818 315.572 405.545 316.252 405.545Z" fill="#407BFF"/>
<path opacity="0.3" d="M316.252 405.545H317.667C318.219 405.545 318.692 405.059 318.788 404.392L327.483 343.667H320.881L315.123 403.99C315.043 404.818 315.572 405.545 316.252 405.545Z" fill="black"/>
<path d="M298.138 405.545H299.553C300.105 405.545 300.578 405.059 300.674 404.392L309.369 343.667H302.767L297.009 403.99C296.93 404.818 297.458 405.545 298.138 405.545Z" fill="#407BFF"/>
<path opacity="0.3" d="M298.138 405.545H299.553C300.105 405.545 300.578 405.059 300.674 404.392L309.369 343.667H302.767L297.009 403.99C296.93 404.818 297.458 405.545 298.138 405.545Z" fill="black"/>
<path d="M274.663 271.683H319.133C327.023 244.186 355.413 222.492 384.487 222.492H384.49H398.931C429.363 222.492 449.002 246.256 442.798 275.571C441.658 280.952 439.721 286.144 437.139 291.039L430.125 333.699C429.22 339.204 424.842 343.667 420.349 343.667H286.495C282 343.667 277.623 339.204 276.719 333.699L268.163 281.653C267.258 276.147 270.168 271.683 274.663 271.683Z" fill="#407BFF"/>
<path opacity="0.5" d="M274.663 271.683H319.133C327.023 244.186 355.413 222.492 384.487 222.492H384.49H398.931C429.363 222.492 449.002 246.256 442.798 275.571C441.658 280.952 439.721 286.144 437.139 291.039L430.125 333.699C429.22 339.204 424.842 343.667 420.349 343.667H286.495C282 343.667 277.623 339.204 276.719 333.699L268.163 281.653C267.258 276.147 270.168 271.683 274.663 271.683Z" fill="white"/>
<path d="M263.529 389.834L274.544 394.907C274.944 395.091 275.119 395.51 274.964 395.914L271.498 404.906C271.138 405.839 269.897 406.306 268.981 405.865C265.177 404.032 263.449 402.963 258.604 400.732C255.624 399.359 247.465 394.771 243.789 392.117C240.194 389.522 242.833 385.892 244.628 386.687C252.674 390.249 257.796 390.568 261.562 389.662C262.243 389.498 262.943 389.564 263.529 389.834Z" fill="#263238"/>
<path d="M341.627 254.346C341.627 254.346 271.212 255.224 270.124 283.079C268.561 323.118 262.669 389.596 262.669 389.596L274.544 394.905C274.544 394.905 295.348 328.194 296.091 296.926C315.847 291.987 366.82 296.967 372.809 280.671C377.709 267.339 375.059 254.346 375.059 254.346H341.627Z" fill="#407BFF"/>
<path opacity="0.2" d="M341.627 254.346C341.627 254.346 271.212 255.224 270.124 283.079C268.561 323.118 262.669 389.596 262.669 389.596L274.544 394.905C274.544 394.905 295.348 328.194 296.091 296.926C315.847 291.987 366.82 296.967 372.809 280.671C377.709 267.339 375.059 254.346 375.059 254.346H341.627Z" fill="black"/>
<path d="M356.613 181.061C356.001 183.631 355.383 185.952 354.674 188.357C353.98 190.739 353.254 193.11 352.492 195.474C350.946 200.194 349.244 204.882 347.278 209.521C345.328 214.168 343.148 218.775 340.491 223.319C339.15 225.589 337.718 227.863 336.019 230.082C334.321 232.302 332.399 234.513 329.885 236.584L329.689 236.745C329.552 236.857 329.405 236.966 329.26 237.063C327.582 238.172 326.019 238.512 324.83 238.658C323.621 238.793 322.638 238.738 321.824 238.637C320.153 238.432 318.928 238.053 317.779 237.654C315.518 236.845 313.662 235.918 311.871 234.957C308.315 233.037 305.16 230.887 302.063 228.704C298.993 226.489 296.038 224.196 293.167 221.814C290.314 219.39 287.519 216.997 284.796 214.363C283.193 212.811 283.147 210.25 284.692 208.641C285.987 207.293 287.989 207.042 289.547 207.908L289.612 207.945C292.728 209.679 295.872 211.516 299.025 213.226C302.165 214.97 305.295 216.694 308.43 218.306C311.541 219.94 314.699 221.456 317.708 222.703C319.2 223.315 320.697 223.842 321.915 224.117C322.506 224.25 323.056 224.319 323.2 224.289C323.289 224.288 323.225 224.236 322.917 224.257C322.627 224.286 321.965 224.371 321.043 224.963L320.419 225.442C321.542 224.376 322.735 222.891 323.837 221.216C324.94 219.536 326.019 217.709 327.019 215.786C329.012 211.922 330.793 207.756 332.438 203.496C334.065 199.224 335.586 194.852 336.995 190.429C338.429 186.05 339.733 181.453 340.924 177.164L340.969 177.002C342.167 172.688 346.623 170.165 350.921 171.366C355.12 172.538 357.611 176.844 356.613 181.061Z" fill="#263238"/>
<path d="M328.071 395.585H341.281C341.762 395.585 342.125 395.92 342.153 396.391L342.793 406.88C342.859 407.968 341.843 408.997 340.735 408.979C336.136 408.899 333.939 408.628 328.129 408.628C324.555 408.628 317.345 409 312.411 409C307.584 409 307.617 404.103 309.708 403.659C319.087 401.67 322.726 398.927 326.045 396.31C326.644 395.839 327.367 395.585 328.071 395.585Z" fill="#263238"/>
<path d="M360.605 254.346C360.605 254.346 296.735 259.759 298.307 287.592C300.027 318.07 328.069 395.585 328.069 395.585H340.985C340.985 395.585 329.93 324.599 326.044 293.566C344.046 293.566 385.798 296.967 391.787 280.671C396.687 267.339 394.037 254.346 394.037 254.346H360.605Z" fill="#407BFF"/>
<path d="M290.531 209.255C290.531 209.255 288.694 206.266 286.939 204.832C284.328 207.29 282.858 214.457 282.858 214.457L286.469 214.785C286.469 214.785 290.613 213.433 290.531 209.255Z" fill="#407BFF"/>
<path d="M277.276 202.815L273.168 201.025C272.065 200.544 270.778 200.956 270.156 201.99L268.211 205.224C267.65 206.156 267.782 207.35 268.533 208.137L274.171 214.04L283.575 213.658C284.657 213.615 285.63 212.991 286.122 212.023L287.209 209.895C287.889 208.562 287.517 206.891 286.271 206.066C283.224 204.041 277.276 202.815 277.276 202.815Z" fill="#FFC3BD"/>
<path d="M341.031 178.338C339.145 190.229 336.71 216.014 341.685 254.844L394.037 254.347C393.724 227.443 397.926 202.176 402.028 177.497C402.71 173.396 399.909 169.595 395.808 169.001C383.233 167.183 362.929 167.252 350.611 168.964C345.711 169.646 341.808 173.432 341.031 178.338Z" fill="#263238"/>
<path d="M402.506 174.142C404.042 177.967 405.279 181.643 406.544 185.433C407.797 189.199 408.898 193.021 409.939 196.883C410.938 200.756 411.896 204.664 412.626 208.679C413.36 212.695 414.007 216.774 414.231 221.101C414.301 222.175 414.321 223.286 414.334 224.398L414.315 226.097C414.282 227.295 414.109 229.114 413.002 231.059C412.479 232.001 411.658 232.967 410.805 233.633C410.359 234.001 409.93 234.275 409.495 234.514C409.036 234.778 408.63 234.951 408.233 235.098C406.617 235.69 405.369 235.769 404.355 235.775C402.366 235.737 401.002 235.392 399.731 235.049C397.254 234.327 395.268 233.444 393.334 232.518C391.42 231.572 389.623 230.572 387.866 229.546C380.884 225.391 374.6 220.762 368.503 215.635C366.797 214.202 366.574 211.652 368.002 209.94C369.206 208.497 371.201 208.112 372.82 208.885L372.913 208.93C379.74 212.195 386.679 215.539 393.445 218.352C395.132 219.05 396.817 219.705 398.455 220.251C400.072 220.811 401.7 221.295 402.967 221.488C403.567 221.586 404.115 221.574 404.054 221.516C404.001 221.5 403.721 221.448 403.004 221.695C402.834 221.76 402.65 221.841 402.394 221.972C402.174 222.095 401.949 222.244 401.678 222.446C401.206 222.819 400.703 223.403 400.402 223.92C399.771 225.018 399.74 225.853 399.72 226.09L399.645 224.891C399.573 224.075 399.503 223.255 399.382 222.405C398.479 215.61 396.57 208.374 394.453 201.261C392.332 194.153 389.905 186.886 387.432 179.983L387.406 179.914C385.897 175.699 388.077 171.054 392.277 169.538C396.376 168.061 400.888 170.125 402.506 174.142Z" fill="#263238"/>
<path d="M381.577 142.356L375.243 147.627L366.619 154.814C366.871 155.984 367.068 157.169 367.167 158.31C367.579 162.488 366.668 166.331 361.607 168.277C359.696 169.013 358.033 170.415 357.429 172.377C356.747 174.598 357.554 177.065 364.501 177.064C374.703 177.061 380.032 172.51 382.037 170.268C382.602 169.635 382.61 168.705 382.123 168.012C378.083 162.259 379.929 149.539 381.577 142.356Z" fill="#FFC3BD"/>
<path d="M364.252 174.812C364.252 174.812 364.93 175.548 365.135 176.614C365.666 175.713 367.048 174.812 367.048 174.812C367.048 174.812 370.077 176.163 370.707 179.111C368.766 178.988 365.216 177.063 365.216 177.063C365.216 177.063 363.379 178.128 361.542 178.21C361.625 175.917 364.252 174.812 364.252 174.812Z" fill="#407BFF"/>
<path d="M367.048 174.811C369.985 178.13 370.543 182.538 370.543 182.538C370.543 182.538 387.447 178.299 386.653 167.242C385.231 166.341 381.967 165.798 381.967 165.798C381.967 165.798 378.332 172.421 367.048 174.811Z" fill="#407BFF"/>
<path d="M364.251 174.811C361.315 178.131 360.531 182.538 360.531 182.538C360.531 182.538 351.861 174.619 360.306 167.334C361.792 166.72 364.774 166.393 364.774 166.393C364.774 166.393 359.164 170.961 364.251 174.811Z" fill="#407BFF"/>
<path opacity="0.2" d="M366.621 154.815C366.873 155.985 367.07 157.169 367.169 158.31C370.385 157.661 374.682 154.222 375.131 150.926C375.3 149.685 375.327 148.487 375.243 147.627L366.621 154.815Z" fill="black"/>
<path d="M357.366 119.53C349.415 125.188 353.864 138.461 360.646 133.382C367.429 128.303 363.846 114.918 357.366 119.53Z" fill="#263238"/>
<path d="M384.189 131.35C381.987 141.511 381.214 147.551 375.234 152.187C366.239 159.161 354.319 152.965 353.445 142.457C352.658 132.999 356.391 117.972 367.042 115.095C377.534 112.261 386.39 121.189 384.189 131.35Z" fill="#FFC3BD"/>
<path d="M379.501 123.819C373.888 122.262 359.417 125.959 354.279 120.46C348.769 114.562 356.809 111.695 359.177 113.744C356.177 110.304 357.298 106.617 361.544 106.944C364.64 107.183 365.628 110.631 365.628 110.631C365.628 110.631 365.11 104.606 370.438 105.02C375.276 105.397 375.291 111.943 375.291 111.943C375.291 111.943 386.837 108.666 390.685 119.725C397.95 119.561 397.786 134.906 383.176 140.367C377.243 137.417 376.97 126.949 379.501 123.819Z" fill="#263238"/>
<path d="M389.13 121.936C388.433 121.936 387.814 121.435 387.686 120.722C387.542 119.922 388.07 119.158 388.865 119.01C388.997 118.971 389.389 118.647 389.715 117.935C390.06 117.186 390.282 116.067 389.875 115.174C389.538 114.432 389.865 113.559 390.603 113.22C391.339 112.878 392.212 113.209 392.55 113.95C393.431 115.89 392.964 118.079 392.232 119.482C391.531 120.827 390.496 121.714 389.393 121.911C389.305 121.928 389.218 121.936 389.13 121.936Z" fill="#263238"/>
<path d="M385.836 140.77C384.351 142.727 382.179 143.889 380.276 144.226C377.413 144.732 376.543 142.09 377.809 139.523C378.949 137.213 381.81 134.167 384.456 134.827C387.064 135.476 387.534 138.532 385.836 140.77Z" fill="#FFC3BD"/>
<path d="M366.849 132.279C366.721 133.112 366.176 133.735 365.63 133.67C365.085 133.605 364.747 132.876 364.875 132.043C365.003 131.209 365.548 130.587 366.094 130.652C366.639 130.718 366.977 131.445 366.849 132.279Z" fill="#263238"/>
<path d="M357.424 131.155C357.296 131.988 356.751 132.611 356.205 132.546C355.66 132.481 355.322 131.752 355.45 130.919C355.578 130.085 356.124 129.463 356.669 129.528C357.214 129.593 357.552 130.321 357.424 131.155Z" fill="#263238"/>
<path d="M360.296 131.489C360.296 131.489 358.318 135.532 356.36 137.43C357.522 138.676 359.717 138.248 359.717 138.248L360.296 131.489Z" fill="#ED847E"/>
<path d="M363.573 142.531C366.882 142.531 368.731 140.461 368.815 140.364C368.905 140.262 368.894 140.106 368.793 140.016C368.691 139.925 368.535 139.936 368.446 140.038C368.424 140.062 366.321 142.421 362.656 141.98C362.52 141.963 362.398 142.061 362.382 142.197C362.366 142.332 362.463 142.455 362.599 142.471C362.934 142.512 363.26 142.531 363.573 142.531Z" fill="#263238"/>
<path d="M370.638 127.474C370.718 127.457 370.793 127.419 370.858 127.362C371.061 127.18 371.079 126.867 370.899 126.663C369.107 124.643 366.848 125.01 366.754 125.027C366.496 125.045 366.305 125.329 366.352 125.599C366.399 125.868 366.654 126.049 366.922 126.002C367.015 125.988 368.754 125.734 370.162 127.322C370.285 127.46 370.469 127.511 370.638 127.474Z" fill="#263238"/>
<path d="M354.058 126.931C354.21 126.975 354.379 126.944 354.51 126.836C356.234 125.396 358.007 125.872 358.024 125.877C358.287 125.952 358.559 125.798 358.632 125.534C358.706 125.272 358.554 125 358.292 124.925L358.29 124.923C358.197 124.897 355.996 124.306 353.878 126.074C353.669 126.249 353.641 126.56 353.814 126.771C353.881 126.851 353.967 126.904 354.058 126.931Z" fill="#263238"/>
<path d="M371.246 202.022L365.468 198.418C363.734 197.337 361.453 197.885 360.398 199.641L359.718 200.772C358.895 202.14 359.047 203.884 360.091 205.087L364.079 209.681C364.079 209.681 367.549 217.801 371.572 215.657L374.641 210.321L371.246 202.022Z" fill="#FFC3BD"/>
<path d="M377.198 212.404C377.198 212.404 375.744 208.817 374.178 207.002C371.276 209.497 368.926 217.452 368.926 217.452L372.475 218.219C372.475 218.219 376.759 217.143 377.198 212.404Z" fill="#407BFF"/>
<path d="M421.451 271.683H352.901C348.406 271.683 345.497 276.146 346.402 281.652L354.958 333.697C355.863 339.203 360.239 343.666 364.734 343.666H412.963L421.451 271.683Z" fill="#407BFF"/>
<path opacity="0.5" d="M421.451 271.683H352.901C348.406 271.683 345.497 276.146 346.402 281.652L354.958 333.697C355.863 339.203 360.239 343.666 364.734 343.666H412.963L421.451 271.683Z" fill="white"/>
</svg>
