<svg width="170" height="56" viewBox="0 0 170 56" fill="none" xmlns="http://www.w3.org/2000/svg">
<path d="M32.6509 33.0688C26.6088 27.0267 27.6839 16.6707 28.9767 12.248C17.9396 25.3348 24.6638 41.2507 29.8564 48.2731C30.0121 48.5741 30.1938 48.8172 30.4056 48.9905C30.2251 48.763 30.0417 48.5237 29.8564 48.2731C28.6909 46.0208 28.9767 40.5242 28.9767 36.743L27.752 34.4976C32.3244 36.4572 36.3252 49.3307 37.7541 55.5225C39.5912 54.2977 40.2035 40.6214 32.6509 33.0688Z" fill="#5067FE"/>
<path d="M31.4262 28.578C34.3656 30.211 44.3541 27.3533 48.981 25.7203C46.9397 30.211 34.6922 33.0688 33.8757 33.0688C33.2225 33.0688 31.9706 30.0749 31.4262 28.578Z" fill="#5067FE"/>
<circle cx="4.08249" cy="4.08249" r="4.08249" transform="matrix(-1 0 0 1 37.7542 19.1877)" fill="#5067FE"/>
<path d="M33.313 2.32358L30.4354 5.71684L26.3189 4.02862L28.6569 7.81399L25.7792 11.2073L30.1018 10.1535L32.4398 13.9388L32.7733 9.50221L37.0959 8.44844L32.9794 6.76022L33.313 2.32358Z" fill="#5067FE"/>
<path d="M14.67 39.35H5.55L3.87 44H0.99L8.55 23.21H11.7L19.23 44H16.35L14.67 39.35ZM13.89 37.13L10.11 26.57L6.33 37.13H13.89ZM58.879 39.35H49.759L48.079 44H45.199L52.759 23.21H55.909L63.439 44H60.559L58.879 39.35ZM58.099 37.13L54.319 26.57L50.539 37.13H58.099ZM83.1738 44H80.4438L69.4638 27.35V44H66.7338V23.06H69.4638L80.4438 39.68V23.06H83.1738V44ZM99.1676 44L90.5576 34.46V44H87.8276V23.09H90.5576V32.78L99.1976 23.09H102.648L93.1676 33.56L102.738 44H99.1676ZM112.417 44.21C111.037 44.21 109.797 43.97 108.697 43.49C107.617 42.99 106.767 42.31 106.147 41.45C105.527 40.57 105.207 39.56 105.187 38.42H108.097C108.197 39.4 108.597 40.23 109.297 40.91C110.017 41.57 111.057 41.9 112.417 41.9C113.717 41.9 114.737 41.58 115.477 40.94C116.237 40.28 116.617 39.44 116.617 38.42C116.617 37.62 116.397 36.97 115.957 36.47C115.517 35.97 114.967 35.59 114.307 35.33C113.647 35.07 112.757 34.79 111.637 34.49C110.257 34.13 109.147 33.77 108.307 33.41C107.487 33.05 106.777 32.49 106.177 31.73C105.597 30.95 105.307 29.91 105.307 28.61C105.307 27.47 105.597 26.46 106.177 25.58C106.757 24.7 107.567 24.02 108.607 23.54C109.667 23.06 110.877 22.82 112.237 22.82C114.197 22.82 115.797 23.31 117.037 24.29C118.297 25.27 119.007 26.57 119.167 28.19H116.167C116.067 27.39 115.647 26.69 114.907 26.09C114.167 25.47 113.187 25.16 111.967 25.16C110.827 25.16 109.897 25.46 109.177 26.06C108.457 26.64 108.097 27.46 108.097 28.52C108.097 29.28 108.307 29.9 108.727 30.38C109.167 30.86 109.697 31.23 110.317 31.49C110.957 31.73 111.847 32.01 112.987 32.33C114.367 32.71 115.477 33.09 116.317 33.47C117.157 33.83 117.877 34.4 118.477 35.18C119.077 35.94 119.377 36.98 119.377 38.3C119.377 39.32 119.107 40.28 118.567 41.18C118.027 42.08 117.227 42.81 116.167 43.37C115.107 43.93 113.857 44.21 112.417 44.21ZM139.504 23.09V44H136.774V34.52H126.124V44H123.394V23.09H126.124V32.27H136.774V23.09H139.504Z" fill="black"/>
<path d="M156.525 39.35H147.405L145.725 44H142.845L150.405 23.21H153.555L161.085 44H158.205L156.525 39.35ZM155.745 37.13L151.965 26.57L148.185 37.13H155.745ZM167.11 23.09V44H164.38V23.09H167.11Z" fill="#5067FE"/>
</svg>
