<svg width="672" height="403" viewBox="0 0 672 403" fill="none" xmlns="http://www.w3.org/2000/svg">
<path d="M407.574 117.872C389.949 115.602 373.822 128.05 371.553 145.675C369.283 163.299 381.731 179.427 399.356 181.696C416.981 183.966 433.108 171.518 435.377 153.893L403.465 149.784C403.465 149.784 406.055 129.666 407.574 117.872Z" fill="#F2F2F2"/>
<path d="M413.415 113.363C411.896 125.157 409.306 145.275 409.306 145.275L441.218 149.384C443.487 131.76 431.04 115.633 413.415 113.363Z" fill="#EBEBEB"/>
<path fill-rule="evenodd" clip-rule="evenodd" d="M106.834 272.634C105.052 270.158 103.239 267.702 101.493 265.197C99.3279 262.091 99.4129 260.05 102.04 257.414C105.456 253.987 108.93 250.612 112.523 247.372C114.673 245.433 115.277 243.683 114.981 240.473C114.275 232.822 110.184 229.586 103.206 228.371C100.012 227.815 96.9879 226.346 93.8279 225.509C91.0179 224.764 90.3829 223.044 90.8279 220.431C92.0049 213.522 93.1449 206.607 94.2099 199.681C94.5889 197.217 95.9319 196.122 98.3299 196.157C103.857 196.237 109.391 196.233 114.913 196.461C117.473 196.569 118.678 195.379 120.344 193.506C125.461 187.76 125.051 182.421 120.755 176.579C119.102 174.335 118.088 171.628 116.735 169.156C114.85 165.713 115.24 163.532 118.327 161.286C123.443 157.56 128.625 153.923 133.719 150.165C136.225 148.319 138.515 148.414 140.664 150.577C144.628 154.566 148.601 158.549 152.422 162.674C153.763 164.12 154.985 164.786 156.822 163.848C157.114 163.698 157.477 163.624 157.808 163.623C165.477 163.607 168.799 159.187 169.966 152.135C170.495 148.94 171.879 145.891 172.799 142.753C173.518 140.303 175.113 139.132 177.594 139.514C184.631 140.598 191.663 141.724 198.674 142.962C201.298 143.424 202.341 145.281 202.27 147.911C202.126 153.325 201.995 158.742 202.026 164.155C202.034 165.402 202.334 167.169 203.173 167.794C206.052 169.939 209.117 171.929 212.362 173.437C213.4 173.92 215.321 172.924 216.663 172.256C221.099 170.048 225.45 167.672 229.842 165.371C232.646 163.9 235.004 164.28 236.915 166.974C240.646 172.227 244.473 177.41 248.183 182.678C250.277 185.648 249.992 187.381 247.273 190.068C243.272 194.02 239.275 197.975 235.281 201.931C234.886 202.325 234.14 202.821 234.201 203.144C234.928 206.891 235.436 210.743 236.767 214.278C237.278 215.636 239.636 216.559 241.336 217.159C246.014 218.812 250.774 220.245 255.533 221.653C258.197 222.44 259.172 224.18 258.768 226.762C257.704 233.574 256.555 240.373 255.471 247.181C255.053 249.813 253.688 251.159 250.905 251.08C245.381 250.924 239.85 250.953 234.328 250.745C231.92 250.654 230.085 251.121 229.308 253.66C229.213 253.976 229.031 254.304 228.798 254.534C222.879 260.359 225.801 265.894 229.228 271.516C230.746 274.008 231.913 276.714 233.268 279.309C234.585 281.831 233.971 283.947 231.79 285.551C226.418 289.5 221.009 293.403 215.553 297.238C213.089 298.969 210.583 298.667 208.508 296.533C204.662 292.578 201.017 288.424 197.083 284.565C196.19 283.689 194.416 283.251 193.11 283.359C190.888 283.548 188.734 284.665 186.518 284.781C183.13 284.96 181.995 286.878 181.216 289.772C179.893 294.673 178.194 299.468 176.791 304.348C176.029 306.997 174.405 308.097 171.769 307.683C164.845 306.593 157.931 305.454 151.015 304.318C148.406 303.888 147.155 302.503 147.283 299.671C147.535 294.147 147.479 288.61 147.671 283.083C147.745 280.939 147.219 279.338 145.117 278.453C144.289 278.104 143.379 277.726 142.78 277.101C138.107 272.229 133.545 274.036 128.789 277.03C125.846 278.884 122.678 280.388 119.561 281.947C116.557 283.447 114.278 282.839 112.193 280.054C110.366 277.613 108.619 275.11 106.834 272.634ZM188.12 213.697C182.514 205.959 172.663 204.412 164.882 210.047C157.32 215.522 155.58 225.872 160.952 233.431C166.384 241.072 176.974 242.781 184.665 237.255C192.412 231.691 193.886 221.653 188.12 213.697Z" fill="#F2F2F2"/>
<path fill-rule="evenodd" clip-rule="evenodd" d="M279.002 186.232C277.724 185.348 276.436 184.478 275.171 183.574C273.602 182.453 273.295 181.459 274.106 179.746C275.16 177.519 276.252 175.306 277.424 173.138C278.126 171.841 278.118 170.898 277.428 169.409C275.785 165.857 273.268 165.002 269.713 165.609C268.085 165.887 266.383 165.697 264.723 165.835C263.249 165.957 262.651 165.239 262.418 163.91C261.805 160.392 261.172 156.879 260.502 153.374C260.263 152.127 260.722 151.372 261.878 150.98C264.546 150.075 267.201 149.129 269.89 148.297C271.136 147.912 271.511 147.135 271.991 145.953C273.467 142.323 272.36 139.831 269.302 137.759C268.126 136.965 267.178 135.839 266.107 134.883C264.615 133.552 264.43 132.44 265.528 130.834C267.347 128.174 269.214 125.546 271.018 122.873C271.905 121.559 273.02 121.214 274.422 121.885C277.005 123.124 279.591 124.358 282.128 125.686C283.018 126.151 283.718 126.262 284.44 125.499C284.554 125.378 284.717 125.28 284.875 125.223C288.553 123.909 289.394 121.222 288.75 117.637C288.46 116.013 288.604 114.313 288.51 112.652C288.437 111.352 289.003 110.519 290.259 110.28C293.821 109.599 297.389 108.94 300.964 108.338C302.302 108.114 303.118 108.826 303.533 110.101C304.388 112.723 305.249 115.345 306.188 117.938C306.403 118.534 306.849 119.333 307.359 119.488C309.106 120.028 310.917 120.46 312.732 120.629C313.311 120.683 314.064 119.878 314.593 119.329C316.346 117.513 318.029 115.63 319.744 113.777C320.839 112.594 322.035 112.373 323.411 113.34C326.097 115.225 328.819 117.06 331.498 118.956C333.009 120.024 333.168 120.905 332.322 122.657C331.075 125.236 329.832 127.816 328.589 130.396C328.467 130.652 328.194 131.018 328.278 131.162C329.267 132.836 330.167 134.599 331.409 136.069C331.886 136.634 333.175 136.674 334.094 136.671C336.619 136.667 339.149 136.543 341.673 136.406C343.085 136.329 343.849 136.999 344.096 138.307C344.747 141.757 345.356 145.216 345.996 148.669C346.245 150.003 345.819 150.882 344.47 151.319C341.793 152.186 339.143 153.145 336.457 153.986C335.286 154.352 334.484 154.889 334.546 156.24C334.553 156.407 334.523 156.597 334.45 156.747C332.602 160.553 334.949 162.71 337.552 164.823C338.706 165.76 339.727 166.86 340.82 167.875C341.881 168.86 341.949 169.98 341.175 171.122C339.271 173.934 337.34 176.729 335.376 179.501C334.489 180.751 333.235 181.034 331.874 180.364C329.355 179.121 326.897 177.75 324.351 176.569C323.773 176.301 322.846 176.393 322.237 176.667C321.204 177.138 320.36 178.04 319.317 178.475C317.721 179.138 317.503 180.252 317.622 181.774C317.825 184.351 317.826 186.942 317.986 189.525C318.072 190.926 317.481 191.73 316.146 191.981C312.637 192.639 309.123 193.272 305.611 193.906C304.285 194.143 303.45 193.692 303.028 192.312C302.205 189.618 301.234 186.97 300.384 184.285C300.053 183.244 299.529 182.564 298.368 182.499C297.912 182.473 297.41 182.446 297.016 182.248C293.942 180.707 292.062 182.352 290.29 184.601C289.194 185.992 287.929 187.255 286.701 188.534C285.514 189.767 284.317 189.863 282.839 188.883C281.547 188.02 280.28 187.117 279.002 186.232ZM307.96 144.084C303.951 141.327 298.958 142.265 296.186 146.296C293.489 150.215 294.42 155.478 298.288 158.19C302.198 160.931 307.571 159.945 310.319 155.981C313.09 151.987 312.086 146.919 307.96 144.084Z" fill="#F2F2F2"/>
<path d="M234.561 31.73H131.67V83.489H234.561V31.73Z" stroke="#222222" stroke-width="0.5" stroke-miterlimit="10" stroke-linecap="round" stroke-linejoin="round"/>
<path d="M183.115 36.1221H140.4V79.0981H183.115V36.1221Z" fill="#EBEBEB"/>
<path d="M140.4 36.1221L183.115 79.0971" stroke="#222222" stroke-width="0.5" stroke-miterlimit="10" stroke-linecap="round" stroke-linejoin="round"/>
<path d="M183.115 36.1221L140.4 79.0971" stroke="#222222" stroke-width="0.5" stroke-miterlimit="10" stroke-linecap="round" stroke-linejoin="round"/>
<path d="M223.895 39.2578H191.898V43.9628H223.895V39.2578Z" fill="#EBEBEB"/>
<path d="M223.895 46.4731H191.898V47.5711H223.895V46.4731Z" fill="#222222"/>
<path d="M223.895 51.4922H191.898V52.5902H223.895V51.4922Z" fill="#222222"/>
<path d="M218.483 55.1001H191.898V58.0021H218.483V55.1001Z" fill="#EBEBEB"/>
<path d="M508.111 64.2808H424.746V72.5208H508.111V64.2808Z" fill="#EBEBEB"/>
<path d="M488.142 75.8159H438.123V109.065H488.142V75.8159Z" fill="#EBEBEB"/>
<path d="M472.171 82.9409H442.145V86.3339H472.171V82.9409Z" fill="#222222"/>
<path d="M467.882 87.9326H442.145V91.3256H467.882V87.9326Z" fill="#222222"/>
<path d="M485.088 79.209H481.356V82.941H485.088V79.209Z" fill="white"/>
<path d="M505.542 68.3997C505.542 69.6047 504.565 70.5807 503.361 70.5807C502.157 70.5807 501.18 69.6047 501.18 68.3997C501.18 67.1947 502.157 66.2188 503.361 66.2188C504.565 66.2188 505.542 67.1957 505.542 68.3997Z" fill="white"/>
<path d="M508.111 64.2808H424.746V134.85H508.111V64.2808Z" stroke="#222222" stroke-width="0.5" stroke-miterlimit="10" stroke-linecap="round" stroke-linejoin="round"/>
<path d="M288.846 294.395H224.588V402.59H288.846V294.395Z" fill="#6978ED"/>
<path d="M307.206 294.395H288.847V402.59H307.206V294.395Z" fill="#3F57E0"/>
<path d="M399.6 256.71H335.342V402.59H399.6V256.71Z" fill="#6978ED"/>
<path d="M417.959 256.71H399.6V402.59H417.959V256.71Z" fill="#3F57E0"/>
<path d="M510.354 210.164H446.095V402.59H510.354V210.164Z" fill="#6978ED"/>
<path d="M528.713 210.164H510.354V402.59H528.713V210.164Z" fill="#3F57E0"/>
<path d="M618.107 169.513H553.849V402.591H618.107V169.513Z" fill="#6978ED"/>
<path d="M636.467 169.513H618.108V402.591H636.467V169.513Z" fill="#3F57E0"/>
<path d="M1 402.418H671.631" stroke="#222222" stroke-width="0.5" stroke-miterlimit="10" stroke-linecap="round" stroke-linejoin="round"/>
<path d="M224.588 361.893V384.988C224.588 384.988 484.355 369.262 537.786 189.499L546.861 191.881L538.356 173.198L522.811 185.183L530.495 187.683C530.497 187.682 475.868 334.776 224.588 361.893Z" fill="#EBEBEB"/>
<path d="M153.207 206.788C160.515 202.709 158.704 201.097 158.704 201.097C158.704 201.097 150.866 205.354 150.55 205.526C148.295 206.756 147.038 206.894 152.25 203.918C158.192 200.524 157.185 198.22 157.185 198.22L147.397 203.124C155.447 197.707 153.771 195.699 153.771 195.699L142.479 202.253C143.228 194.68 140.189 193.55 140.334 195.919C140.385 196.75 140.216 197.877 139.975 198.991C139.529 201.056 138.552 202.955 137.267 204.633C135.692 206.689 135.306 209.035 135.306 209.035L115.421 216.066C115.421 216.066 112.811 190.289 110.494 178.631C110.494 178.631 106.814 167.672 96.2529 168.923C96.2529 168.923 99.3879 208.829 101.139 219.673C101.637 222.757 101.695 232.071 110.435 231.239C118.78 230.446 139.246 214.698 139.246 214.698C140.29 214.537 146.716 213.461 152.723 210.6C159.283 207.476 158.354 205.893 158.354 205.893C158.354 205.893 145.955 210.835 153.207 206.788Z" fill="#C1584F"/>
<path d="M97.3639 168.194C97.3179 168.199 97.2799 168.204 97.2339 168.209C97.3159 168.2 97.3639 168.194 97.3639 168.194Z" fill="#F97869"/>
<path d="M140.059 209.398C140.059 209.398 144.543 206.782 147.17 209.617" stroke="#222222" stroke-width="0.5" stroke-miterlimit="10" stroke-linecap="round" stroke-linejoin="round"/>
<path d="M145.666 202.491C145.965 202.507 148.779 206.064 150.337 209.275" stroke="#222222" stroke-width="0.5" stroke-miterlimit="10" stroke-linecap="round" stroke-linejoin="round"/>
<path d="M143.874 204.497L143.677 208.308" stroke="#222222" stroke-width="0.5" stroke-miterlimit="10" stroke-linecap="round" stroke-linejoin="round"/>
<path d="M93.979 166.268C93.979 166.268 94.235 166.296 94.687 166.371C104.02 167.918 111.249 175.386 112.641 184.743L117.031 214.243L132.467 209.617L136.241 216.935C136.241 216.935 121.307 232.938 106.125 232.938L93.979 166.268Z" fill="#6978ED"/>
<path d="M48.6379 377.571C47.8859 379.028 44.3049 380.692 44.3049 380.692C44.3049 380.692 43.1989 377.081 43.9509 375.624C44.7019 374.167 46.361 373.422 47.655 373.96C48.95 374.498 49.3899 376.115 48.6379 377.571Z" stroke="#020B31" stroke-width="0.5" stroke-miterlimit="10" stroke-linecap="round" stroke-linejoin="round"/>
<path d="M48.0073 383.381C46.5303 383.394 44.3223 380.728 44.3223 380.728C44.3223 380.728 47.4143 377.772 48.8913 377.758C50.3683 377.745 51.3673 378.993 51.1233 380.545C50.8793 382.098 49.4843 383.367 48.0073 383.381Z" stroke="#020B31" stroke-width="0.5" stroke-miterlimit="10" stroke-linecap="round" stroke-linejoin="round"/>
<path d="M43.872 374.435L43.786 374.249L54.597 354.194L42.269 340.64L29.353 368.414L31.679 374.953L43.872 374.435Z" fill="#F2F2F2"/>
<path d="M49.8962 397.355L61.0602 399.648L55.2362 394.411C52.8602 392.275 50.9422 389.679 49.5982 386.78L43.8722 374.435L38.6122 374.659C34.4902 374.834 30.7352 372.302 29.3522 368.415L21.1992 374.716L38.2072 391.184C41.4382 394.31 45.4922 396.451 49.8962 397.355Z" fill="#6978ED"/>
<path d="M21.2001 374.715C19.6621 375.797 19.5071 378.021 20.8811 379.306L37.1681 394.54C40.3501 397.516 44.2921 399.555 48.5601 400.431L57.9751 402.364C59.6501 402.708 61.1891 401.353 61.0591 399.648L49.8951 397.355C45.4911 396.451 41.4371 394.309 38.2071 391.182L21.2001 374.715Z" fill="#222222"/>
<path d="M110.438 385.941C110.847 387.528 109.284 391.155 109.284 391.155C109.284 391.155 106.054 389.197 105.645 387.61C105.235 386.023 105.976 384.363 107.3 383.902C108.623 383.441 110.028 384.354 110.438 385.941Z" stroke="#020B31" stroke-width="0.5" stroke-miterlimit="10" stroke-linecap="round" stroke-linejoin="round"/>
<path d="M113.836 390.695C112.743 391.688 109.32 391.17 109.32 391.17C109.32 391.17 109.658 386.905 110.75 385.912C111.843 384.919 113.419 385.184 114.271 386.505C115.123 387.825 114.928 389.702 113.836 390.695Z" stroke="#020B31" stroke-width="0.5" stroke-miterlimit="10" stroke-linecap="round" stroke-linejoin="round"/>
<path d="M136.067 398.841L104.506 386.967C102.922 387.488 101.458 388.123 100.17 388.769C96.3654 390.678 91.8784 390.657 88.1554 388.592L88.1424 388.585L86.0684 398.842H136.067V398.841Z" fill="#6978ED"/>
<path d="M100.171 388.768C101.459 388.122 102.922 387.487 104.507 386.966L105.622 354.889H89.9976L88.1436 388.584L88.1566 388.591C91.8786 390.656 96.3656 390.678 100.171 388.768Z" fill="#F2F2F2"/>
<path d="M86.0693 398.841V399.626C86.0693 401.264 87.3973 402.591 89.0343 402.591H133.492C134.914 402.591 136.066 401.439 136.066 400.017V398.841H86.0693Z" fill="#222222"/>
<path d="M105.209 234.48L107.555 381.332C107.555 381.332 102.047 386.967 86.0721 383.999L85.7151 312.004L83.5311 255.232L82.3911 254.776L77.6971 301.518C77.2551 305.923 76.1151 310.23 74.3201 314.278L49.0051 371.52C49.0051 371.52 34.7611 373.556 28.2861 362.922L51.4911 312.852C53.7601 308.187 55.1391 303.14 55.5601 297.97L60.2341 234.481L105.209 234.48Z" fill="#222222"/>
<path d="M83.5312 255.231L89.3843 258.407L85.4992 283.761L83.5312 255.231Z" fill="#222222"/>
<path d="M58.4512 260.232C58.4512 260.232 68.6942 262.415 71.0432 241.4" stroke="white" stroke-width="0.5" stroke-miterlimit="10" stroke-linecap="round" stroke-linejoin="round"/>
<path d="M59.832 240.078C59.832 240.078 89.77 244.852 105.281 239.031" stroke="white" stroke-width="0.5" stroke-miterlimit="10" stroke-linecap="round" stroke-linejoin="round"/>
<path d="M97.5863 241.028C97.5863 241.028 97.2973 258.912 105.209 258.821" stroke="white" stroke-width="0.5" stroke-miterlimit="10" stroke-linecap="round" stroke-linejoin="round"/>
<path d="M88.9953 165.481H76.3013C76.3013 165.481 62.6253 168.286 62.6253 181.022C62.6253 193.758 58.7593 236.515 58.7593 236.515C58.7593 236.515 80.8203 242.087 106.178 237.084L105.534 185.495L105.143 180.429C104.49 171.993 97.4553 165.481 88.9953 165.481Z" fill="#6978ED"/>
<path d="M106.178 237.083L105.534 185.494L105.143 180.428C104.491 171.993 97.4561 165.481 88.9961 165.481" stroke="#222222" stroke-width="0.5" stroke-miterlimit="10"/>
<path d="M101.745 136.358C100.385 133.604 97.16 134.548 97.16 134.548C97.16 134.548 97.616 125.95 90.802 121.601C84.918 117.845 78.395 117.491 72.923 121.443C68.787 124.431 68.222 129.395 68.471 133.025C65.853 133.076 63.57 134.096 62.601 136.886C60.591 142.675 65.186 145.072 65.186 145.072C65.186 145.072 62.767 150.378 68.621 152.153C74.475 153.928 78.822 160.628 78.822 160.628C78.822 160.628 89.996 152.224 95.194 151.838C103.962 151.186 100.201 141.779 100.201 141.779C100.201 141.779 103.482 139.875 101.745 136.358Z" fill="#222222"/>
<path d="M89.9609 166.49L89.2759 159.691C88.8789 159.812 88.6409 159.857 88.6409 159.857C88.6409 159.857 82.9159 160.684 78.6369 156.633L77.7959 166.314L88.6579 171.851L89.9609 166.49Z" fill="#C1584F"/>
<path d="M88.6408 159.857C88.6408 159.857 82.9158 160.684 78.6368 156.633L78.6348 156.754C78.8898 157.227 79.1558 157.649 79.4318 157.996C79.7878 158.445 80.1658 158.834 80.5518 159.199C83.7208 162.199 87.6778 162.523 89.5198 162.489L89.2768 159.69C88.8788 159.812 88.6408 159.857 88.6408 159.857Z" fill="#F47365"/>
<path d="M87.7051 128.757C87.7051 128.757 96.5181 134.15 97.4081 146.098C98.1581 156.172 91.4111 159.039 89.2761 159.691C88.8791 159.812 88.6411 159.857 88.6411 159.857C88.6411 159.857 82.9161 160.684 78.6371 156.633C78.2521 156.268 77.8741 155.878 77.5171 155.43C75.5941 153.012 74.0891 147.312 74.4891 141.797C74.4891 141.797 86.1441 137.274 87.7051 128.757Z" fill="#C1584F"/>
<path d="M82.5478 143.339C82.6068 143.92 83.1248 144.344 83.7068 144.286C84.2878 144.227 84.7118 143.709 84.6538 143.127C84.5948 142.546 84.0768 142.122 83.4948 142.18C82.9138 142.238 82.4898 142.757 82.5478 143.339Z" fill="#222222"/>
<path d="M83.7587 137.788C82.8957 138.028 81.8617 138.551 80.8877 139.645" stroke="#222222" stroke-width="0.5" stroke-miterlimit="10" stroke-linecap="round" stroke-linejoin="round"/>
<path d="M93.0947 142.276C93.1537 142.857 92.7297 143.376 92.1477 143.435C91.5657 143.494 91.0477 143.07 90.9887 142.488C90.9307 141.906 91.3537 141.388 91.9357 141.329C92.5167 141.271 93.0357 141.694 93.0947 142.276Z" fill="#222222"/>
<path d="M93.511 140.419C92.651 140.167 91.625 139.629 90.667 138.521" stroke="#222222" stroke-width="0.5" stroke-miterlimit="10" stroke-linecap="round" stroke-linejoin="round"/>
<path d="M87.5879 140.707C87.5879 140.707 87.6339 142.824 89.6149 144.471C92.0309 146.479 91.3039 147.4 89.3609 148.358" stroke="#222222" stroke-width="0.5" stroke-miterlimit="10" stroke-linecap="round" stroke-linejoin="round"/>
<path opacity="0.5" d="M80.8068 146.646C81.4638 145.753 82.3198 146.838 82.3198 146.838C82.3198 146.838 82.9108 145.433 83.7578 146.125C84.4918 146.725 83.4718 148.827 82.7968 148.96C82.1228 149.093 80.2458 147.409 80.8068 146.646Z" fill="#F43D4F"/>
<path opacity="0.5" d="M95.556 147.973C95.069 146.977 94.033 147.892 94.033 147.892C94.033 147.892 93.703 146.404 92.745 146.934C91.915 147.393 92.545 149.643 93.184 149.895C93.825 150.146 95.973 148.824 95.556 147.973Z" fill="#F43D4F"/>
<path d="M89.4719 151.389C89.4719 151.389 86.4409 152.319 84.6929 149.441" stroke="#222222" stroke-width="0.5" stroke-miterlimit="10" stroke-linecap="round" stroke-linejoin="round"/>
<path d="M74.106 150.182C74.106 150.182 69.852 150.34 69.375 145.94C68.894 141.506 73.246 142.036 73.246 142.036C73.246 142.036 72.773 145.266 74.106 150.182Z" fill="#C1584F"/>
<path d="M72.2358 143.665C72.2358 143.665 70.5379 143.596 70.1729 145.489" stroke="#222222" stroke-width="0.5" stroke-miterlimit="10" stroke-linecap="round" stroke-linejoin="round"/>
<path d="M71.259 144.103C71.259 144.103 70.991 145.953 72.428 147.342" stroke="#222222" stroke-width="0.5" stroke-miterlimit="10" stroke-linecap="round" stroke-linejoin="round"/>
<path d="M62.2 192.075C62.2 192.075 64.747 191.566 69.338 184.401L59.832 223.092L62.2 192.075Z" fill="#6978ED"/>
<path d="M73.7632 166.268C73.7632 166.268 75.2112 175.111 87.5892 176.633L88.6582 171.852L93.1002 174.894C93.1002 174.894 96.6892 174.544 95.6092 166.892" stroke="#222222" stroke-width="0.5" stroke-miterlimit="10"/>
<path d="M88.6582 171.852L87.7002 176.135L90.5632 178.372L92.8142 174.698L88.6582 171.852Z" fill="#222222"/>
<path d="M87.689 215.933L88.926 175.289L91.096 174.904C94.185 187.642 95.668 215.689 95.668 215.689L92.059 220.118L87.689 215.933Z" fill="#222222"/>
<path d="M61.0599 260.297C61.0599 260.297 59.9489 303.709 58.4509 307.078C56.9529 310.447 30.5439 365.853 30.5439 365.853" stroke="white" stroke-width="0.5" stroke-miterlimit="10" stroke-linecap="round" stroke-linejoin="round"/>
<path d="M83.5312 255.231C83.5312 255.231 90.4392 299.586 90.7412 313.463C91.0432 327.34 90.8753 384.862 90.8753 384.862" stroke="white" stroke-width="0.5" stroke-miterlimit="10" stroke-linecap="round" stroke-linejoin="round"/>
<path d="M49.2741 157.17L47.3081 123.726L47.3321 123.721C47.3321 123.721 49.1941 121.546 49.3011 117.883C49.4081 114.22 50.7291 108.013 50.7291 108.013C50.7291 108.013 49.2851 107.238 48.2461 111.355C47.2071 115.472 46.4801 114.407 46.4801 114.407L42.4521 100.511C42.4521 100.511 40.1711 100.203 42.7681 109.649L38.8411 100.024C38.8411 100.024 37.6751 100.06 37.6981 101.321L37.3651 100.438C37.3651 100.438 35.4111 100.819 37.4351 107.575C38.7741 112.045 38.3281 112.437 36.9761 109.545C35.6241 106.653 34.5251 104.763 33.4971 105.205L39.0541 122.113C39.9311 124.422 41.4191 124.883 41.4191 124.883L41.4231 124.882L35.5081 148.703C34.2821 153.642 35.6471 158.866 39.1341 162.573L62.4441 187.355L72.7011 166.859L49.2741 157.17Z" fill="#C1584F"/>
<path d="M46.4803 114.407C46.4803 114.407 43.5043 115.312 43.5543 119.963" stroke="#222222" stroke-width="0.5" stroke-miterlimit="10" stroke-linecap="round" stroke-linejoin="round"/>
<path d="M43.8803 109.654C43.8803 109.654 40.4873 109.342 37.7803 112.557" stroke="#222222" stroke-width="0.5" stroke-miterlimit="10" stroke-linecap="round" stroke-linejoin="round"/>
<path d="M37.6982 101.321L40.5682 110.375" stroke="#222222" stroke-width="0.5" stroke-miterlimit="10" stroke-linecap="round" stroke-linejoin="round"/>
<path d="M38.2402 163.692C47.2612 175.919 62.2012 192.075 62.2012 192.075L75.9992 165.593L54.8422 158.6L50.2592 156.633L48.2302 126.63L40.8312 127.274L35.3862 149.077C34.1232 154.131 35.1472 159.5 38.2402 163.692Z" fill="#6978ED"/>
<path d="M50.2581 156.633L42.1421 157.719" stroke="#222222" stroke-width="0.5" stroke-miterlimit="10" stroke-linecap="round" stroke-linejoin="round"/>
<path d="M40.8301 127.275L41.4241 124.884L47.3081 123.726L47.4831 126.695L40.8301 127.275Z" fill="#F2F2F2"/>
<path d="M40.0762 130.978H48.5232" stroke="#222222" stroke-width="0.5" stroke-miterlimit="10" stroke-linecap="round" stroke-linejoin="round"/>
<path d="M113.55 220.842C114.306 215.442 116.96 214.419 116.96 214.419L111.522 216.264" stroke="#222222" stroke-width="0.5" stroke-miterlimit="10" stroke-linecap="round" stroke-linejoin="round"/>
<path d="M132.651 209.974L135.306 209.035L139.245 214.698L136.242 216.935L132.651 209.974Z" fill="#F2F2F2"/>
<path d="M129.075 210.634L132.913 220.119" stroke="#222222" stroke-width="0.5" stroke-miterlimit="10" stroke-linecap="round" stroke-linejoin="round"/>
<path d="M102.148 207.501H175.235V203.021H106.628C104.154 203.021 102.148 205.026 102.148 207.501Z" fill="#676768"/>
<path d="M175.234 207.501H127.655L141.604 172.238H189.183L175.234 207.501Z" fill="#7C7C7C"/>
<path d="M163.113 189.573C163.113 190.869 162.063 191.919 160.767 191.919C159.471 191.919 158.42 190.869 158.42 189.573C158.42 188.277 159.471 187.227 160.767 187.227C162.063 187.227 163.113 188.277 163.113 189.573Z" fill="white"/>
<path d="M40.0762 114.094L44.1562 116.741" stroke="#222222" stroke-width="0.5" stroke-miterlimit="10" stroke-linecap="round" stroke-linejoin="round"/>
<path d="M214.594 117.983L198.179 150.359L242.719 172.941L259.134 140.565L214.594 117.983Z" fill="#6978ED"/>
<path d="M211.571 116.437L191.225 146.821L198.176 150.345L214.59 117.968L211.571 116.437Z" fill="#222222"/>
<path d="M206.893 133.15L251.434 155.731" stroke="white" stroke-width="0.5" stroke-miterlimit="10" stroke-linecap="round" stroke-linejoin="round"/>
<path d="M228.675 125.108C231.057 120.41 236.795 118.533 241.493 120.914C246.191 123.296 248.068 129.034 245.687 133.732" stroke="#020B31" stroke-miterlimit="10"/>
<path d="M219.819 142.577C219.188 142.257 218.935 141.486 219.255 140.854L220.414 138.567C220.734 137.935 221.505 137.683 222.137 138.003C222.768 138.323 223.021 139.094 222.701 139.726L221.542 142.013C221.222 142.645 220.45 142.897 219.819 142.577Z" fill="#020B31"/>
<path d="M236.831 151.201C236.199 150.881 235.947 150.11 236.267 149.478L237.426 147.191C237.746 146.559 238.517 146.307 239.149 146.627C239.78 146.947 240.033 147.718 239.713 148.35L238.554 150.637C238.233 151.269 237.462 151.521 236.831 151.201Z" fill="#020B31"/>
<path d="M369.226 246.248C369.257 246.16 369.285 246.068 369.318 245.983C370.605 242.577 371.235 232.32 371.219 226.317L384.582 228.384L384.147 240.631C384.074 242.686 384.645 245.613 386.604 246.239C389.245 247.084 393.198 248.151 396.783 249.283C395.498 250.313 393.535 251.373 390.845 251.431C386.545 251.523 375.725 246.767 369.226 246.248Z" fill="#F2F2F2"/>
<path d="M256.117 258.057C256.199 258.012 256.281 257.963 256.362 257.921C259.595 256.245 266.912 249.031 270.91 244.552L279.476 255.014L270.974 263.84C269.547 265.321 268.018 267.881 269.058 269.655C270.459 272.047 272.689 275.481 274.602 278.718C272.958 278.627 270.789 278.105 268.748 276.351C265.486 273.549 260.608 262.783 256.117 258.057Z" fill="#F2F2F2"/>
<path d="M405.58 249.745L384.205 237.054L380.642 239.615C380.642 239.615 380.085 244.179 376.857 244.513C373.628 244.847 370.177 240.394 370.177 240.394C366.498 243.656 366.498 249.299 367.019 253.085H415.101C411.602 251.024 405.58 249.745 405.58 249.745Z" fill="#6978ED"/>
<path d="M275.261 281.693L273.844 262.18L269.707 260.72C269.707 260.72 265.643 262.871 263.524 260.413C261.405 257.954 263.087 252.578 263.087 252.578C258.307 251.423 253.677 254.648 250.868 257.239L267.6 284.275L279.197 290.39C278.889 286.338 275.261 281.693 275.261 281.693Z" fill="#6978ED"/>
<path d="M393.846 242.778L389.299 245.209" stroke="#222222" stroke-width="0.5" stroke-miterlimit="10" stroke-linecap="round" stroke-linejoin="round"/>
<path d="M397.86 245.209L393.312 247.639" stroke="#222222" stroke-width="0.5" stroke-miterlimit="10" stroke-linecap="round" stroke-linejoin="round"/>
<path d="M417.492 256.982V255.535C417.26 254.635 416.336 253.812 415.102 253.086H367.02C367.335 255.372 367.84 256.982 367.84 256.982H417.492Z" fill="#222222"/>
<path d="M274.656 273.363L270.063 271.02" stroke="#222222" stroke-width="0.5" stroke-miterlimit="10" stroke-linecap="round" stroke-linejoin="round"/>
<path d="M274.956 278.046L270.362 275.702" stroke="#222222" stroke-width="0.5" stroke-miterlimit="10" stroke-linecap="round" stroke-linejoin="round"/>
<path d="M279.198 290.389C279.198 290.389 280.665 292.566 279.826 294.158L264.364 286.005L247.849 257.803C247.849 257.803 248.5 256.424 250.869 257.239L267.601 284.275L279.198 290.389Z" fill="#222222"/>
<path d="M325.522 98.0527C333.178 103.439 342.63 105.637 351.877 104.18L378.074 100.054C378.074 100.054 387.457 99.6727 389.45 99.6067C391.744 99.5307 391.592 98.2297 391.592 98.2297L385.856 97.3887C385.856 97.3887 393.257 97.9217 393.872 95.2027L385.457 94.7467C385.457 94.7467 394.687 93.3927 393.918 91.0647L385.113 91.4237C385.113 91.4237 392.468 89.5037 391.614 87.3737L379.721 89.1777L382.209 83.2347C382.209 83.2347 379.796 81.8627 375.76 88.8887C374.751 90.6447 364.775 91.6257 352.25 91.9787C345.685 92.1637 339.187 90.5817 333.463 87.3617L332.361 86.7417L325.522 98.0527Z" fill="#FB7869"/>
<path d="M320.021 100.888L311.618 97.5131L307.489 80.3511C307.489 80.3511 313.956 76.9091 321.757 80.3511C329.558 83.7931 343.555 90.4471 343.555 90.4471C350.683 91.2661 372.544 90.2761 372.544 90.2761C372.544 90.2761 373.969 96.9191 372.544 102.281L361.688 104.554C347.742 107.474 333.243 106.199 320.021 100.888Z" fill="#6978ED"/>
<path d="M304.802 164.876L305.65 198.476C305.65 198.476 305.624 203.472 299.658 209.667C293.692 215.862 265.47 245.691 265.47 245.691C265.47 245.691 268.223 261.982 275.107 265.883L323.062 217.698C323.062 217.698 331.322 212.421 331.093 198.424C330.969 190.869 330.98 180.11 331.017 171.802C322.177 171.746 315.431 171.089 311.054 168.901C308.592 167.67 306.537 166.307 304.802 164.876Z" fill="#222222"/>
<path d="M374.689 143.661H296.217C296.217 143.661 293.721 155.728 304.803 164.875C306.537 166.307 308.593 167.669 311.055 168.9C315.431 171.088 322.177 171.744 331.018 171.801C331.448 171.804 331.878 171.807 332.318 171.807C341.802 171.807 372.089 171.807 372.089 171.807L367.653 231.158C376.678 236.818 389.833 236.053 389.833 236.053L396.411 162.17C394.574 142.591 374.689 143.661 374.689 143.661Z" fill="#222222"/>
<path d="M303.406 143.661C303.406 143.661 302.44 165.894 325.639 165.894C348.837 165.894 378.36 165.894 378.36 165.894L371.831 233.252" stroke="white" stroke-width="0.5" stroke-miterlimit="10" stroke-linecap="round" stroke-linejoin="round"/>
<path d="M307.489 157.64L319.276 143.651" stroke="white" stroke-width="0.5" stroke-miterlimit="10" stroke-linecap="round" stroke-linejoin="round"/>
<path d="M372.088 171.807C372.088 171.807 374.803 168.136 380.425 164.12" stroke="white" stroke-width="0.5" stroke-miterlimit="10" stroke-linecap="round" stroke-linejoin="round"/>
<path d="M372.02 172.723C372.03 172.583 376.295 170.316 381.917 169.513" stroke="white" stroke-width="0.5" stroke-miterlimit="10" stroke-linecap="round" stroke-linejoin="round"/>
<path d="M318.749 171.061C318.553 171.917 318.034 187.902 317.749 197.097C317.622 201.209 315.988 205.125 313.157 208.111L268.156 255.581" stroke="white" stroke-width="0.5" stroke-miterlimit="10" stroke-linecap="round" stroke-linejoin="round"/>
<path d="M305.65 198.476C305.65 198.476 309.69 198.872 312.584 201.942" stroke="white" stroke-width="0.5" stroke-miterlimit="10" stroke-linecap="round" stroke-linejoin="round"/>
<path d="M305.65 199.724C305.65 199.724 309.411 201.585 311.284 204.848" stroke="white" stroke-width="0.5" stroke-miterlimit="10" stroke-linecap="round" stroke-linejoin="round"/>
<path d="M383.79 90.2759C383.79 90.2759 386.161 93.3349 385.702 98.3829" stroke="#222222" stroke-width="0.5" stroke-miterlimit="10" stroke-linecap="round" stroke-linejoin="round"/>
<path d="M381.285 91.3848C381.285 91.3848 380.826 94.0238 377.155 95.3428" stroke="#222222" stroke-width="0.5" stroke-miterlimit="10" stroke-linecap="round" stroke-linejoin="round"/>
<path d="M379.458 94.0791L383.178 98.0391" stroke="#222222" stroke-width="0.5" stroke-miterlimit="10" stroke-linecap="round" stroke-linejoin="round"/>
<path d="M240.44 112.702C245.77 107.553 272.605 82.0001 280.99 81.2681L283.051 94.3231L281.808 94.5591C275.424 95.7711 269.473 98.6731 264.622 102.996C255.193 111.396 248.337 118.616 248.48 120.647C248.773 124.797 246.586 126.298 246.586 126.298L245.258 123.587C244.58 123.961 243.791 124.07 243.038 123.889C241.704 123.568 239.644 122.685 238.14 120.253C237.29 118.876 237.949 115.108 240.44 112.702Z" fill="#FB7869"/>
<path d="M250.102 117.439C242.332 113.909 242.092 110.629 242.092 110.629C249.423 97.959 263.389 88.009 271.912 82.77C284.438 75.071 299.816 73.118 313.624 78.171C314.109 78.349 314.592 78.534 315.073 78.728L315.355 78.841L324.345 106.185L331.098 143.662H296.217L284.448 95.76C284.448 95.76 274.285 97.056 265.607 103.587C256.927 110.117 250.102 117.439 250.102 117.439Z" fill="#6978ED"/>
<path d="M300.918 67.5698V75.7248L311.702 81.2668L315.073 78.7278L313.344 67.5698H300.918Z" fill="#FB7869"/>
<path d="M300.918 67.5698L300.94 68.0868C303.421 71.2338 308.038 74.0378 314.241 73.3628L313.344 67.5708L300.918 67.5698Z" fill="#FB7869"/>
<path d="M315.579 41.491C317.405 43.53 318.303 46.525 319.137 49.132C320.914 54.69 324.092 67.582 315.048 70.15C303.764 73.355 299.266 66.386 296.596 61.807C293.926 57.231 292.938 45.006 301.852 40.313C308.45 36.839 312.924 38.527 315.579 41.491Z" fill="#FB7869"/>
<path d="M311.702 52.6909C311.702 52.6909 312.203 54.5029 314.451 55.9799C317.084 57.7099 316.7 58.5159 314.985 59.8489" stroke="#222222" stroke-width="0.5" stroke-miterlimit="10" stroke-linecap="round" stroke-linejoin="round"/>
<path opacity="0.5" d="M305.77 58.396C306.236 57.386 307.294 58.279 307.294 58.279C307.294 58.279 307.591 56.78 308.563 57.289C309.405 57.73 308.826 60 308.19 60.267C307.556 60.534 305.372 59.259 305.77 58.396Z" fill="#F43D4F"/>
<path opacity="0.5" d="M320.495 57.1237C319.816 56.2437 318.983 57.3507 318.983 57.3507C318.983 57.3507 318.359 55.9557 317.525 56.6687C316.803 57.2867 317.874 59.3697 318.553 59.4887C319.233 59.6067 321.076 57.8757 320.495 57.1237Z" fill="#F43D4F"/>
<path d="M315.704 62.804C315.704 62.804 312.915 64.328 310.618 61.853" stroke="#222222" stroke-width="0.5" stroke-miterlimit="10" stroke-linecap="round" stroke-linejoin="round"/>
<path d="M315.318 48.3478C316.213 48.2718 317.367 48.4018 318.664 49.0898" stroke="#222222" stroke-width="0.5" stroke-miterlimit="10" stroke-linecap="round" stroke-linejoin="round"/>
<path d="M308.222 49.2168C307.335 49.3588 306.247 49.7638 305.153 50.7438" stroke="#222222" stroke-width="0.5" stroke-miterlimit="10" stroke-linecap="round" stroke-linejoin="round"/>
<path d="M309.624 53.7709C309.624 54.3549 309.151 54.8279 308.567 54.8279C307.983 54.8279 307.51 54.3549 307.51 53.7709C307.51 53.1869 307.983 52.7139 308.567 52.7139C309.15 52.7129 309.624 53.1869 309.624 53.7709Z" fill="#222222"/>
<path d="M317.163 52.5516C317.163 53.1356 316.69 53.6086 316.106 53.6086C315.522 53.6086 315.049 53.1356 315.049 52.5516C315.049 51.9676 315.522 51.4946 316.106 51.4946C316.689 51.4946 317.163 51.9676 317.163 52.5516Z" fill="#222222"/>
<path d="M325.27 40.5199C323.907 38.0119 320.47 41.4349 321.83 39.2209C323.799 36.0139 321.3 32.8559 316.723 35.9029C312.146 38.9499 304.484 29.8949 297.249 35.0409C290.014 40.1869 293.572 45.7669 293.572 45.7669C293.572 45.7669 289.081 45.8879 288.631 50.8749C287.879 59.2079 300.95 59.2079 300.95 59.2079C300.721 56.0419 298.071 47.9329 298.071 47.9329C302.148 40.1459 312.331 45.8929 316.836 46.4789L319.512 49.8379L318.795 46.4449C322.647 45.9449 326.718 43.1839 325.27 40.5199Z" fill="#222222"/>
<path d="M298.055 54.095C296.808 53.782 294.883 53.804 293.481 56.144C290.75 60.701 297.88 65.175 301.32 63.325C300.685 62.145 300.402 61.312 300.402 61.312C299.236 58.699 298.475 56.294 298.055 54.095Z" fill="#FB7869"/>
<path d="M295.38 59.2499C295.38 59.2499 295.071 56.9559 296.872 56.1069" stroke="#222222" stroke-width="0.5" stroke-miterlimit="10" stroke-linecap="round" stroke-linejoin="round"/>
<path d="M295.909 56.9141C295.909 56.9141 296.141 59.5381 299.404 61.1081" stroke="#222222" stroke-width="0.5" stroke-miterlimit="10" stroke-linecap="round" stroke-linejoin="round"/>
<path d="M331.098 143.661L325.532 112.772C324.742 108.386 323.647 104.06 322.254 99.8258L315.354 78.8408" stroke="#222222" stroke-width="0.5" stroke-miterlimit="10" stroke-linecap="round" stroke-linejoin="round"/>
<path d="M284.448 95.7587L292.145 126.647L290.072 95.4707L284.448 95.7587Z" fill="#6978ED"/>
<path d="M296.872 75.3857C296.976 82.0787 308.567 85.8677 308.567 85.8677L311.702 81.2677L315.355 84.5997L316.65 82.7797" stroke="#222222" stroke-width="0.5" stroke-miterlimit="10"/>
<path d="M314.557 83.8721L311.701 81.2671L309.538 84.4411L311.649 86.8381C309.843 90.6651 304.356 93.2931 295.909 87.4981C286.266 80.8821 275.135 84.9981 271.005 88.8021L277.092 93.0791C277.092 93.0791 286.006 87.7151 295.36 94.2371C303.998 100.26 316.633 98.2221 313.44 86.3931L314.557 83.8721Z" fill="#222222"/>
<path d="M244.698 106.603C244.698 106.603 247.986 111.91 253.499 114.016" stroke="#222222" stroke-width="0.5" stroke-miterlimit="10" stroke-linecap="round" stroke-linejoin="round"/>
<path d="M244.609 110.164C244.273 110.642 243.808 110.893 243.569 110.725C243.33 110.557 243.408 110.034 243.744 109.556C244.08 109.078 244.545 108.827 244.784 108.995C245.023 109.163 244.944 109.686 244.609 110.164Z" fill="#222222"/>
<path d="M366.879 90.4941C366.879 90.4941 369.379 94.7461 367.35 103.369" stroke="#222222" stroke-width="0.5" stroke-miterlimit="10" stroke-linecap="round" stroke-linejoin="round"/>
<path d="M540.785 100.002C537.744 86.7111 551.171 89.4641 548.12 76.1301C545.07 62.7971 564.354 58.8841 556.603 52.6171C548.852 46.3501 549.067 31.8661 555.972 25.8981C562.877 19.9301 569.592 27.0491 569.592 27.0491C575.84 31.6461 563.513 39.8641 561.301 34.1031C559.089 28.3431 561.468 16.5801 574.752 17.7451C582.743 18.4461 584.949 24.7691 585.54 28.7801C585.784 30.4371 587.021 31.7961 588.663 32.1281C590.417 32.4821 592.997 31.6951 595.325 34.3421C599.981 39.6351 593.116 43.6911 596.057 47.9401C598.998 52.1891 612.733 51.9891 610.445 64.5771C608.157 77.1651 632.897 73.2111 628.525 91.2591L540.785 100.002Z" fill="#222222"/>
<path d="M562.849 67.6611C562.849 67.6611 553.212 70.4721 549.299 89.4471C546.145 104.741 545.794 107.994 544.386 114.125C543.728 116.989 541.7 122.43 549.299 124.803C556.897 127.176 558.515 116.35 559.296 114.125C560.011 112.088 561.891 105.214 563.703 98.4231C566.404 88.3021 566.11 77.6151 562.849 67.6611Z" fill="#6978ED"/>
<path d="M533.39 67.395C533.39 67.395 531.466 66.644 531.701 64.624C531.701 64.624 538.625 65.618 542.637 66.194C543.642 66.338 544.725 66.9 545.135 67.202C547.199 68.726 546.429 72.853 546.894 76.463C547.359 80.073 548.051 85.327 548.051 85.327L553.088 117.304C553.088 117.304 554.503 123.073 547.806 123.722C544.689 124.024 543.203 120.907 542.562 118.307C541.652 114.614 541.28 112.852 540.722 109.792C539.675 104.051 533.39 67.395 533.39 67.395Z" fill="#F47365"/>
<path d="M506.571 59.981C508.236 67.413 512.979 72.677 517.165 71.739C521.351 70.801 523.395 64.016 521.73 56.585C520.065 49.153 515.322 43.889 511.136 44.827C506.95 45.765 504.906 52.55 506.571 59.981Z" fill="#7C7C7C"/>
<path d="M513.557 51.958L537.324 49.606L538.996 60.911L516.292 64.165L513.557 51.958Z" fill="#A6A6A6"/>
<path d="M511.486 58.8322C512.241 62.2032 514.393 64.5912 516.292 64.1662C518.191 63.7412 519.118 60.6632 518.363 57.2922C517.608 53.9212 515.456 51.5332 513.557 51.9582C511.658 52.3832 510.731 55.4612 511.486 58.8322Z" fill="#F4F4F4"/>
<path d="M541.193 63.105L544.387 85.605L535.357 85.345L532.244 63.412L541.193 63.105Z" fill="#6978ED"/>
<path d="M535.842 55.9867C536.845 60.4637 539.702 63.6347 542.224 63.0697C544.746 62.5047 545.977 58.4177 544.974 53.9407C543.971 49.4637 541.114 46.2927 538.592 46.8577C536.071 47.4227 534.84 51.5097 535.842 55.9867Z" fill="#6978ED"/>
<path d="M521.73 56.5848C520.508 51.1298 517.627 46.8548 514.525 45.3308L514.523 45.3218L529.832 48.5588L538.591 46.8588L541.192 63.1048L532.246 63.4098L519.447 70.4718L519.445 70.4618C522.027 67.9868 523.055 62.4958 521.73 56.5848Z" fill="#6978ED"/>
<path d="M542.951 73.64C538.05 74.142 536.276 69.091 536.276 69.091C536.276 69.091 534.18 68.023 533.389 67.396C533.389 67.396 531.217 66.309 531.7 64.625L542.636 66.195" fill="#F47365"/>
<path d="M533.243 68.7859C533.243 68.7859 533.842 70.1509 535.929 71.1439C538.016 72.1369 537.64 73.9899 537.64 73.9899C537.64 73.9899 533.922 73.5099 531.3 72.7959C528.678 72.0829 527.964 71.5369 527.783 69.4099C527.567 66.8659 532.582 65.8149 532.582 65.8149L532.934 68.2659L533.243 68.7859Z" fill="#F47365"/>
<path d="M532.091 69.2241C532.091 69.2241 527.723 70.2431 527.956 72.6171C528.165 74.7421 528.852 75.2901 531.473 76.0031C534.095 76.7161 537.813 77.1971 537.813 77.1971C537.813 77.1971 538.189 75.3441 536.102 74.3511C534.015 73.3581 533.728 71.6091 533.728 71.6091" fill="#F47365"/>
<path d="M532.034 71.9648C532.034 71.9648 527.666 72.9838 527.899 75.3578C528.108 77.4828 528.794 78.0308 531.416 78.7438C534.038 79.4568 537.756 79.9378 537.756 79.9378C537.756 79.9378 538.132 78.0838 536.045 77.0918C533.958 76.0988 533.671 74.3498 533.671 74.3498" fill="#F47365"/>
<path d="M532.065 74.6011C532.065 74.6011 527.929 75.5661 528.149 77.8141C528.346 79.8261 528.997 80.3451 531.48 81.0211C533.963 81.6971 537.484 82.1521 537.484 82.1521C537.484 82.1521 537.84 80.3971 535.864 79.4571C533.887 78.5171 533.616 76.8601 533.616 76.8601" fill="#F47365"/>
<path d="M531.827 66.0361C531.827 66.0361 527.549 67.0351 527.782 69.4091C527.99 71.5341 528.677 72.0821 531.299 72.7951C533.921 73.5081 537.639 73.9891 537.639 73.9891C537.639 73.9891 538.015 72.1361 535.928 71.1431C533.841 70.1501 532.932 68.2651 532.932 68.2651" stroke="#020B31" stroke-width="0.5" stroke-miterlimit="10" stroke-linecap="round" stroke-linejoin="round"/>
<path d="M528.339 71.29C528.062 71.674 527.906 72.115 527.955 72.617C528.164 74.742 528.851 75.29 531.472 76.003C534.094 76.716 537.812 77.197 537.812 77.197C537.812 77.197 538.188 75.344 536.101 74.351C535.618 74.121 535.231 73.851 534.923 73.572" stroke="#020B31" stroke-width="0.5" stroke-miterlimit="10" stroke-linecap="round" stroke-linejoin="round"/>
<path d="M528.252 74.0771C527.995 74.4501 527.852 74.8771 527.9 75.3591C528.109 77.4841 528.795 78.0321 531.417 78.7451C534.039 79.4581 537.757 79.9391 537.757 79.9391C537.757 79.9391 538.133 78.0851 536.046 77.0931C535.896 77.0221 535.755 76.9461 535.623 76.8681" stroke="#020B31" stroke-width="0.5" stroke-miterlimit="10" stroke-linecap="round" stroke-linejoin="round"/>
<path d="M542.951 73.6398C538.05 74.1418 536.276 69.0908 536.276 69.0908C536.276 69.0908 534.34 67.9678 533.389 67.3958C533.389 67.3958 531.313 66.3568 531.671 64.7368" stroke="#020B31" stroke-width="0.5" stroke-miterlimit="10" stroke-linecap="round" stroke-linejoin="round"/>
<path d="M528.256 77.0259C528.163 77.2689 528.121 77.5319 528.149 77.8149C528.346 79.8269 528.997 80.3459 531.48 81.0219C533.963 81.6979 537.484 82.1529 537.484 82.1529C537.484 82.1529 537.778 80.7039 536.35 79.7339" stroke="#020B31" stroke-width="0.5" stroke-miterlimit="10" stroke-linecap="round" stroke-linejoin="round"/>
<path d="M572.283 178.779L572.467 177.893L574.3 169.067C573.203 168.466 572.396 167.727 572.557 166.884C572.672 166.284 573.035 165.947 573.512 165.778C575.442 165.094 576.981 163.671 577.723 161.763C578.734 159.164 580.687 157.729 580.687 157.729L582.543 158.543L584.08 159.217C587.217 159.477 590.221 160.601 592.757 162.465L592.852 162.535L588.725 169.506L585.111 175.609L577.908 187.774C574.571 190.593 570.192 188.835 570.192 188.835L572.283 178.779Z" fill="#7F8284"/>
<path d="M571.647 165.05L537.532 145.753L546.501 135.821C546.501 135.821 571.318 152.674 577.413 157.212C574.688 163.248 571.647 165.05 571.647 165.05Z" fill="#F47365"/>
<path d="M572.63 166.623L571.646 165.05C571.646 165.05 574.688 163.248 577.413 157.212C579.193 158.537 580.133 157.714 581.039 158.425L579.521 162.237C578.41 165.031 575.632 166.799 572.63 166.623Z" fill="white"/>
<path d="M570.194 188.835C570.194 188.835 574.573 190.594 577.91 187.774L585.113 175.609L588.727 169.506L592.854 162.535L594.64 163.158L590.329 170.44L586.554 176.816L579.773 188.269C576.708 193.446 569.606 190.38 569.606 190.38L570.194 188.835Z" fill="#222222"/>
<path d="M575.231 163.382C574.33 164.38 573.307 165.339 572.211 166.196L571.898 165.796C574.981 163.382 577.463 160.166 578.221 157.601L578.708 157.746C578.196 159.484 576.929 161.502 575.231 163.382Z" fill="#020B31"/>
<path d="M543.31 128.056C554.264 127.168 600.448 139.01 600.448 139.01L606.859 169.416C593.534 167.196 583.53 162.949 576.323 158.663L572.915 168.319C572.915 168.319 547.751 162.102 537.093 150.26C526.435 138.418 532.356 128.944 543.31 128.056Z" fill="#111111"/>
<path d="M584.009 145.617C572.921 142.465 545.964 129.964 542.446 137.825C539.535 144.332 547.045 148.461 575.089 162.156" stroke="white" stroke-width="0.5" stroke-miterlimit="10"/>
<path d="M576.323 158.663C576.323 158.663 562.997 150.704 559.297 144.635" stroke="white" stroke-width="0.5" stroke-miterlimit="10" stroke-linecap="round" stroke-linejoin="round"/>
<path d="M580.909 62.0361C580.909 62.0361 598.672 58.1871 606.666 80.0951C614.659 102.003 614.659 108.22 625.317 122.727C635.975 137.234 635.975 152.036 635.975 152.036C635.975 152.036 602.225 141.378 577.357 137.825C577.357 137.825 569.956 114.733 565.515 109.7C565.515 109.7 556.041 110.588 557.675 101.363C557.675 101.363 561.37 82.1671 562.85 67.6611C562.85 67.6611 570.251 62.9241 580.909 62.0361Z" fill="#6978ED"/>
<path d="M606.663 80.1042C605.043 86.4732 606.043 93.2222 609.596 98.7512C612.41 103.131 615.892 108.477 619.373 113.639C614.23 104.475 612.797 96.9012 606.665 80.0952C606.665 80.0952 606.664 80.0982 606.663 80.1042Z" fill="#6978ED"/>
<path d="M577.356 137.825C577.356 137.825 569.955 114.733 565.514 109.7C565.514 109.7 556.04 110.588 557.674 101.363C557.674 101.363 561.369 82.1671 562.849 67.6611" stroke="#222222" stroke-width="0.5" stroke-miterlimit="10" stroke-linecap="round" stroke-linejoin="round"/>
<path d="M583.577 103.775C583.577 103.775 591.67 105.933 596.327 100.109" stroke="#222222" stroke-width="0.5" stroke-miterlimit="10" stroke-linecap="round" stroke-linejoin="round"/>
<path d="M571.258 73.892C571.306 74.314 571.003 74.695 570.581 74.744C570.159 74.792 569.777 74.489 569.729 74.067C569.681 73.645 569.984 73.263 570.406 73.215C570.828 73.167 571.21 73.47 571.258 73.892Z" fill="#222222"/>
<path d="M571.91 78.3489C571.958 78.7709 571.655 79.1519 571.233 79.2009C570.811 79.2489 570.429 78.9459 570.381 78.5239C570.333 78.1019 570.636 77.7209 571.058 77.6729C571.481 77.6229 571.862 77.9269 571.91 78.3489Z" fill="#222222"/>
<path d="M539.807 158.163L540.663 157.871L549.195 154.962C549.155 153.712 549.381 152.641 550.188 152.351C550.763 152.145 551.238 152.286 551.626 152.611C553.196 153.925 555.204 154.527 557.224 154.196C559.976 153.745 562.205 154.697 562.205 154.697L562.448 156.709L562.649 158.375C564.02 161.208 564.58 164.366 564.264 167.498L564.252 167.615L556.151 167.605L549.058 167.597L534.921 167.58C530.797 166.14 530.084 161.475 530.084 161.475L539.807 158.163Z" fill="#7F8284"/>
<path d="M551.306 150.635L550.577 111.448L563.69 114.121C563.69 114.121 561.797 144.06 560.988 151.616C554.404 152.337 551.306 150.635 551.306 150.635Z" fill="#F47365"/>
<path d="M550.452 152.282L551.306 150.635C551.306 150.635 554.404 152.337 560.987 151.615C560.751 153.822 561.938 154.213 561.786 155.354L557.732 155.985C554.761 156.449 551.827 154.956 550.452 152.282Z" fill="white"/>
<path d="M530.086 161.477C530.086 161.477 530.798 166.142 534.923 167.582L549.06 167.599L556.153 167.607L564.254 167.617L564.626 169.471L556.163 169.461L548.754 169.452L535.444 169.436C529.427 169.429 528.457 161.755 528.457 161.755L530.086 161.477Z" fill="#222222"/>
<path d="M554.565 152.873C553.247 152.604 551.902 152.212 550.606 151.704L550.792 151.231C554.439 152.658 558.47 153.161 561.064 152.509L561.187 153.002C559.429 153.443 557.047 153.379 554.565 152.873Z" fill="#020B31"/>
<path d="M549.922 152.795C550.317 143.913 548.343 131.084 549.922 108.584C551.501 86.0839 569.173 75.9509 585.347 100.001C594.735 113.961 611.896 141.149 611.896 141.149L635.975 151.708C635.975 151.708 634.001 169.373 613.87 169.57C593.739 169.767 583.421 162.382 580.317 151.708C579.352 148.388 572.398 130.05 567.776 117.787C567.451 121.358 567.221 125.102 567.291 128.122C567.488 136.609 562.357 152.793 562.357 152.793C562.357 152.793 555.751 156.105 549.922 152.795Z" fill="#222222"/>
<path d="M628.133 148.271C623.785 157.641 620.427 159.935 614.989 159.935C607.815 159.935 604.19 155.038 596.73 140.028C577.356 101.05 574.627 99.5748 567.421 100.506C560.167 101.443 561.409 106.906 561.801 116.485C562.445 132.211 558.599 153.985 558.599 153.985" stroke="white" stroke-width="0.5" stroke-miterlimit="10"/>
<path d="M555.037 48.2622C555.037 48.2622 551.065 47.7232 551.331 43.5642C551.599 39.3732 555.551 40.5662 555.551 40.5662C555.551 40.5662 554.591 43.4862 555.037 48.2622Z" fill="#FB7869"/>
<path d="M554.352 41.9151C554.352 41.9151 552.787 41.5771 552.144 43.2741" stroke="#222222" stroke-width="0.5" stroke-miterlimit="10" stroke-linecap="round" stroke-linejoin="round"/>
<path d="M553.375 42.1621C553.375 42.1621 552.828 43.8351 553.938 45.3551" stroke="#222222" stroke-width="0.5" stroke-miterlimit="10" stroke-linecap="round" stroke-linejoin="round"/>
<path d="M555.544 47.8271C555.632 48.7061 554.99 49.4891 554.111 49.5771C553.232 49.6651 552.449 49.0231 552.361 48.1441C552.273 47.2651 552.915 46.4821 553.794 46.3941C554.673 46.3071 555.456 46.9481 555.544 47.8271Z" fill="#6978ED"/>
<path d="M581.533 38.3418C583.057 44.4608 581.758 51.1928 579.899 54.1848C579.554 54.7398 579.178 55.2308 578.789 55.6948C574.476 60.8468 567.882 60.6648 567.882 60.6648C567.882 60.6648 567.606 60.6458 567.14 60.5608C564.636 60.1038 556.615 57.7448 556.137 46.2348C555.948 41.6838 556.853 37.8428 558.143 34.7428C558.993 32.7008 560.299 31.0388 561.871 29.8008L563.674 31.6318C568.353 36.3818 574.883 38.8358 581.533 38.3418Z" fill="#FB7869"/>
<path d="M583.011 47.7032C583.011 47.7032 587.909 47.2872 587.838 42.1782C587.767 37.0292 582.854 38.2472 582.854 38.2472C582.854 38.2472 583.85 41.8812 583.011 47.7032Z" fill="#FB7869"/>
<path d="M584.239 39.9724C584.239 39.9724 586.176 39.6554 586.859 41.7734" stroke="#222222" stroke-width="0.5" stroke-miterlimit="10" stroke-linecap="round" stroke-linejoin="round"/>
<path d="M585.421 40.335C585.421 40.335 585.988 42.417 584.536 44.211" stroke="#222222" stroke-width="0.5" stroke-miterlimit="10" stroke-linecap="round" stroke-linejoin="round"/>
<path d="M586.791 46.2819C586.898 47.1589 586.275 47.9559 585.398 48.0639C584.521 48.1709 583.724 47.5479 583.616 46.6709C583.509 45.7939 584.132 44.9969 585.009 44.8889C585.886 44.7819 586.683 45.4049 586.791 46.2819Z" fill="#6978ED"/>
<path d="M566.463 66.6862L566.598 64.3162L566.661 60.4982C567.093 60.5802 567.349 60.6002 567.349 60.6002C567.349 60.6002 572.489 61.1752 577.666 56.7842L578.947 63.2842L579.041 63.9622C579.041 63.9622 578.85 70.3732 571.221 71.3522C565.809 72.0462 566.463 66.6862 566.463 66.6862Z" fill="#FB7869"/>
<path d="M577.426 59.0842C577.615 58.8582 577.8 58.6262 577.981 58.3842L577.666 56.7842C572.489 61.1752 567.349 60.6002 567.349 60.6002C567.349 60.6002 567.093 60.5802 566.661 60.4982L566.617 63.8862C568.052 63.8392 573.638 63.6092 577.426 59.0842Z" fill="#F27364"/>
<path d="M637.667 66.416C637.667 66.416 608.766 81.42 601.952 81.226C595.137 81.032 583.1 65.7371 587.44 62.0471L627.861 56.623C627.861 56.623 635.77 56.8781 637.251 64.3661L637.667 66.416Z" fill="#6978ED"/>
<path d="M638.34 32.268C641.547 43.445 643.744 63.08 637.667 66.416L637.427 66.306C633.001 64.265 628.869 61.402 628.109 56.587L628.93 28.033C628.742 25.622 627.942 25.456 626.94 23.416C625.938 21.376 623.905 10.813 623.905 10.813C623.905 10.813 626.483 9.662 627.565 16.344C627.565 16.344 628.583 17.747 629.19 16.107C629.797 14.467 631.683 4.179 631.683 4.179C631.683 4.179 631.962 1.741 633.414 2.023L633.014 10.895L636.433 0C636.433 0 638.028 0.786001 637.247 3.65L637.902 1.369C637.902 1.369 639.571 1.69 638.606 6.202C637.642 10.714 637.266 13.942 637.266 13.942L639.875 9.966C639.875 9.966 640.251 5.398 641.693 5.611C641.693 5.611 642.02 9.794 641.836 10.949C641.652 12.104 636.695 25.025 636.695 25.025C636.695 25.025 636.635 26.068 636.724 27.16C636.812 28.254 638.34 32.268 638.34 32.268Z" fill="#FB7869"/>
<path d="M637.246 3.65186L634.83 13.2329" stroke="#222222" stroke-width="0.5" stroke-miterlimit="10" stroke-linecap="round" stroke-linejoin="round"/>
<path d="M631.222 12.6388C631.222 12.6388 634.965 12.1948 638.342 15.5298" stroke="#222222" stroke-width="0.5" stroke-miterlimit="10" stroke-linecap="round" stroke-linejoin="round"/>
<path d="M628.525 16.8921C628.525 16.8921 632.362 18.0441 632.335 22.7021" stroke="#222222" stroke-width="0.5" stroke-miterlimit="10" stroke-linecap="round" stroke-linejoin="round"/>
<path d="M571.438 38.6143C572.39 39.1653 573.458 40.1053 574.278 41.7063" stroke="#222222" stroke-width="0.5" stroke-miterlimit="10" stroke-linecap="round" stroke-linejoin="round"/>
<path d="M560.714 40.7321C561.05 39.9101 561.684 38.9531 562.873 38.1201" stroke="#222222" stroke-width="0.5" stroke-miterlimit="10" stroke-linecap="round" stroke-linejoin="round"/>
<path d="M566.831 41.9443C566.831 41.9443 566.704 44.0403 564.679 45.5953C562.208 47.4923 562.894 48.4323 564.782 49.4563" stroke="#222222" stroke-width="0.5" stroke-miterlimit="10" stroke-linecap="round" stroke-linejoin="round"/>
<path d="M568.147 50.763C567.138 50.326 566.947 51.682 566.947 51.682C566.947 51.682 565.74 50.773 565.359 51.788C565.029 52.668 566.952 53.96 567.596 53.738C568.24 53.516 569.009 51.137 568.147 50.763Z" fill="#F43D4F"/>
<path opacity="0.5" d="M573.321 48.0859C572.704 47.1759 571.815 48.2179 571.815 48.2179C571.815 48.2179 571.284 46.8039 570.417 47.4569C569.667 48.0229 570.598 50.1439 571.261 50.3019C571.924 50.4599 573.848 48.8639 573.321 48.0859Z" fill="#F43D4F"/>
<path opacity="0.5" d="M558.66 48.8369C559.181 47.8689 560.171 48.8149 560.171 48.8149C560.171 48.8149 560.555 47.3539 561.483 47.9149C562.287 48.4009 561.578 50.6059 560.934 50.8319C560.292 51.0559 558.215 49.6649 558.66 48.8369Z" fill="#F43D4F"/>
<path d="M564.556 52.4541C564.556 52.4541 567.522 53.4911 569.364 50.7061" stroke="#222222" stroke-width="0.5" stroke-miterlimit="10" stroke-linecap="round" stroke-linejoin="round"/>
<path d="M571.682 44.6782C571.622 45.3162 571.057 45.7842 570.42 45.7252C569.782 45.6652 569.314 45.1002 569.373 44.4622C569.433 43.8242 569.998 43.3562 570.635 43.4152C571.273 43.4752 571.742 44.0412 571.682 44.6782Z" fill="#222222"/>
<path d="M573.981 44.827C573.12 45.007 571.983 45.017 570.64 44.502" stroke="#222222" stroke-width="0.5" stroke-miterlimit="10" stroke-linecap="round" stroke-linejoin="round"/>
<path d="M573.953 43.5713C573.198 44.0223 572.127 44.4033 570.689 44.3543" stroke="#222222" stroke-width="0.5" stroke-miterlimit="10" stroke-linecap="round" stroke-linejoin="round"/>
<path d="M559.437 42.0649C560.111 42.6299 561.108 43.1769 562.534 43.3579" stroke="#222222" stroke-width="0.5" stroke-miterlimit="10" stroke-linecap="round" stroke-linejoin="round"/>
<path d="M560.055 40.9702C560.507 41.7252 561.271 42.5672 562.561 43.2032" stroke="#222222" stroke-width="0.5" stroke-miterlimit="10" stroke-linecap="round" stroke-linejoin="round"/>
<path d="M563.657 43.476C563.597 44.114 563.032 44.582 562.395 44.523C561.757 44.463 561.289 43.898 561.348 43.261C561.408 42.623 561.973 42.155 562.611 42.214C563.248 42.273 563.716 42.838 563.657 43.476Z" fill="#222222"/>
<path d="M567.775 118.115C567.775 118.115 567.29 110.736 564.626 105.26" stroke="white" stroke-width="0.5" stroke-miterlimit="10" stroke-linecap="round" stroke-linejoin="round"/>
</svg>
