<svg width="237" height="248" viewBox="0 0 237 248" fill="none" xmlns="http://www.w3.org/2000/svg">
<g clip-path="url(#clip0_104_226)">
<path d="M237 195.939H-19.4935V196.068H237V195.939Z" fill="#EBEBEB"/>
<path d="M211.3 204.188H194.309V204.316H211.3V204.188Z" fill="#EBEBEB"/>
<path d="M150.418 205.577H145.959V205.705H150.418V205.577Z" fill="#EBEBEB"/>
<path d="M193.795 199.429H183.95V199.557H193.795V199.429Z" fill="#EBEBEB"/>
<path d="M29.5747 200.289H7.41724V200.417H29.5747V200.289Z" fill="#EBEBEB"/>
<path d="M37.3909 200.289H34.1422V200.417H37.3909V200.289Z" fill="#EBEBEB"/>
<path d="M96.0038 202.454H47.9492V202.582H96.0038V202.454Z" fill="#EBEBEB"/>
<path d="M102.092 173.088H3.03427C1.4199 173.088 0.10614 171.775 0.10614 170.163V31.082C0.10614 29.4695 1.4199 28.1572 3.03427 28.1572H102.092C103.705 28.1572 105.019 29.4695 105.019 31.082V170.163C105.019 171.775 103.705 173.088 102.092 173.088ZM3.03427 28.2858C1.49018 28.2858 0.234387 29.5402 0.234387 31.0825V170.163C0.234387 171.706 1.49018 172.96 3.03427 172.96H102.092C103.635 172.96 104.891 171.706 104.891 170.163V31.082C104.891 29.5402 103.635 28.2853 102.092 28.2853L3.03427 28.2858Z" fill="#EBEBEB"/>
<path d="M213.049 173.088H113.992C112.377 173.088 111.064 171.775 111.064 170.163V31.082C111.064 29.4695 112.378 28.1572 113.992 28.1572H213.049C214.663 28.1572 215.977 29.4695 215.977 31.082V170.163C215.977 171.775 214.663 173.088 213.049 173.088ZM113.992 28.2858C112.448 28.2858 111.192 29.5402 111.192 31.0825V170.163C111.192 171.706 112.448 172.96 113.992 172.96H213.049C214.593 172.96 215.848 171.706 215.848 170.163V31.082C215.848 29.5402 214.593 28.2853 213.049 28.2853L113.992 28.2858Z" fill="#EBEBEB"/>
<path d="M60.5661 155.954L53.4633 161.888L63.5845 176.581L71.6712 172.074C75.9418 176.157 80.983 179.496 86.6427 181.801L85.824 190.989L103.38 194.229L105.902 185.356C112.013 185.224 117.915 183.903 123.364 181.614L129.306 188.71L144.014 178.6L139.503 170.523C143.591 166.256 146.934 161.222 149.241 155.569L158.438 156.386L161.682 138.85L152.8 136.33C152.667 130.227 151.346 124.331 149.054 118.887L156.157 112.954L146.037 98.2618L137.95 102.767C133.679 98.6856 128.639 95.3447 122.979 93.0405L123.797 83.8532L106.241 80.6123L103.718 89.4855C97.6084 89.6187 91.7044 90.9386 86.256 93.2265L80.3151 86.1329L65.6062 96.2425L70.1164 104.321C66.0294 108.586 62.6868 113.62 60.3778 119.274L51.1805 118.456L47.9363 135.992L56.8203 138.512C56.9531 144.616 58.2746 150.511 60.5661 155.954ZM81.042 133.035C83.4674 119.924 96.0745 111.259 109.2 113.681C122.328 116.104 131.002 128.697 128.577 141.808C126.152 154.919 113.545 163.584 100.417 161.162C87.2922 158.739 78.6166 146.146 81.042 133.035Z" fill="#F0F0F0"/>
<path d="M177.948 163.367L183.498 164.391L184.295 161.587C186.227 161.545 188.092 161.127 189.815 160.404L191.693 162.647L196.342 159.451L194.916 156.898C196.208 155.55 197.265 153.957 197.995 152.171L200.902 152.43L201.927 146.886L199.12 146.09C199.078 144.16 198.66 142.296 197.935 140.577L200.181 138.701L196.981 134.057L194.425 135.48C193.075 134.191 191.482 133.134 189.692 132.406L189.951 129.502L184.401 128.478L183.604 131.282C181.672 131.325 179.807 131.742 178.084 132.465L176.206 130.223L171.556 133.419L172.982 135.973C171.691 137.321 170.633 138.912 169.904 140.699L166.996 140.44L165.971 145.984L168.779 146.78C168.821 148.71 169.239 150.574 169.963 152.294L167.718 154.17L170.917 158.814L173.473 157.389C174.823 158.679 176.417 159.735 178.206 160.464L177.948 163.367ZM176.437 145.047C177.204 140.903 181.189 138.164 185.338 138.93C189.488 139.696 192.229 143.676 191.463 147.821C190.696 151.965 186.712 154.704 182.561 153.939C178.412 153.172 175.671 149.192 176.437 145.047Z" fill="#F0F0F0"/>
<path d="M23.2132 162.678L27.4407 163.458L28.0476 161.321C29.5193 161.289 30.9403 160.971 32.2525 160.42L33.6832 162.129L37.2249 159.694L36.1389 157.749C37.1233 156.722 37.9282 155.509 38.4838 154.148L40.6978 154.345L41.4791 150.122L39.3405 149.516C39.3081 148.046 38.9901 146.626 38.4381 145.316L40.1489 143.887L37.7117 140.348L35.7644 141.433C34.7359 140.45 33.5227 139.646 32.1592 139.091L32.3566 136.88L28.1291 136.099L27.5223 138.235C26.0505 138.268 24.6295 138.585 23.3173 139.136L21.8866 137.428L18.3449 139.862L19.4309 141.807C18.447 142.834 17.6416 144.046 17.0861 145.408L14.8715 145.211L14.0902 149.434L16.2294 150.04C16.2612 151.51 16.5792 152.93 17.1307 154.241L15.4204 155.67L17.8571 159.208L19.8044 158.122C20.8329 159.105 22.0472 159.91 23.4102 160.465L23.2132 162.678ZM22.062 148.723C22.6458 145.566 25.6817 143.479 28.8422 144.062C32.0032 144.646 34.0921 147.678 33.5083 150.835C32.924 153.992 29.8887 156.079 26.7276 155.495C23.5671 154.912 21.4782 151.88 22.062 148.723Z" fill="#F0F0F0"/>
<path d="M98.7004 68.5876L101.899 69.1779L102.358 67.5612C103.471 67.5372 104.547 67.2963 105.54 66.8792L106.622 68.172L109.302 66.33L108.48 64.8584C109.225 64.081 109.834 63.1639 110.254 62.1339L111.93 62.283L112.521 59.0883L110.903 58.6291C110.879 57.5167 110.638 56.4427 110.22 55.4513L111.514 54.3701L109.67 51.6933L108.197 52.5142C107.419 51.7707 106.5 51.162 105.469 50.7418L105.619 49.0683L102.42 48.4775L101.961 50.0941C100.847 50.1187 99.7721 50.3591 98.7794 50.7756L97.697 49.4834L95.0172 51.3254L95.839 52.797C95.0946 53.5738 94.4852 54.491 94.0651 55.5215L92.3897 55.3723L91.7987 58.5671L93.4172 59.0257C93.4413 60.1376 93.6819 61.2121 94.0995 62.2036L92.8057 63.2848L94.6494 65.9615L96.1227 65.1402C96.9009 65.8837 97.8196 66.4924 98.8507 66.912L98.7004 68.5876ZM97.8294 58.0291C98.2711 55.6403 100.568 54.0622 102.959 54.5033C105.351 54.9445 106.931 57.2385 106.49 59.6273C106.047 62.0161 103.751 63.5948 101.359 63.1531C98.9682 62.7119 97.3877 60.4179 97.8294 58.0291Z" fill="#F0F0F0"/>
<path d="M177.536 101.196L179.669 101.59L179.976 100.512C180.718 100.496 181.436 100.335 182.097 100.057L182.819 100.919L184.606 99.6907L184.059 98.7094C184.555 98.1914 184.961 97.5791 185.242 96.8925L186.359 96.9919L186.753 94.8614L185.674 94.5555C185.658 93.8135 185.497 93.0972 185.218 92.4362L186.082 91.7152L184.852 89.93L183.87 90.4773C183.351 89.9813 182.739 89.5755 182.051 89.2952L182.15 88.1792L180.017 87.7852L179.71 88.8632C178.968 88.8796 178.25 89.04 177.589 89.3177L176.867 88.4559L175.08 89.6846L175.628 90.6664C175.131 91.1844 174.725 91.7962 174.445 92.4833L173.327 92.3839L172.933 94.5145L174.012 94.8204C174.028 95.5618 174.189 96.2786 174.467 96.9396L173.604 97.6606L174.834 99.4458L175.816 98.898C176.336 99.394 176.948 99.7998 177.636 100.08L177.536 101.196ZM176.955 94.1542C177.25 92.5612 178.782 91.5087 180.376 91.8029C181.971 92.097 183.025 93.627 182.731 95.22C182.436 96.8131 180.904 97.866 179.309 97.5714C177.714 97.2778 176.66 95.7473 176.955 94.1542Z" fill="#F0F0F0"/>
<path d="M151.511 171.834C151.539 173.128 151.82 174.378 152.305 175.532L150.799 176.791L152.945 179.905L154.66 178.95C155.566 179.815 156.634 180.524 157.834 181.012L157.661 182.96L161.384 183.647L161.918 181.766C163.214 181.738 164.465 181.458 165.621 180.973L166.88 182.477L169.999 180.334L169.043 178.621C169.909 177.716 170.618 176.649 171.108 175.45L173.058 175.624L173.746 171.905L171.862 171.371C171.834 170.077 171.554 168.827 171.068 167.673L172.574 166.415L170.428 163.3L168.714 164.255C167.808 163.389 166.74 162.681 165.539 162.192L165.713 160.245L161.99 159.558L161.455 161.439C160.16 161.467 158.908 161.747 157.752 162.232L156.493 160.728L153.374 162.872L154.331 164.585C153.465 165.489 152.755 166.557 152.266 167.755L150.316 167.582L149.629 171.3L151.511 171.834ZM156.647 170.673C157.161 167.893 159.834 166.055 162.618 166.569C165.401 167.083 167.24 169.753 166.726 172.533C166.212 175.313 163.539 177.15 160.756 176.637C157.972 176.122 156.133 173.452 156.647 170.673Z" fill="#F0F0F0"/>
<path d="M58.5372 103.865C59.0045 106.175 56.2098 108.688 52.2957 109.478C48.3816 110.267 44.8297 109.034 44.3629 106.725C43.8955 104.414 46.6903 101.901 50.6044 101.112C54.5185 100.322 58.0704 101.555 58.5372 103.865Z" fill="#E0E0E0"/>
<path d="M60.0482 95.58C60.3658 95.0666 60.5043 94.5568 60.4063 94.0715C59.9477 91.8031 54.7465 90.9387 48.7897 92.1403C42.8329 93.3419 38.3761 96.1549 38.8347 98.4233C38.9327 98.908 39.2584 99.3241 39.7509 99.6746C39.6837 99.9328 39.6647 100.187 39.715 100.435C39.8119 100.915 40.1408 101.324 40.6394 101.666C40.5619 101.932 40.5435 102.194 40.5948 102.447C40.6912 102.924 41.0251 103.329 41.5345 103.663C41.4473 103.933 41.4227 104.2 41.475 104.459C41.571 104.933 41.91 105.335 42.4333 105.661C42.3358 105.937 42.302 106.208 42.3548 106.47C42.736 108.357 47.0599 109.076 52.0123 108.076C56.9647 107.078 60.67 104.739 60.2888 102.853C60.2355 102.59 60.099 102.353 59.902 102.137C60.2575 101.634 60.414 101.132 60.3181 100.657C60.2658 100.399 60.1396 100.162 59.9539 99.9467C60.2934 99.4414 60.4443 98.9388 60.3478 98.4622C60.2965 98.2081 60.178 97.9739 60.0036 97.7592C60.3304 97.2509 60.474 96.7457 60.3776 96.2666C60.3273 96.0196 60.2109 95.7921 60.0482 95.58Z" fill="#EBEBEB"/>
<path d="M64.9162 73.6435C62.697 62.6669 51.6283 55.7301 40.6298 58.7486C31.1406 61.3531 25.0412 70.8468 26.5986 80.5526C27.6112 86.8607 31.5171 91.9202 36.706 94.6717C37.6473 95.1713 38.3024 96.087 38.4106 97.1461C38.4158 97.1978 38.424 97.2491 38.4342 97.3003C38.9 99.6035 44.1812 100.482 50.2304 99.2613C56.2795 98.0412 60.8056 95.1846 60.3398 92.8809C60.3295 92.8312 60.3172 92.7825 60.3029 92.7343C59.9905 91.7034 60.2516 90.5997 60.9318 89.764C64.474 85.4112 66.115 79.5719 64.9162 73.6435Z" fill="#F5F5F5"/>
<path d="M52.935 95.4725C52.9202 95.4761 52.9058 95.4787 52.8904 95.4797C52.7617 95.4869 52.6514 95.389 52.6437 95.2604C52.6216 94.8807 52.1671 86.3124 55.8616 82.2071L53.0294 82.7784C52.9371 82.7974 52.8432 82.7589 52.7904 82.6821L51.3879 80.6422L50.1444 85.5669C50.1223 85.6535 50.0469 85.7196 49.9643 85.7385C49.8761 85.757 49.7853 85.7221 49.7314 85.6504L46.6356 81.5466L45.2808 85.9481C45.2556 86.0291 45.1946 86.1013 45.1038 86.108C45.0197 86.1254 44.933 86.0946 44.8781 86.0296L41.9366 82.5176L41.4303 84.9735C41.4118 85.0652 41.3431 85.1416 41.2477 85.1549L38.1995 85.7703C39.7467 86.8699 44.6662 90.7708 45.8574 96.6628C45.883 96.7889 45.8014 96.9149 45.6747 96.9375C45.548 96.9631 45.4249 96.8816 45.3998 96.7551C44.0275 89.9689 37.5516 85.8897 37.4864 85.8492C37.4049 85.7985 37.3623 85.7037 37.3792 85.6094C37.3962 85.5156 37.4685 85.4342 37.5629 85.4224L41.004 84.7281L41.5765 81.9499C41.5944 81.8622 41.6611 81.7931 41.7473 81.7705H41.7483C41.8355 81.7485 41.9274 81.7782 41.9848 81.8469L44.9612 85.3998L46.3242 80.9717C46.3503 80.8882 46.415 80.8246 46.5073 80.8103C46.594 80.7949 46.6812 80.8303 46.7341 80.9L49.8115 84.9797L51.0621 80.0268C51.0847 79.9382 51.1539 79.8741 51.2478 79.8542C51.3381 79.8383 51.4294 79.8762 51.4812 79.952L53.0884 82.2906L56.529 81.5968C56.6327 81.5758 56.7373 81.6265 56.7845 81.7213C56.8317 81.8156 56.8096 81.9299 56.7306 81.9996C52.6026 85.6729 53.1043 95.1379 53.11 95.2332C53.1161 95.3465 53.0407 95.4454 52.935 95.4725Z" fill="#E0E0E0"/>
<path d="M108.753 219.081C163.685 219.081 208.216 216.484 208.216 213.279C208.216 210.075 163.685 207.478 108.753 207.478C53.8218 207.478 9.29089 210.075 9.29089 213.279C9.29089 216.484 53.8218 219.081 108.753 219.081Z" fill="#F5F5F5"/>
<path d="M169.996 77.1438C169.996 74.1432 168.427 71.4316 165.9 69.484C165.982 69.093 166.027 68.6918 166.027 68.2824C166.027 64.2842 161.959 61.0351 156.898 60.9428C155.368 57.0783 150.78 54.2725 145.358 54.2725C141.035 54.2725 137.244 56.0571 135.109 58.7385C134.578 58.6647 134.032 58.6242 133.475 58.6242C128.311 58.6242 124.126 61.9123 124.126 65.9684C124.126 66.6689 124.253 67.3452 124.487 67.9868C121.198 69.712 119.031 72.6537 119.031 75.9935C119.031 79.2108 121.042 82.0567 124.13 83.8039C124.129 83.8383 124.127 83.8721 124.127 83.9069C124.127 87.8437 128.07 91.0564 133.023 91.2419C135.754 93.9058 139.938 95.6121 144.632 95.6121C147.927 95.6121 150.97 94.7702 153.437 93.3478C153.853 93.3924 154.276 93.417 154.707 93.417C159.87 93.417 164.056 90.129 164.056 86.0728C164.056 86.0477 164.054 86.0226 164.053 85.9975C167.641 84.0642 169.996 80.8202 169.996 77.1438Z" fill="#407BFF"/>
<path d="M118.598 98.7183C118.598 99.389 117.819 99.9327 116.859 99.9327C115.898 99.9327 115.119 99.389 115.119 98.7183C115.119 98.0476 115.898 97.5039 116.859 97.5039C117.819 97.5039 118.598 98.0476 118.598 98.7183Z" fill="#407BFF"/>
<path d="M130.641 95.8305C130.641 97.7719 128.379 99.3455 125.589 99.3455C122.799 99.3455 120.537 97.7719 120.537 95.8305C120.537 93.889 122.799 92.3154 125.589 92.3154C128.379 92.3154 130.641 93.889 130.641 95.8305Z" fill="#407BFF"/>
<path opacity="0.7" d="M169.996 77.1438C169.996 74.1432 168.427 71.4316 165.9 69.484C165.982 69.093 166.027 68.6918 166.027 68.2824C166.027 64.2842 161.959 61.0351 156.898 60.9428C155.368 57.0783 150.78 54.2725 145.358 54.2725C141.035 54.2725 137.244 56.0571 135.109 58.7385C134.578 58.6647 134.032 58.6242 133.475 58.6242C128.311 58.6242 124.126 61.9123 124.126 65.9684C124.126 66.6689 124.253 67.3452 124.487 67.9868C121.198 69.712 119.031 72.6537 119.031 75.9935C119.031 79.2108 121.042 82.0567 124.13 83.8039C124.129 83.8383 124.127 83.8721 124.127 83.9069C124.127 87.8437 128.07 91.0564 133.023 91.2419C135.754 93.9058 139.938 95.6121 144.632 95.6121C147.927 95.6121 150.97 94.7702 153.437 93.3478C153.853 93.3924 154.276 93.417 154.707 93.417C159.87 93.417 164.056 90.129 164.056 86.0728C164.056 86.0477 164.054 86.0226 164.053 85.9975C167.641 84.0642 169.996 80.8202 169.996 77.1438Z" fill="white"/>
<path opacity="0.7" d="M118.598 98.7183C118.598 99.389 117.819 99.9327 116.859 99.9327C115.898 99.9327 115.119 99.389 115.119 98.7183C115.119 98.0476 115.898 97.5039 116.859 97.5039C117.819 97.5039 118.598 98.0476 118.598 98.7183Z" fill="white"/>
<path opacity="0.7" d="M130.641 95.8305C130.641 97.7719 128.379 99.3455 125.589 99.3455C122.799 99.3455 120.537 97.7719 120.537 95.8305C120.537 93.889 122.799 92.3154 125.589 92.3154C128.379 92.3154 130.641 93.889 130.641 95.8305Z" fill="white"/>
<path d="M144.755 61.7012C149.744 61.7012 152.835 64.0438 152.835 68.2096C152.835 73.826 147.1 74.571 147.1 78.9218H142.149C142.149 73.1947 146.729 72.8602 146.729 69.2893C146.729 67.7264 145.76 67.0193 144.123 67.0193C142.298 67.0193 141.329 68.099 141.292 70.331H136.191C136.227 64.8632 139.431 61.7012 144.755 61.7012ZM147.734 84.9486C147.734 86.8445 146.394 88.1844 144.532 88.1844C142.67 88.1844 141.366 86.8445 141.366 84.9486C141.366 83.0512 142.67 81.7487 144.532 81.7487C146.393 81.7487 147.734 83.0512 147.734 84.9486Z" fill="#407BFF"/>
<path d="M32.9094 181.174C32.9094 181.174 29.5606 177.192 27.4173 179.049C25.2741 180.906 26.358 184.845 28.8301 184.971C31.3022 185.099 32.9094 183.726 32.9094 183.726V181.174Z" fill="#407BFF"/>
<path opacity="0.2" d="M32.9094 181.174C32.9094 181.174 29.5606 177.192 27.4173 179.049C25.2741 180.906 26.358 184.845 28.8301 184.971C31.3022 185.099 32.9094 183.726 32.9094 183.726V181.174Z" fill="white"/>
<path d="M46.5726 171.076C46.5726 171.076 49.3858 168.133 51.1269 168.632C52.8685 169.131 52.6869 176.163 47.2857 173.316L46.5726 171.076Z" fill="#407BFF"/>
<path opacity="0.3" d="M46.5726 171.076C46.5726 171.076 49.3858 168.133 51.1269 168.632C52.8685 169.131 52.6869 176.163 47.2857 173.316L46.5726 171.076Z" fill="white"/>
<path d="M36.5259 193.034C36.5259 193.034 27.2829 180.404 34.7843 177.845C42.2857 175.286 43.6256 188.007 41.4818 191.548C39.3391 195.089 36.5259 193.034 36.5259 193.034Z" fill="#407BFF"/>
<path d="M40.8122 167.175C40.8122 167.175 46.5459 153.878 38.0529 153.476C29.5599 153.075 28.6349 166.661 38.4073 168.632L40.8122 167.175Z" fill="#407BFF"/>
<path opacity="0.3" d="M36.5259 193.034C36.5259 193.034 27.2829 180.404 34.7843 177.845C42.2857 175.286 43.6256 188.007 41.4818 191.548C39.3391 195.089 36.5259 193.034 36.5259 193.034Z" fill="white"/>
<path opacity="0.3" d="M40.8122 167.175C40.8122 167.175 46.5459 153.878 38.0529 153.476C29.5599 153.075 28.6349 166.661 38.4073 168.632L40.8122 167.175Z" fill="white"/>
<path d="M38.7783 178.063C38.7783 178.063 35.9902 166.322 41.3484 165.385C46.7065 164.449 51.9959 175.057 40.9118 180.39C40.9118 180.39 39.0107 179.212 38.7783 178.063Z" fill="#407BFF"/>
<path opacity="0.2" d="M38.7783 178.063C38.7783 178.063 35.9902 166.322 41.3484 165.385C46.7065 164.449 51.9959 175.057 40.9118 180.39C40.9118 180.39 39.0107 179.212 38.7783 178.063Z" fill="white"/>
<path d="M37.9442 166.225C34.7457 163.891 32.5327 159.381 34.4163 155.58C34.3415 155.934 34.246 156.318 34.1604 156.669C33.5294 160.274 35.5039 163.709 37.9442 166.225Z" fill="#407BFF"/>
<path d="M35.9101 154.813C39.5656 155.527 41.2375 159.499 40.7958 162.906C40.7117 163.389 40.6419 163.872 40.5449 164.348C40.566 163.379 40.6085 162.418 40.5121 161.458C40.2818 158.622 38.7197 155.854 35.9101 154.813Z" fill="#407BFF"/>
<path d="M42.4047 166.226C44.6496 167.021 45.9423 169.578 45.7561 171.889C45.5683 173.571 44.6255 175.08 43.5805 176.342C42.731 177.357 41.7686 178.271 40.7088 179.049C41.1807 178.592 41.6424 178.129 42.0728 177.637C43.3445 176.205 44.6003 174.624 45.1446 172.767C45.8925 170.35 44.6809 167.392 42.4047 166.226Z" fill="#407BFF"/>
<path d="M40.8125 167.176C41.3655 168.893 41.8559 170.95 40.9561 172.641C40.2066 173.737 40.1287 175.171 40.1123 176.479C40.101 176.933 40.1205 177.388 40.1425 177.845C39.9209 176.955 39.8224 176.035 39.844 175.107C39.8542 174.181 40.064 173.184 40.5898 172.412C41.4183 170.829 41.0218 168.889 40.8125 167.176Z" fill="#407BFF"/>
<path d="M37.0417 179.049C39.2096 180.218 40.0622 187.553 39.9873 189.949C39.9191 189.473 39.8468 189.001 39.7565 188.53C39.3456 186.183 38.9193 183.828 38.2986 181.529C38.0062 180.665 37.8205 179.614 37.0417 179.049Z" fill="#407BFF"/>
<path d="M34.4166 179.457C33.3793 182.876 34.136 186.664 36.5265 189.343C36.1977 189.041 35.8514 188.745 35.5539 188.405C33.4091 186.015 32.9879 182.313 34.4166 179.457Z" fill="#407BFF"/>
<path d="M48.7543 172.51C49.7377 172.245 50.5749 172.006 51.2946 171.284C51.1166 172.383 49.7192 172.901 48.7543 172.51Z" fill="#407BFF"/>
<path d="M48.1807 170.57C48.6434 169.629 50.2213 169.043 50.8933 170.068C49.9479 169.656 49.0281 170.172 48.1807 170.57Z" fill="#407BFF"/>
<path d="M31.379 181.768C30.3007 181.007 29.1834 179.715 27.785 180.39C28.9202 179.043 30.8403 180.56 31.379 181.768Z" fill="#407BFF"/>
<path d="M31.3789 183.727C29.9594 184.245 27.1703 184.29 26.9744 182.312C27.7828 183.92 29.8435 183.567 31.3789 183.727Z" fill="#407BFF"/>
<path d="M25.0833 187.823H53.7962L51.3985 206.173H27.481L25.0833 187.823Z" fill="#263238"/>
<g opacity="0.2">
<path d="M53.7972 187.824L52.9559 194.239L52.9046 194.644L52.4275 198.292L52.3044 199.24L51.9505 201.941L51.6683 204.103L51.3964 206.173H27.481L27.2091 204.103L26.9269 201.941L26.5781 199.24L26.4499 198.292L25.9779 194.644L25.9215 194.239L25.0853 187.824H53.7972Z" fill="#FAFAFA"/>
</g>
<path opacity="0.2" d="M51.9503 201.94L51.6682 204.103H27.209L26.9268 201.94H51.9503Z" fill="#FAFAFA"/>
<path opacity="0.2" d="M52.4276 198.293L52.3044 199.241H26.5781L26.4499 198.293H52.4276Z" fill="#FAFAFA"/>
<path opacity="0.2" d="M52.9558 194.24L52.9045 194.645H25.9778L25.9214 194.24H52.9558Z" fill="#FAFAFA"/>
<path d="M177.031 178.759H171.045V191.022H177.031V178.759Z" fill="#263238"/>
<path d="M190.968 198.292C190.968 194.031 187.703 190.299 182.815 188.237V185.65H165.26V188.239C160.372 190.3 157.106 194.032 157.106 198.292C157.106 200.27 157.814 202.135 159.061 203.775V205.947H161.184H186.895H189.014V203.78C190.261 202.14 190.968 200.275 190.968 198.292Z" fill="#263238"/>
<path opacity="0.6" d="M190.968 198.292C190.968 194.031 187.703 190.299 182.815 188.237V185.65H165.26V188.239C160.372 190.3 157.106 194.032 157.106 198.292C157.106 200.27 157.814 202.135 159.061 203.775V205.947H161.184H186.895H189.014V203.78C190.261 202.14 190.968 200.275 190.968 198.292Z" fill="#FAFAFA"/>
<path d="M183.256 188.137H164.82C164.24 188.137 163.767 187.665 163.767 187.085V158.59H164.28V187.085C164.28 187.382 164.522 187.624 164.82 187.624H183.256C183.554 187.624 183.796 187.382 183.796 187.085V158.59H184.309V187.085C184.309 187.665 183.836 188.137 183.256 188.137Z" fill="#263238"/>
<path d="M191.983 182.311H156.092L163.965 151.864H184.111L191.983 182.311Z" fill="#407BFF"/>
<path opacity="0.2" d="M189.014 203.774H159.061V205.947H189.014V203.774Z" fill="black"/>
<path opacity="0.2" d="M182.815 185.65H165.261V188.237H182.815V185.65Z" fill="black"/>
<path opacity="0.6" d="M191.983 182.311H156.092L163.965 151.864H184.111L191.983 182.311Z" fill="#FAFAFA"/>
<path d="M118.469 138.247C123.017 144.143 127.861 150.336 133.73 154.82C135.022 155.761 136.119 156.368 137.205 156.69C137.293 156.719 137.188 156.763 137.099 156.835C137.045 156.897 137.041 156.897 137.042 156.936C136.997 156.968 136.88 157.079 136.838 157.119C136.345 157.596 135.931 158.347 135.924 159.003C135.926 159.145 135.954 159.135 135.954 159.042C135.639 156.689 134.21 154.364 132.997 152.168C128.101 143.902 121.936 136.181 116.021 128.496L120.653 123.974C125.894 128.419 130.71 133.11 135.326 138.201C138.855 142.146 142.306 146.285 144.98 151.046C147.644 155.598 149.234 162.061 144.496 166.073C142.516 167.815 139.53 168.842 137.01 168.791C128.032 168.669 119.826 160.217 114.322 154.14C111.985 151.463 109.771 148.667 107.759 145.742L118.469 138.247Z" fill="#DC897C"/>
<path d="M105.42 118.56L110.83 118.298C111.432 118.269 112.029 118.43 112.534 118.757L120.917 124.182L119.541 130.018C114.319 133.31 109.861 130.286 108.497 129.164C108.18 128.903 107.813 128.716 107.416 128.61L104.448 127.818C103.082 127.454 102.183 126.153 102.326 124.748L102.694 121.141C102.839 119.726 103.997 118.629 105.42 118.56Z" fill="#E4897B"/>
<path d="M134.36 154.81L128.935 172.082C128.935 172.082 128.325 171.76 127.33 171.203C124.707 169.732 119.403 166.646 115.485 163.589C113.207 161.814 111.401 160.05 110.86 158.619C109.042 153.798 119.881 136.721 119.881 136.721C123.286 137.571 127.422 143.743 127.422 143.743C127.422 143.743 133.054 151.684 134.36 154.81Z" fill="#407BFF"/>
<path opacity="0.2" d="M127.33 171.203C124.706 169.732 119.403 166.646 115.485 163.589C115.387 161.302 115.542 158.866 116.043 156.32C116.043 156.32 124.753 161.251 127.33 171.203Z" fill="black"/>
<path d="M119.881 136.726C119.881 136.726 130.385 163.763 120.224 214.043C105.791 214.008 79.3474 213.944 72.3246 213.927C72.0122 206.582 75.342 172.201 68.334 137.579C68.334 137.579 70.2993 135.182 85.751 134.16C91.8653 133.756 100.733 133.707 106.112 134.21C113.204 134.874 119.881 136.726 119.881 136.726Z" fill="#263238"/>
<path opacity="0.6" d="M124.546 178.621C124.483 180.448 124.391 182.332 124.265 184.274C124.161 185.843 124.04 187.458 123.896 189.107C123.718 191.077 123.511 193.1 123.258 195.175C123.062 196.87 122.837 198.599 122.59 200.363C122.285 202.489 121.946 204.661 121.561 206.891C121.164 209.218 120.72 211.602 120.226 214.044C105.792 214.01 79.3474 213.946 72.3236 213.929C72.2544 212.332 72.358 209.453 72.4903 205.575C72.5478 204.023 72.6052 202.305 72.657 200.449C72.6976 199.099 72.7319 197.668 72.7607 196.174C72.795 194.514 72.8238 192.767 72.8356 190.94C72.8469 189.52 72.8469 188.055 72.8412 186.544C72.8356 184.797 72.8125 182.993 72.7725 181.143C72.7494 179.769 72.7089 178.373 72.6632 176.954C72.4965 171.909 72.1913 166.565 71.6911 161.037C71.0006 153.447 69.9367 145.517 68.3315 137.576C68.3315 137.576 70.2988 135.18 85.7505 134.157C91.8653 133.755 100.73 133.703 106.115 134.209C113.201 134.876 119.881 136.726 119.881 136.726C119.881 136.726 125.501 151.183 124.546 178.621Z" fill="#FAFAFA"/>
<path opacity="0.2" d="M77.6566 158.831C77.6566 158.831 77.2309 170.249 72.6632 176.954C72.4965 171.909 72.1913 166.566 71.6911 161.038C73.5604 159.618 75.597 158.768 77.6566 158.831Z" fill="black"/>
<g opacity="0.6">
<path d="M124.546 178.621C124.483 180.448 124.391 182.333 124.265 184.275L119.237 190.187L112.017 181.7L104.803 190.187L97.5836 181.7L90.3699 190.187L83.1502 181.7L75.9365 190.187L72.8417 186.544C72.836 184.797 72.813 182.993 72.7729 181.143L75.9371 184.861L83.1507 176.374L90.3699 184.861L97.5836 176.374L104.803 184.861L112.017 176.374L119.237 184.861L124.546 178.621Z" fill="#FAFAFA"/>
</g>
<g opacity="0.6">
<path d="M123.896 189.107C123.718 191.077 123.511 193.1 123.257 195.174L119.236 199.909L112.016 191.422L104.803 199.909L97.583 191.422L90.3693 199.909L83.1501 191.422L75.9364 199.909L72.761 196.174C72.7954 194.513 72.8241 192.767 72.8359 190.939L75.9364 194.583L83.1501 186.096L90.3693 194.583L97.583 186.096L104.803 194.583L112.016 186.096L119.236 194.583L123.896 189.107Z" fill="#FAFAFA"/>
</g>
<g opacity="0.6">
<path d="M122.59 200.363C122.286 202.489 121.946 204.661 121.561 206.891L119.236 209.626L112.017 201.145L104.803 209.626L97.5833 201.145L90.3696 209.626L83.1504 201.145L75.9368 209.626L72.491 205.575C72.5485 204.023 72.6059 202.305 72.6577 200.449L75.9368 204.305L83.1504 195.818L90.3696 204.305L97.5833 195.818L104.803 204.305L112.017 195.818L119.236 204.305L122.59 200.363Z" fill="#FAFAFA"/>
</g>
<path d="M85.1343 113.057C87.0242 119.452 89.4203 131.271 85.2641 136.045C91.7626 138.113 96.4406 139.48 102.188 143.743C103.697 139.564 105.537 134.148 105.537 134.148C98.1001 133.094 97.7826 127.686 98.5746 122.505L85.1343 113.057Z" fill="#E4897B"/>
<path opacity="0.2" d="M90.614 116.913L98.5683 122.501C98.3765 123.728 98.2544 124.965 98.2806 126.154C95.4643 126.013 91.3609 123.323 90.7935 120.445C90.5109 119.009 90.4411 117.61 90.614 116.913Z" fill="black"/>
<path d="M79.6949 134.65L84.283 130.337L96.5829 134.557L101.959 142.81L103.968 134.445L106.745 131.938L111.614 134.913L110.862 140.22L107.34 138.497L103.09 145.45L93.583 139.876L90.9314 142.414L79.6949 134.65Z" fill="#407BFF"/>
<path opacity="0.2" d="M103.09 145.45L105.572 136.76L110.863 140.22L107.34 138.497L103.09 145.45Z" fill="black"/>
<path opacity="0.2" d="M103.09 145.449L94.7102 137.25L90.9315 142.414L93.5831 139.876L103.09 145.449Z" fill="black"/>
<path d="M82.8248 151.411C85.8863 155.118 90.1112 160.261 93.2307 163.796C96.9514 167.927 100.65 172.312 105.145 175.479C105.321 175.59 105.119 175.479 105.035 175.465C104.97 175.441 104.897 175.434 104.887 175.435C104.844 175.439 104.882 175.446 104.881 175.46C106.902 175.905 109.176 175.432 111.333 175.141C117.917 174.035 124.39 172.174 130.98 170.48L133.571 176.409C131.076 177.929 128.583 179.25 125.999 180.517C119.53 183.556 107.721 189.034 100.576 186.349C97.8107 185.158 95.4648 183.423 93.2553 181.655C89.8034 178.837 86.6229 175.714 83.6132 172.535C80.6528 169.391 77.8508 166.179 75.152 162.831C74.2456 161.713 73.395 160.614 72.4896 159.415L82.8248 151.411Z" fill="#DC897C"/>
<path d="M64.092 143.502C58.8436 160.111 82.4226 176.378 82.4226 176.378L95.0195 162.071C95.0195 162.071 89.4684 151.811 83.1823 142.714C76.5966 133.182 66.856 134.754 64.092 143.502Z" fill="#407BFF"/>
<path d="M129.955 171.261L138.819 162.071L145.522 170.995C145.522 170.995 140.23 178.289 133.033 176.408L129.955 171.261Z" fill="#E4897B"/>
<path d="M147.463 159.254L150.865 167.1L145.521 170.995L138.819 162.071L147.463 159.254Z" fill="#E4897B"/>
<path d="M102.262 89.2863C106.826 91.0725 109.954 103.496 104.413 106.485C98.8725 109.474 93.618 85.9029 102.262 89.2863Z" fill="#263238"/>
<path d="M82.6035 103.904C84.9679 112.595 85.9072 117.786 91.3105 121.531C99.4377 127.165 109.524 121.275 109.817 112.146C110.082 103.929 106.171 91.0956 96.7866 89.0799C87.541 87.0938 80.2397 95.2117 82.6035 103.904Z" fill="#E4897B"/>
<path d="M90.379 92.7047L89.413 85.0449C87.395 86.0492 85.2337 86.5478 83.23 86.2035C74.0137 84.6201 67.4054 90.8678 71.9407 95.7033C67.7655 97.82 70.4925 103.548 73.591 107.118C77.8955 112.079 82.2923 114.276 85.084 111.744C87.6299 110.301 87.5078 101.205 86.4336 97.8963C84.8151 92.9097 90.379 92.7047 90.379 92.7047Z" fill="#263238"/>
<path d="M81.0461 113.179C82.7159 114.987 84.9392 115.99 86.8003 116.211C89.5997 116.542 90.0927 113.942 88.5552 111.534C87.1717 109.366 84.0476 106.581 81.6032 107.363C79.1953 108.133 79.1368 111.111 81.0461 113.179Z" fill="#E4897B"/>
<path d="M95.9567 104.064C96.1049 104.78 96.6067 105.294 97.0776 105.214C97.5485 105.133 97.8101 104.488 97.6619 103.773C97.5136 103.058 97.0114 102.543 96.541 102.624C96.0696 102.704 95.8084 103.349 95.9567 104.064Z" fill="#263238"/>
<path d="M104.099 102.673C104.247 103.388 104.749 103.903 105.22 103.822C105.691 103.742 105.952 103.097 105.804 102.381C105.656 101.666 105.154 101.151 104.683 101.232C104.212 101.313 103.951 101.957 104.099 102.673Z" fill="#263238"/>
<path d="M102.159 103.471C102.159 103.471 104.653 107.317 106.868 109C105.839 110.399 103.56 110.23 103.56 110.23L102.159 103.471Z" fill="#DE5753"/>
<path d="M98.5671 100.315C98.6318 100.342 98.6907 100.386 98.7374 100.445C98.8831 100.632 98.8503 100.902 98.6636 101.047C96.8148 102.489 94.9383 101.824 94.8598 101.794C94.6428 101.738 94.5227 101.467 94.6053 101.244C94.6874 101.022 94.9331 100.908 95.1558 100.989C95.2337 101.017 96.6834 101.504 98.1357 100.371C98.2624 100.271 98.4281 100.256 98.5671 100.315Z" fill="#263238"/>
<path d="M106.448 98.7763C106.315 98.8096 106.168 98.7794 106.058 98.6815C104.597 97.3888 103.042 97.752 103.026 97.7556C102.796 97.8125 102.563 97.6721 102.507 97.442C102.45 97.213 102.59 96.9814 102.818 96.9235C102.818 96.9235 102.819 96.923 102.82 96.923C102.902 96.903 104.833 96.4511 106.626 98.0395C106.804 98.1963 106.82 98.4679 106.663 98.6446C106.604 98.7123 106.528 98.7558 106.448 98.7763Z" fill="#263238"/>
<path d="M82.7433 87.214C82.7433 87.214 89.1172 74.9308 100.978 77.4303C100.978 77.4303 98.708 77.9345 97.7441 78.7999C97.7441 78.7999 108.098 77.9007 111.325 85.1629L109.342 84.0038C109.342 84.0038 111.982 90.0209 108.894 93.9884L108.314 91.9936C108.314 91.9936 104.077 97.2493 97.7508 95.7577L99.9346 94.6473C99.9346 94.6473 89.0403 94.3143 86.3384 91.5417C83.6365 88.7686 82.7433 87.214 82.7433 87.214Z" fill="#263238"/>
<path d="M104.633 113.989C104.54 113.989 104.448 113.952 104.379 113.879C102.771 112.144 99.956 112.807 99.9278 112.814C99.7436 112.858 99.5559 112.746 99.5102 112.561C99.4645 112.377 99.5774 112.19 99.7621 112.144C99.8934 112.111 102.996 111.373 104.885 113.409C105.015 113.549 105.006 113.767 104.867 113.897C104.801 113.959 104.717 113.989 104.633 113.989Z" fill="#263238"/>
<path d="M193.795 205.947H19.9048V214.045H193.795V205.947Z" fill="#407BFF"/>
<path opacity="0.2" d="M193.795 205.947H19.9048V214.045H193.795V205.947Z" fill="#FAFAFA"/>
<path d="M196.396 205.947H17.8002C16.6808 205.947 15.7734 206.854 15.7734 207.972C15.7734 209.09 16.6808 209.996 17.8002 209.996H196.396C197.515 209.996 198.422 209.09 198.422 207.972C198.422 206.854 197.515 205.947 196.396 205.947Z" fill="#407BFF"/>
<path opacity="0.4" d="M196.396 205.947H17.8002C16.6808 205.947 15.7734 206.854 15.7734 207.972C15.7734 209.09 16.6808 209.996 17.8002 209.996H196.396C197.515 209.996 198.422 209.09 198.422 207.972C198.422 206.854 197.515 205.947 196.396 205.947Z" fill="#FAFAFA"/>
</g>
<defs>
<clipPath id="clip0_104_226">
<rect width="237" height="248" fill="white"/>
</clipPath>
</defs>
</svg>
