<svg width="211" height="318" viewBox="0 0 211 318" fill="none" xmlns="http://www.w3.org/2000/svg">
<path d="M153.814 211.926C153.814 211.926 11.7955 183.041 5.95347 212.615C-2.38601 254.832 100.208 280.041 154.361 276.717C208.513 273.393 153.814 211.926 153.814 211.926Z" fill="#263238"/>
<path opacity="0.2" d="M153.814 211.926C153.814 211.926 11.7955 183.041 5.95347 212.615C-2.38601 254.832 100.208 280.041 154.361 276.717C208.513 273.393 153.814 211.926 153.814 211.926Z" fill="black"/>
<path opacity="0.2" d="M52.5 220.316L119.978 260.458L111.509 273.281C111.509 273.281 116.368 280.044 124.608 258.587L82.8285 232.706C82.8285 232.706 95.6173 231.041 95.2354 229.044C94.5929 225.766 66.23 220.332 53.2965 217.889C52.6268 217.67 51.9053 218.035 51.6843 218.705C51.4647 219.375 51.8303 220.096 52.5 220.316Z" fill="black"/>
<path opacity="0.2" d="M122.24 255.643L111.299 274.6C125.542 276.657 139.965 277.367 154.36 276.717C159.095 276.548 163.758 275.561 168.129 273.801L171.946 266.3L162.739 249.073L122.24 255.643Z" fill="black"/>
<path d="M100.092 248.887L130.104 266.703L125.246 281.157L90.198 266.632L100.092 248.887Z" fill="#FFC3BD"/>
<path d="M146.462 271.013L143.873 281.382C143.873 281.382 141.715 281.905 141.103 284.087C140.759 285.315 141.752 288.639 141.752 288.639L134.845 317.206C134.802 317.197 132.886 316.738 132.115 316.216C131.175 315.579 130.41 314.922 129.791 314.249C127.628 311.893 127.293 308.398 127.139 305.805C126.88 301.46 124.008 288.831 124.008 288.831C124.008 288.831 122.956 285.549 119.377 282.738C117.38 281.169 116.418 279.144 116.563 277.869C116.853 275.266 118.687 274.238 121.119 274.459L123.944 274.719C125.912 273.16 126.453 270.609 125.108 268.205C125.108 268.205 123.261 262.08 125.88 263.042C127.375 263.592 133.965 266.302 139.234 268.286C140.461 268.75 141.625 269.187 142.644 269.57V269.573C144.908 270.425 146.462 271.013 146.462 271.013Z" fill="#263238"/>
<path d="M125.294 295.575C125.21 295.418 125.246 295.217 125.376 295.092C125.968 294.515 126.706 294.091 127.55 293.889C127.995 293.782 128.22 294.494 127.771 294.602C127.021 294.782 126.37 295.152 125.852 295.655C125.679 295.823 125.411 295.792 125.298 295.582C125.297 295.579 125.294 295.575 125.294 295.575Z" fill="#407BFF"/>
<path d="M124.642 293.083C124.557 292.926 124.594 292.726 124.724 292.6C125.316 292.023 126.054 291.599 126.898 291.397C127.342 291.291 127.568 292.003 127.119 292.11C126.369 292.29 125.718 292.66 125.2 293.163C125.026 293.331 124.759 293.3 124.647 293.09C124.645 293.088 124.642 293.086 124.642 293.083Z" fill="#407BFF"/>
<path d="M124.086 290.543C124.001 290.386 124.038 290.186 124.168 290.06C124.76 289.483 125.498 289.059 126.342 288.857C126.787 288.751 127.012 289.464 126.563 289.571C125.813 289.751 125.162 290.12 124.644 290.624C124.471 290.791 124.203 290.76 124.09 290.55C124.089 290.547 124.087 290.546 124.086 290.543Z" fill="#407BFF"/>
<path opacity="0.2" d="M142.644 269.572V269.574C144.907 270.425 146.462 271.013 146.462 271.013L143.873 281.382C143.873 281.382 141.715 281.905 141.103 284.087C140.759 285.315 141.752 288.639 141.752 288.639L134.845 317.207C134.802 317.196 132.886 316.739 132.115 316.216C131.684 315.923 131.298 315.626 130.938 315.326L142.077 269.357C142.262 269.427 142.467 269.503 142.644 269.572Z" fill="white"/>
<path d="M120.085 292.704C119.356 292.704 118.669 292.51 118.118 292.14C117.678 291.847 117.246 291.322 117.353 290.734C117.455 290.157 118 289.83 118.438 289.655C119.328 289.299 120.376 289.212 121.548 289.385C122.573 289.539 123.568 289.872 124.53 290.195L124.835 290.298L124.586 290.495C124.014 290.93 122.068 292.372 121.023 292.601C120.707 292.67 120.391 292.704 120.085 292.704ZM120.426 289.639C119.742 289.639 119.119 289.749 118.562 289.972C118.269 290.087 117.767 290.349 117.687 290.794C117.61 291.222 117.957 291.623 118.306 291.858C119.015 292.334 119.982 292.481 120.947 292.267C121.807 292.078 123.425 290.93 124.117 290.416C123.263 290.133 122.384 289.856 121.495 289.722C121.124 289.666 120.767 289.639 120.426 289.639Z" fill="#407BFF"/>
<path d="M124.665 290.568L124.406 290.376L124.508 290.238L124.403 290.373C123.589 289.766 122.748 289.137 122.039 288.382C121.226 287.515 120.704 286.603 120.488 285.67C120.383 285.209 120.345 284.575 120.758 284.164C121.184 283.744 121.859 283.797 122.351 283.992C123.23 284.337 123.972 285.112 124.383 286.119C124.786 287.109 124.711 289.529 124.678 290.247L124.665 290.568ZM121.612 284.185C121.382 284.185 121.161 284.246 121 284.405C120.681 284.722 120.752 285.285 120.822 285.592C121.023 286.468 121.518 287.327 122.287 288.147C122.904 288.803 123.631 289.368 124.353 289.908C124.399 288.526 124.347 286.926 124.069 286.245C123.692 285.325 123.02 284.62 122.227 284.307C122.04 284.235 121.822 284.185 121.612 284.185Z" fill="#407BFF"/>
<path d="M92.8949 123.905C92.8949 123.905 89.0961 169.914 87.7922 172.414C83.3824 180.871 52.9652 196.045 52.9652 196.045L37.1442 193.215L26.1544 202.956L33.7546 208.557L42.3737 205.007C47.1559 205.714 51.9899 205.995 56.8226 205.844C64.9438 205.604 105.418 195.482 111.632 184.369C117.847 173.257 117.759 121.644 117.759 121.644L92.8949 123.905Z" fill="#FFC3BD"/>
<path d="M119.005 141.175C119.005 141.175 129.901 100.547 114.516 89.8111C99.1316 79.0751 88.7911 134.797 88.7911 134.797L119.005 141.175Z" fill="#407BFF"/>
<path opacity="0.5" d="M119.005 141.175C119.005 141.175 129.901 100.547 114.516 89.8111C99.1316 79.0751 88.7911 134.797 88.7911 134.797L119.005 141.175Z" fill="white"/>
<path d="M111.64 215.118L110.184 161.738L109.176 88.6177L140.512 80.847L162.459 80.6396L199.576 92.1982L200.834 110.11C200.834 110.11 199.689 192.564 199.963 195.04C200.299 198.076 209.72 216.915 209.72 216.915C170.53 227.069 111.1 217.858 111.64 215.118Z" fill="#407BFF"/>
<path opacity="0.2" d="M109.966 139.267L109.436 107.425L103.836 137.973L109.966 139.267Z" fill="black"/>
<path opacity="0.2" d="M176.881 142.312C175.904 142.151 171.919 140.974 171.919 140.974L180.974 109.949L166.958 144.036L176.086 147.362L176.881 142.312Z" fill="black"/>
<path d="M180.363 116.966C180.363 116.966 174.213 168.103 169.934 172.991C162.703 181.253 126.339 203.683 126.339 203.683L107.685 197.753C106.378 197.366 104.954 197.641 103.92 198.479L91.5802 208.487L92.816 209.467C93.3493 209.891 94.1064 209.957 94.7106 209.634L96.6434 208.6L94.5128 210.815L95.2248 211.38C95.9327 211.942 96.8984 212.123 97.7782 211.86L103.379 210.179L98.272 213.801C99.4628 214.747 101.093 215.039 102.566 214.573L110.755 211.976C116.425 213.098 122.187 213.752 127.974 213.926C137.716 214.239 183.163 196.839 191.376 184.84C199.588 172.841 206.976 123.803 206.976 123.803L180.363 116.966Z" fill="#FFC3BD"/>
<path d="M205.796 150.114C205.796 150.114 215.879 103.637 200.494 92.9C185.11 82.1639 171.919 140.975 171.919 140.975L205.796 150.114Z" fill="#407BFF"/>
<path opacity="0.5" d="M205.796 150.114C205.796 150.114 215.879 103.637 200.494 92.9C185.11 82.1639 171.919 140.975 171.919 140.975L205.796 150.114Z" fill="white"/>
<path d="M84.296 212.394L112.694 211.556L142.829 210.668C142.829 210.675 142.829 210.682 142.829 210.688C142.881 212.923 140.438 214.8 137.373 214.879L107.266 215.767L90.0425 216.274C90.0166 216.276 89.9893 216.276 89.9634 216.277H89.9593L42.0284 217.69C38.9881 217.758 36.4906 216.022 36.4401 213.804L84.296 212.394Z" fill="#263238"/>
<path d="M41.1446 217.489L94.6174 215.912C95.5395 215.878 96.2638 215.252 96.2351 214.512C96.2297 214.372 96.1969 214.235 96.1383 214.105L70.7434 160.271C70.0968 158.731 68.2745 157.719 66.2421 157.772L12.7366 159.349C11.8323 159.376 11.1162 159.986 11.138 160.713C11.1421 160.866 11.1803 161.014 11.2485 161.156L36.6434 214.99C37.2995 216.525 39.1163 217.533 41.1446 217.489Z" fill="#263238"/>
<path opacity="0.7" d="M12.7366 159.349L66.2421 157.772C68.2745 157.719 70.0968 158.731 70.7434 160.271L95.1807 212.076L112.696 211.559L142.831 210.671C142.831 210.676 142.831 210.683 142.831 210.69C142.883 212.925 140.44 214.802 137.375 214.881L107.267 215.769L90.0439 216.277C90.018 216.278 89.9907 216.278 89.9648 216.279H89.9607L42.0298 217.692C41.0655 217.714 40.1693 217.538 39.3755 217.238C38.1192 216.856 37.1003 216.054 36.6447 214.99L11.2485 161.156C11.1803 161.014 11.1421 160.864 11.138 160.713C11.1162 159.986 11.8323 159.376 12.7366 159.349Z" fill="white"/>
<path d="M45.7263 187.435C46.9593 190.018 49.3545 191.747 51.0895 191.329C52.8245 190.912 53.2201 188.512 52.0211 185.922C50.8222 183.331 48.4011 181.645 46.6661 182.062C44.9311 182.478 44.4769 184.783 45.7263 187.435Z" fill="white"/>
<g opacity="0.3">
<path d="M70.7438 160.269L95.1811 212.074L92.7027 212.146L66.2426 157.77C68.2749 157.718 70.0959 158.729 70.7438 160.269Z" fill="black"/>
</g>
<path d="M163.393 84.5121C163.393 84.5121 157.719 73.2796 161.395 54.6747C159.143 53.623 162.121 48.9663 162.027 47.1058L138.547 64.6127C139.637 70.3647 138.533 81.7582 137.704 86.6018L146.758 94.8294L163.393 84.5121Z" fill="#FFC3BD"/>
<path opacity="0.2" d="M139.159 68.0566L152.776 66.9722C150.48 71.011 148.866 74.5574 138.898 74.9652C138.898 74.9652 138.812 69.9825 139.159 68.0566Z" fill="black"/>
<path d="M129.781 12.64C125.598 17.5723 123.778 31.811 133.32 31.3582C142.863 30.9053 136.972 4.16279 129.781 12.64Z" fill="#263238"/>
<path d="M169.05 39.1338C163.77 54.1146 161.095 62.6709 151.171 68.2292C109.618 85.0896 114.142 13.9312 146.271 9.85554C162.667 8.21329 174.329 24.1516 169.05 39.1338Z" fill="#FFC3BD"/>
<path d="M181.354 20.1367C179.202 5.52553 155.471 6.26208 148.366 8.87959C147.305 9.27106 157.993 19.0891 157.315 18.5981L162.61 22.3013C170.07 26.0796 156.611 38.1074 163.026 51.1554C177.223 49.3194 182.448 30.7936 181.354 20.1367Z" fill="#263238"/>
<path d="M171.452 53.5598C167.347 61.2145 152.453 63.2374 156.321 51.421C159.364 39.797 177.41 39.8748 171.452 53.5598Z" fill="#FFC3BD"/>
<path d="M146.316 37.38C145.295 41.0737 141.546 39.9293 142.628 36.2902C143.65 32.5965 147.397 33.7409 146.316 37.38Z" fill="#263238"/>
<path d="M130.483 33.2495C129.461 36.9432 125.713 35.7988 126.795 32.1596C127.816 28.4659 131.563 29.6117 130.483 33.2495Z" fill="#263238"/>
<path d="M135.806 33.8202C135.806 33.8202 128.659 40.1669 126.177 42.8731C127.79 45.4537 131.788 45.6147 131.788 45.6147L135.806 33.8202Z" fill="#FFA9A1"/>
<path d="M151.88 31.0525C151.617 31.0811 151.346 30.972 151.176 30.7401C149.17 27.9944 146.375 28.0899 146.347 28.0912C143.314 26.0848 149.622 25.6538 152.4 29.8549C152.749 30.3064 152.441 31.0047 151.88 31.0525Z" fill="#263238"/>
<path opacity="0.2" d="M160.907 51.2772C160.873 51.2772 160.837 51.2717 160.803 51.2608C160.624 51.2035 160.525 51.0112 160.582 50.8325C161.302 48.5696 163.978 46.3613 166.196 46.1977C167.227 46.124 168.6 46.4118 169.475 48.2014C169.557 48.3705 169.489 48.5751 169.32 48.6583C169.149 48.7401 168.946 48.6719 168.863 48.5014C168.294 47.3379 167.41 46.7923 166.247 46.8783C164.304 47.0215 161.867 49.0429 161.231 51.0398C161.185 51.1844 161.053 51.2772 160.907 51.2772Z" fill="black"/>
<path d="M125.704 24.7571C125.183 24.4966 125.166 23.6795 125.693 23.4135C129.367 21.403 132.438 23.0671 132.584 23.123C133.446 23.5759 132.738 24.9426 131.873 24.4666C131.472 23.8173 128.511 23.8746 125.704 24.7571Z" fill="#263238"/>
<path d="M175.229 43.5106C175.229 43.5106 164.697 28.4698 151.84 21.4588C137.606 13.6963 127.175 16.0055 127.175 16.0055C127.175 16.0055 124.736 13.6172 126.305 12.2627C127.873 10.9096 129.334 12.095 129.334 12.095C129.334 12.095 144.606 -4.17616 162.838 1.02612C181.072 6.22841 187.142 17.4882 186.404 18.3066C182.654 22.4655 180.501 16.0124 180.501 16.0124C180.501 16.0124 184.934 21.9239 179.824 34.0021L178.313 38.7311C178.313 38.7284 179.562 44.2458 175.229 43.5106Z" fill="#263238"/>
<path opacity="0.7" d="M175.229 43.5106C175.229 43.5106 164.697 28.4698 151.84 21.4588C137.606 13.6963 127.175 16.0055 127.175 16.0055C127.175 16.0055 124.736 13.6172 126.305 12.2627C127.873 10.9096 129.334 12.095 129.334 12.095C129.334 12.095 144.606 -4.17616 162.838 1.02612C181.072 6.22841 187.142 17.4882 186.404 18.3066C182.654 22.4655 180.501 16.0124 180.501 16.0124C180.501 16.0124 184.934 21.9239 179.824 34.0021L178.313 38.7311C178.313 38.7284 179.562 44.2458 175.229 43.5106Z" fill="white"/>
<path d="M151.536 20.7821C149.587 20.122 148.147 18.1755 148.085 16.1173C148.046 14.7655 148.541 13.4643 148.886 12.1562C149.231 10.8482 149.417 9.39548 148.799 8.19244C148.271 7.16398 147.162 6.45879 146.007 6.41924C144.851 6.37832 143.696 7.0044 143.097 7.9933C143.53 7.18036 143.231 6.1328 142.627 5.43716C142.022 4.74288 141.17 4.32141 140.342 3.91766C138.85 3.19202 137.177 2.44729 135.588 2.92332C133.998 3.39936 132.991 4.97203 132.436 6.53654C131.72 8.55526 131.53 10.8168 132.257 12.8314C133.23 15.5253 135.723 17.4458 138.416 18.4252C141.107 19.4045 144.015 19.5777 146.874 19.7414" fill="#263238"/>
<path opacity="0.2" d="M181.084 17.0641C181.084 17.0641 179.007 10.1473 170.46 6.6814L181.084 17.0641Z" fill="black"/>
<path opacity="0.3" d="M177.299 38.4362C172.157 28.3413 161.403 18.1522 150.54 13.0822L150.685 12.7726C161.612 17.8712 172.43 28.123 177.603 38.2807L177.299 38.4362Z" fill="black"/>
<path d="M133 51.2919C134.117 53.2629 135.091 55.3116 135.912 57.4217C136.299 57.3399 136.699 57.2662 137.082 57.1653C142.373 55.98 144.445 53.6912 145.109 51.4965C145.416 50.4176 145.465 49.2814 145.251 48.1793C145.146 47.5559 144.954 46.9503 144.682 46.3788C142.25 48.6853 137.418 50.168 134.793 50.85C133.65 51.0928 133 51.2919 133 51.2919Z" fill="#263238"/>
<path d="M134.739 50.8135L135.649 52.6003C140.616 51.475 143.964 50.0305 145.197 48.1428C145.092 47.5194 144.899 46.9138 144.628 46.3423C142.181 48.6706 137.363 50.1315 134.739 50.8135Z" fill="white"/>
<path d="M137.027 57.1285C142.318 55.9432 144.389 53.6544 145.054 51.4584C143.051 51.9453 141.151 52.7815 139.441 53.9313C138.324 54.7197 137.479 55.8368 137.027 57.1285Z" fill="#C15854"/>
<path d="M71.3111 273.317L37.0325 279.876L31.0868 265.834L66.9545 253.473L71.3111 273.317Z" fill="#FFC3BD"/>
<path d="M21.9277 287.494L16.9913 278.016C16.9913 278.016 18.2612 276.195 17.2723 274.154C16.7172 273.007 13.7682 271.177 13.7682 271.177L0 245.21C0.038192 245.19 1.77593 244.261 2.69936 244.142C3.82466 243.996 4.83401 243.981 5.74379 244.074C8.92464 244.403 11.4931 246.799 13.3263 248.638C16.4007 251.719 26.924 259.269 26.924 259.269C26.924 259.269 29.8866 261.029 34.43 260.76C36.9644 260.61 39.0281 261.49 39.7647 262.54C41.2732 264.681 40.5817 266.666 38.6148 268.113L36.3274 269.791C35.8882 272.262 37.173 274.532 39.7742 275.441C39.7742 275.441 45.2179 278.801 42.6182 279.816C41.1341 280.396 34.4041 282.735 29.1446 284.743C27.9183 285.209 26.7589 285.654 25.74 286.043L25.7373 286.04C23.4813 286.904 21.9277 287.494 21.9277 287.494Z" fill="#263238"/>
<path d="M21.4926 255.072C21.659 255.133 21.7654 255.308 21.7517 255.488C21.6904 256.312 21.4189 257.119 20.9224 257.83C20.6605 258.205 20.0181 257.82 20.284 257.443C20.726 256.811 20.9688 256.102 21.0234 255.382C21.0411 255.141 21.2621 254.987 21.4871 255.07C21.4871 255.07 21.4898 255.072 21.4926 255.072Z" fill="#407BFF"/>
<path d="M23.6327 256.504C23.7991 256.566 23.9055 256.74 23.8919 256.919C23.8305 257.743 23.559 258.55 23.0625 259.261C22.8007 259.636 22.1596 259.251 22.4242 258.874C22.8661 258.242 23.1089 257.533 23.1635 256.813C23.1812 256.571 23.4022 256.418 23.6272 256.502C23.6272 256.502 23.63 256.504 23.6327 256.504Z" fill="#407BFF"/>
<path d="M25.7328 258.037C25.9006 258.099 26.0056 258.273 25.992 258.452C25.9319 259.276 25.6591 260.083 25.1627 260.794C24.9008 261.169 24.2583 260.785 24.5243 260.407C24.9663 259.775 25.209 259.067 25.2636 258.346C25.2813 258.104 25.5023 257.952 25.7273 258.035C25.7273 258.035 25.7301 258.037 25.7328 258.037Z" fill="#407BFF"/>
<path opacity="0.2" d="M17.2723 274.153C16.7172 273.006 13.7682 271.176 13.7682 271.176L0 245.209C0.038192 245.189 1.77593 244.26 2.69936 244.141C3.21631 244.074 3.70192 244.042 4.1725 244.028L26.3088 285.826C26.1233 285.897 25.9201 285.975 25.7414 286.043L25.74 286.042C23.4812 286.905 21.9277 287.494 21.9277 287.494L16.9913 278.016C16.9913 278.016 18.2612 276.194 17.2723 274.153Z" fill="white"/>
<path d="M25.3364 258.718L25.3923 258.406C25.5328 257.7 26.0361 255.332 26.6649 254.468C27.3033 253.587 28.2062 253.011 29.1433 252.886C29.663 252.816 30.3368 252.923 30.6492 253.432C30.8879 253.819 30.8524 254.363 30.5523 254.959C30.1199 255.817 29.3956 256.58 28.404 257.222C27.5324 257.788 26.5667 258.197 25.6337 258.593L25.3364 258.718ZM29.4393 253.207C29.3534 253.207 29.2688 253.213 29.187 253.224C28.3426 253.337 27.5215 253.864 26.9391 254.669C26.5067 255.263 26.0743 256.805 25.7906 258.156C26.6172 257.803 27.4601 257.429 28.2144 256.938C29.1556 256.327 29.839 255.609 30.2454 254.805C30.3886 254.523 30.5919 253.992 30.3559 253.61C30.1745 253.312 29.798 253.207 29.4393 253.207Z" fill="#407BFF"/>
<path d="M30.252 261.986C29.6546 261.986 29.0312 261.839 28.442 261.548C27.4886 261.078 25.9377 259.215 25.4848 258.654L25.283 258.404L25.6021 258.376L25.6171 258.546L25.6185 258.376C26.6251 258.29 27.6645 258.201 28.6984 258.299C29.8783 258.407 30.874 258.744 31.6542 259.302C32.1971 259.688 32.4822 260.152 32.4522 260.607C32.414 261.205 31.8697 261.61 31.3732 261.791C31.024 261.923 30.6421 261.986 30.252 261.986ZM25.9554 258.689C26.8366 259.755 27.9359 260.918 28.5948 261.241C29.4868 261.682 30.4566 261.764 31.2573 261.473C31.6528 261.327 32.0852 261.021 32.1125 260.588C32.1425 260.138 31.7156 259.766 31.4592 259.581C30.7267 259.059 29.7882 258.743 28.6684 258.64C27.7709 258.557 26.8543 258.617 25.9554 258.689Z" fill="#407BFF"/>
<path d="M200.276 253.796C207.357 241.748 223.201 209.192 188.944 203.952C154.687 198.711 42.4464 256.164 42.4464 256.164L50.3003 277.677L155.762 257.852C155.762 257.852 141.834 277.634 159.392 276.233C184.897 272.947 190.858 266.647 200.276 253.796Z" fill="#263238"/>
<path opacity="0.2" d="M153.265 258.508L182.063 248.505C182.063 248.505 158.117 264.144 149.225 266.18L153.265 258.508Z" fill="black"/>
</svg>
